<?xml version="1.0" encoding="UTF-8" standalone="no"?>
<!DOCTYPE svg PUBLIC "-//W3C//DTD SVG 1.1//EN" "http://www.w3.org/Graphics/SVG/1.1/DTD/svg11.dtd">
<svg xmlns="http://www.w3.org/2000/svg" version="1.1" viewBox="0 0 1024 1024">
<path fill="#602012" d="
  M 453.63 180.47
  Q 459.18 185.88 464.36 191.47
  C 464.67 191.80 465.20 191.81 465.52 191.49
  L 503.75 153.25
  C 503.89 153.11 503.89 152.89 503.75 152.75
  L 457.61 106.48
  C 457.34 106.22 457.34 105.78 457.60 105.52
  L 511.33 51.79
  C 511.67 51.46 512.21 51.46 512.54 51.79
  L 566.54 105.67
  C 566.76 105.89 566.76 106.24 566.54 106.47
  L 520.43 152.56
  C 520.22 152.77 520.23 153.11 520.44 153.32
  L 558.65 191.65
  C 558.84 191.84 559.16 191.84 559.36 191.64
  L 605.41 145.72
  C 605.70 145.43 606.18 145.43 606.47 145.72
  L 972.22 511.34
  C 972.58 511.70 972.58 512.30 972.22 512.66
  L 606.51 878.36
  C 606.23 878.65 605.77 878.65 605.48 878.36
  L 559.25 832.25
  C 559.11 832.11 558.89 832.11 558.75 832.25
  L 520.64 870.48
  C 520.29 870.83 520.29 871.41 520.64 871.76
  L 566.54 917.55
  C 566.76 917.76 566.76 918.12 566.54 918.33
  L 512.67 972.21
  C 512.33 972.54 511.79 972.54 511.46 972.21
  L 457.42 918.29
  C 457.26 918.13 457.26 917.87 457.42 917.71
  L 503.70 871.42
  C 503.90 871.22 503.90 870.90 503.70 870.70
  L 465.55 832.55
  C 465.21 832.21 464.67 832.21 464.33 832.55
  L 418.66 878.34
  C 418.37 878.64 417.89 878.64 417.59 878.34
  L 51.80 512.55
  C 51.46 512.21 51.46 511.67 51.80 511.33
  L 417.34 145.79
  C 417.74 145.39 418.39 145.39 418.79 145.79
  Q 430.60 157.69 442.64 169.76
  Q 443.24 170.36 453.63 180.47
  Z
  M 512.2823 67.4142
  C 512.08 67.22 511.76 67.22 511.5611 67.4142
  L 473.2642 105.7111
  C 473.07 105.91 473.07 106.23 473.2642 106.4323
  L 511.6177 144.7858
  C 511.82 144.98 512.14 144.98 512.3389 144.7858
  L 550.6358 106.4889
  C 550.83 106.29 550.83 105.97 550.6358 105.7677
  L 512.2823 67.4142
  Z
  M 145.68 510.94
  L 456.64 200.36
  C 456.84 200.16 456.84 199.84 456.65 199.64
  L 418.55 161.43
  C 418.32 161.19 417.93 161.19 417.69 161.43
  L 67.51 511.61
  C 67.29 511.83 67.29 512.17 67.51 512.39
  L 417.68 862.68
  C 417.89 862.89 418.23 862.89 418.44 862.68
  L 456.68 824.44
  C 456.93 824.20 456.93 823.80 456.68 823.56
  L 145.68 512.93
  C 145.13 512.38 145.13 511.49 145.68 510.94
  Z
  M 512.4131 161.2790
  C 512.19 161.06 511.83 161.06 511.6069 161.2790
  L 473.4090 199.4769
  C 473.19 199.70 473.19 200.06 473.4090 200.2831
  L 511.6069 238.4810
  C 511.83 238.70 512.19 238.70 512.4131 238.4810
  L 550.6110 200.2831
  C 550.83 200.06 550.83 199.70 550.6110 199.4769
  L 512.4131 161.2790
  Z
  M 878.39 512.36
  L 567.48 823.40
  C 567.14 823.73 567.14 824.27 567.48 824.60
  L 605.43 862.55
  C 605.71 862.83 606.17 862.83 606.45 862.55
  L 956.40 512.35
  C 956.59 512.16 956.59 511.84 956.40 511.65
  L 606.54 161.67
  C 606.18 161.30 605.58 161.30 605.21 161.67
  L 567.56 199.32
  C 567.18 199.70 567.18 200.30 567.56 200.68
  L 878.40 511.65
  C 878.59 511.84 878.59 512.16 878.39 512.36
  Z
  M 465.60 208.47
  C 465.27 208.14 464.73 208.14 464.40 208.47
  L 161.56 511.31
  C 161.22 511.66 161.22 512.22 161.56 512.56
  L 464.64 815.76
  C 464.87 816.00 465.25 816.00 465.49 815.76
  L 511.36 769.77
  C 511.71 769.42 512.29 769.42 512.64 769.77
  L 558.40 815.64
  C 558.59 815.84 558.91 815.84 559.10 815.65
  L 862.54 512.46
  C 862.83 512.17 862.83 511.71 862.54 511.42
  L 559.30 208.43
  C 559.06 208.19 558.68 208.19 558.45 208.43
  L 512.81 254.06
  C 512.36 254.51 511.64 254.51 511.19 254.06
  L 465.60 208.47
  Z
  M 512.3748 785.4908
  C 512.17 785.28 511.83 785.28 511.6252 785.4908
  L 473.3708 823.7452
  C 473.16 823.95 473.16 824.29 473.3708 824.4948
  L 511.6252 862.7492
  C 511.83 862.96 512.17 862.96 512.3748 862.7492
  L 550.6292 824.4948
  C 550.84 824.29 550.84 823.95 550.6292 823.7452
  L 512.3748 785.4908
  Z
  M 550.7063 918.3425
  C 550.94 918.10 550.94 917.72 550.7063 917.4799
  L 512.4801 879.2537
  C 512.24 879.02 511.86 879.02 511.6175 879.2537
  L 473.4337 917.4375
  C 473.20 917.68 473.20 918.06 473.4337 918.3001
  L 511.6599 956.5263
  C 511.90 956.76 512.28 956.76 512.5225 956.5263
  L 550.7063 918.3425
  Z"
/>
</svg>
