<?xml version="1.0" encoding="UTF-8" standalone="no"?>
<!DOCTYPE svg PUBLIC "-//W3C//DTD SVG 1.1//EN" "http://www.w3.org/Graphics/SVG/1.1/DTD/svg11.dtd">
<svg xmlns="http://www.w3.org/2000/svg" version="1.1" viewBox="0 0 856 380">
<g stroke-width="2.0" fill="none" stroke-linecap="butt">
<path stroke="#854e16" vector-effect="non-scaling-stroke" d="
  M 289.04 169.50
  L 288.77 143.93
  C 288.76 143.31 288.30 142.80 287.74 142.81
  L 282.68 142.87
  C 282.41 142.88 282.18 143.12 282.17 143.43
  Q 281.56 160.10 282.46 176.75"
/>
<path stroke="#47130e" vector-effect="non-scaling-stroke" d="
  M 282.46 176.75
  L 281.81 177.02
  Q 281.10 177.31 280.97 177.44
  L 273.20 185.39
  C 272.88 185.72 272.87 186.24 273.19 186.56
  L 300.46 213.75"
/>
<path stroke="#865216" vector-effect="non-scaling-stroke" d="
  M 300.46 213.75
  Q 300.53 218.46 300.50 223.16
  Q 300.50 223.91 300.64 224.32
  Q 301.00 225.36 301.89 224.85
  Q 302.45 224.53 302.62 223.78
  Q 302.91 222.55 302.75 221.25
  Q 302.37 218.22 304.25 220.50
  Q 305.89 222.49 307.60 224.40
  Q 308.66 225.59 309.54 224.25"
/>
<path stroke="#47130e" vector-effect="non-scaling-stroke" d="
  M 309.54 224.25
  Q 310.51 223.87 311.69 225.06
  Q 329.84 243.47 410.39 323.65
  C 410.59 323.85 410.92 323.85 411.11 323.65
  L 427.83 306.92
  C 428.09 306.66 428.51 306.65 428.76 306.91
  L 442.42 320.88
  C 442.61 321.08 442.60 321.40 442.40 321.61
  L 425.85 338.40
  C 425.66 338.59 425.66 338.91 425.86 339.11
  L 445.42 358.92
  C 445.74 359.25 446.26 359.25 446.59 358.92
  L 466.14 339.36
  C 466.44 339.06 466.44 338.57 466.14 338.27
  L 449.31 321.55
  C 449.17 321.42 449.17 321.21 449.30 321.08
  L 463.46 306.79
  C 463.65 306.60 463.97 306.60 464.18 306.80
  L 481.08 323.59
  C 481.27 323.78 481.59 323.78 481.79 323.59
  Q 549.78 255.93 617.42 187.92
  Q 617.65 187.69 617.96 187.75"
/>
<path stroke="#7f3c17" vector-effect="non-scaling-stroke" d="
  M 617.96 187.75
  L 619.78 191.03
  C 619.93 191.29 620.23 191.45 620.57 191.45
  L 627.21 191.50
  C 627.39 191.50 627.50 191.31 627.42 191.15
  L 603.41 143.26
  C 603.27 142.98 602.99 142.80 602.69 142.80
  L 595.60 142.76
  C 595.10 142.76 594.64 143.05 594.39 143.51
  L 588.50 154.54"
/>
<path stroke="#47130e" vector-effect="non-scaling-stroke" d="
  M 588.50 154.54
  Q 562.04 128.98 536.16 102.84
  Q 509.05 75.45 481.69 48.32
  C 481.52 48.14 481.24 48.14 481.07 48.31
  L 464.04 65.09
  C 463.81 65.31 463.46 65.32 463.24 65.10
  L 449.59 51.13
  C 449.40 50.93 449.40 50.60 449.61 50.39
  L 466.16 33.36
  C 466.35 33.17 466.34 32.85 466.14 32.65
  L 446.60 13.10
  C 446.40 12.90 446.09 12.90 445.88 13.09
  Q 435.49 22.61 425.84 32.88
  C 425.65 33.09 425.65 33.40 425.85 33.60
  L 442.40 50.39
  C 442.60 50.60 442.61 50.92 442.42 51.11
  L 428.62 65.15
  C 428.43 65.35 428.10 65.34 427.90 65.14
  L 411.05 48.30
  C 410.85 48.10 410.53 48.10 410.32 48.30
  L 289.04 169.50"
/>
<path stroke="#98491b" vector-effect="non-scaling-stroke" d="
  M 588.50 154.54
  L 586.29 158.75"
/>
<path stroke="#47130e" vector-effect="non-scaling-stroke" d="
  M 586.29 158.75
  L 481.88 54.25
  C 481.60 53.97 481.15 53.97 480.87 54.25
  L 467.28 67.85
  C 466.92 68.21 466.92 68.79 467.28 69.15
  Q 507.06 108.94 547.06 148.94
  Q 547.17 149.05 547.46 149.00"
/>
<path stroke="#994d1b" vector-effect="non-scaling-stroke" d="
  M 547.46 149.00
  L 545.54 152.75"
/>
<path stroke="#47130e" vector-effect="non-scaling-stroke" d="
  M 545.54 152.75
  Q 545.39 152.52 545.16 152.47
  C 544.81 152.40 544.55 152.30 544.46 152.21
  L 463.99 71.86
  C 463.78 71.66 463.46 71.66 463.26 71.86
  L 446.36 88.65
  C 446.16 88.85 445.84 88.85 445.64 88.65
  L 428.74 71.86
  C 428.54 71.66 428.22 71.66 428.02 71.86
  Q 393.27 106.65 359.00 140.75
  Q 357.72 142.03 357.50 142.71"
/>
<path stroke="#9d581b" vector-effect="non-scaling-stroke" d="
  M 357.50 142.71
  L 351.00 142.71"
/>
<path stroke="#47130e" vector-effect="non-scaling-stroke" d="
  M 351.00 142.71
  L 424.84 68.92
  C 425.04 68.72 425.04 68.40 424.85 68.20
  Q 418.22 60.91 410.88 54.34
  C 410.67 54.15 410.35 54.15 410.15 54.35
  L 323.41 140.96
  C 323.15 141.22 323.01 141.53 323.00 141.81
  L 323.00 142.71"
/>
<path stroke="#9e5b1b" vector-effect="non-scaling-stroke" d="
  M 323.00 142.71
  Q 319.16 141.66 319.46 145.00"
/>
<path stroke="#47130e" vector-effect="non-scaling-stroke" d="
  M 319.46 145.00
  Q 304.66 159.55 290.19 174.44
  Q 289.42 175.22 289.46 175.75"
/>
<path stroke="#9e5b1b" vector-effect="non-scaling-stroke" d="
  M 289.46 175.75
  L 289.04 169.50"
/>
<path stroke="#854e16" vector-effect="non-scaling-stroke" d="
  M 289.46 175.75
  Q 290.44 182.11 296.16 184.87
  Q 301.59 187.50 307.50 186.21"
/>
<path stroke="#9e5b1b" vector-effect="non-scaling-stroke" d="
  M 307.50 186.21
  Q 317.03 185.05 318.71 175.75"
/>
<path stroke="#854e16" vector-effect="non-scaling-stroke" d="
  M 318.71 175.75
  Q 319.58 171.55 319.56 167.25
  Q 319.53 156.12 319.46 145.00"
/>
<path stroke="#9e5b1b" vector-effect="non-scaling-stroke" d="
  M 326.29 166.25
  L 326.29 173.25"
/>
<path stroke="#9e5b1b" vector-effect="non-scaling-stroke" d="
  M 317.75 189.04
  L 313.46 191.00"
/>
<path stroke="#9e5b1b" vector-effect="non-scaling-stroke" d="
  M 283.50 181.21
  L 282.46 176.75"
/>
<path stroke="#98491b" vector-effect="non-scaling-stroke" d="
  M 617.96 187.75
  L 613.97 179.49
  C 613.70 178.92 613.13 178.55 612.52 178.55
  L 606.46 178.50"
/>
<path stroke="#7f3c17" vector-effect="non-scaling-stroke" d="
  M 606.46 178.50
  L 584.05 178.56
  C 583.71 178.56 583.41 178.73 583.28 178.99
  L 581.25 182.96"
/>
<path stroke="#98491b" vector-effect="non-scaling-stroke" d="
  M 581.25 182.96
  L 576.98 190.81
  C 576.81 191.12 576.53 191.32 576.25 191.33
  L 572.00 191.54"
/>
<path stroke="#98491b" vector-effect="non-scaling-stroke" d="
  M 574.29 182.00
  L 576.50 177.79"
/>
<path stroke="#9d581b" vector-effect="non-scaling-stroke" d="
  M 340.96 158.75
  L 340.96 153.00"
/>
<path stroke="#994d1b" vector-effect="non-scaling-stroke" d="
  M 562.25 164.71
  L 562.04 169.50"
/>
<path stroke="#7f3c17" vector-effect="non-scaling-stroke" d="
  M 586.29 158.75
  L 576.50 177.79"
/>
<path stroke="#47130e" vector-effect="non-scaling-stroke" d="
  M 576.50 177.79
  Q 575.90 177.78 575.19 177.06
  Q 569.19 171.06 563.21 165.04
  Q 562.82 164.64 562.25 164.71"
/>
<path stroke="#804017" vector-effect="non-scaling-stroke" d="
  M 562.25 164.71
  L 561.82 143.44
  C 561.81 143.15 561.59 142.91 561.31 142.91
  L 551.31 142.78
  C 550.86 142.77 550.43 143.05 550.21 143.50
  L 547.46 149.00"
/>
<path stroke="#47130e" vector-effect="non-scaling-stroke" d="
  M 318.71 175.75
  Q 317.97 175.83 316.75 177.00
  Q 312.04 181.52 307.50 186.21"
/>
<path stroke="#844b16" vector-effect="non-scaling-stroke" d="
  M 351.00 142.71
  L 341.57 142.81
  C 341.29 142.81 341.06 143.03 341.05 143.31
  L 340.96 153.00"
/>
<path stroke="#47130e" vector-effect="non-scaling-stroke" d="
  M 340.96 153.00
  Q 331.44 162.18 329.06 164.81
  Q 327.67 166.35 326.29 166.25"
/>
<path stroke="#854e16" vector-effect="non-scaling-stroke" d="
  M 326.29 166.25
  L 326.19 143.32
  C 326.19 143.03 325.97 142.80 325.69 142.79
  L 323.00 142.71"
/>
<path stroke="#804017" vector-effect="non-scaling-stroke" d="
  M 545.54 152.75
  L 530.05 184.07
  Q 529.67 184.85 529.28 184.07
  L 509.47 143.67
  C 509.19 143.11 508.62 142.75 508.00 142.75
  L 498.00 142.75
  C 497.72 142.75 497.50 142.97 497.50 143.25
  L 497.56 190.70
  C 497.56 191.02 497.77 191.28 498.04 191.29
  L 503.38 191.39
  C 503.72 191.40 504.00 191.09 504.00 190.71
  L 504.25 148.35
  Q 504.25 147.24 504.74 148.23
  L 525.72 190.87
  C 525.87 191.19 526.15 191.39 526.43 191.38
  L 532.94 191.27
  C 533.22 191.27 533.50 191.07 533.66 190.75
  L 554.97 148.00
  Q 555.50 146.93 555.50 148.12
  L 555.50 190.85
  C 555.50 191.18 555.75 191.45 556.06 191.45
  L 561.32 191.37
  C 561.60 191.37 561.82 191.12 561.83 190.81
  L 562.04 169.50"
/>
<path stroke="#47130e" vector-effect="non-scaling-stroke" d="
  M 562.04 169.50
  L 574.29 182.00"
/>
<path stroke="#7f3c17" vector-effect="non-scaling-stroke" d="
  M 574.29 182.00
  L 570.02 190.98
  C 569.92 191.20 570.07 191.46 570.31 191.47
  L 572.00 191.54"
/>
<path stroke="#47130e" vector-effect="non-scaling-stroke" d="
  M 572.00 191.54
  Q 572.02 192.36 571.69 192.69
  Q 517.84 246.23 464.11 299.90
  C 463.90 300.10 463.58 300.10 463.38 299.91
  L 446.51 283.37
  C 446.23 283.09 445.78 283.09 445.51 283.36
  L 428.79 300.08
  C 428.49 300.38 428.00 300.38 427.70 300.08
  Q 390.67 262.58 353.50 225.75
  Q 352.32 224.59 352.00 222.96"
/>
<path stroke="#865216" vector-effect="non-scaling-stroke" d="
  M 352.00 222.96
  Q 354.13 219.68 352.82 216.82
  Q 351.66 214.28 348.57 213.53
  Q 344.95 212.64 342.83 215.60
  Q 341.09 218.04 341.86 220.81
  Q 342.93 224.63 347.75 225.04"
/>
<path stroke="#47130e" vector-effect="non-scaling-stroke" d="
  M 347.75 225.04
  Q 347.70 226.39 348.66 227.09
  Q 349.75 227.87 349.85 227.98
  Q 387.45 265.49 424.90 303.15
  C 425.10 303.35 425.10 303.67 424.91 303.86
  L 410.87 317.66
  C 410.67 317.85 410.35 317.85 410.15 317.65
  Q 365.05 272.85 320.25 227.75
  Q 318.24 225.73 317.96 225.00"
/>
<path stroke="#865216" vector-effect="non-scaling-stroke" d="
  M 317.96 225.00
  Q 319.22 224.38 320.30 223.51
  Q 321.04 222.92 320.59 222.48
  Q 320.34 222.23 319.83 222.27
  Q 318.76 222.35 317.74 222.65
  Q 316.48 223.02 315.72 222.81
  Q 313.82 222.28 313.12 220.56
  Q 312.52 219.10 313.31 217.49
  Q 314.90 214.24 318.55 215.98
  Q 319.23 216.31 319.64 216.86
  Q 320.83 218.50 318.51 218.34
  Q 317.35 218.25 316.97 218.29
  Q 314.80 218.53 316.13 219.90
  C 316.35 220.13 316.67 220.26 317.00 220.26
  L 321.44 220.21
  C 321.76 220.20 322.05 220.02 322.18 219.74
  Q 322.89 218.17 321.75 216.50
  Q 318.07 211.09 312.81 214.81
  Q 311.62 215.66 310.75 217.79"
/>
<path stroke="#47130e" vector-effect="non-scaling-stroke" d="
  M 310.75 217.79
  Q 308.76 217.34 308.96 215.00"
/>
<path stroke="#865216" vector-effect="non-scaling-stroke" d="
  M 308.96 215.00
  Q 310.05 213.44 308.56 213.32
  C 308.24 213.29 307.92 213.41 307.67 213.63
  L 303.53 217.34
  Q 302.74 218.05 302.75 217.01
  Q 302.80 213.28 302.69 209.31
  Q 302.67 208.59 301.75 208.46"
/>
<path stroke="#47130e" vector-effect="non-scaling-stroke" d="
  M 301.75 208.46
  Q 299.92 207.55 297.31 204.94
  Q 288.31 195.94 278.94 186.56
  C 278.65 186.27 278.63 185.81 278.91 185.55
  L 283.50 181.21"
/>
<path stroke="#854e16" vector-effect="non-scaling-stroke" d="
  M 283.50 181.21
  Q 286.14 186.93 291.31 189.44
  Q 301.79 194.51 313.46 191.00"
/>
<path stroke="#47130e" vector-effect="non-scaling-stroke" d="
  M 313.46 191.00
  Q 313.55 191.92 315.00 193.25
  Q 320.70 198.49 336.50 214.75
  Q 336.67 214.93 337.75 215.54"
/>
<path stroke="#865216" vector-effect="non-scaling-stroke" d="
  M 337.75 215.54
  L 335.61 220.95
  Q 335.24 221.89 334.82 220.95
  Q 333.36 217.73 331.60 214.68
  Q 331.27 214.11 330.89 213.80
  Q 329.82 212.93 329.61 214.08
  Q 329.52 214.60 329.83 215.23
  Q 331.58 218.85 333.95 223.05
  C 334.18 223.45 334.21 223.96 334.01 224.43
  L 332.23 228.72
  C 332.11 229.01 332.18 229.34 332.41 229.55
  Q 333.58 230.62 334.14 229.14
  Q 334.54 228.09 334.56 228.03
  Q 337.68 221.45 340.54 214.75"
/>
<path stroke="#47130e" vector-effect="non-scaling-stroke" d="
  M 340.54 214.75
  Q 341.38 214.56 341.19 214.06
  Q 341.13 213.90 340.68 213.56
  Q 340.26 213.25 340.22 212.75
  C 340.18 212.38 340.06 212.08 339.89 211.91
  L 318.13 190.27
  C 317.88 190.02 317.74 189.73 317.74 189.49
  L 317.75 189.04"
/>
<path stroke="#854e16" vector-effect="non-scaling-stroke" d="
  M 317.75 189.04
  Q 326.30 183.63 326.29 173.25"
/>
<path stroke="#47130e" vector-effect="non-scaling-stroke" d="
  M 326.29 173.25
  L 340.96 158.75"
/>
<path stroke="#844b16" vector-effect="non-scaling-stroke" d="
  M 340.96 158.75
  L 341.00 190.85
  C 341.00 191.21 341.29 191.50 341.65 191.50
  L 346.94 191.50
  C 347.25 191.50 347.50 191.25 347.50 190.94
  L 347.50 170.66
  C 347.50 170.33 347.76 170.06 348.09 170.04
  Q 357.20 169.61 365.55 170.47
  Q 368.74 170.80 370.25 171.77
  Q 372.63 173.32 373.00 176.25
  Q 373.92 183.59 375.73 190.68
  C 375.85 191.16 376.29 191.50 376.79 191.50
  L 382.50 191.50
  C 382.75 191.50 382.94 191.26 382.87 191.02
  Q 380.65 182.45 378.95 173.76
  Q 378.04 169.07 372.44 167.75
  Q 371.72 167.58 372.42 167.36
  Q 383.00 164.04 381.85 154.38
  Q 381.32 149.85 379.00 147.09
  Q 376.29 143.87 371.49 143.31
  Q 364.52 142.51 357.50 142.71"
/>
<path stroke="#9f5f1b" vector-effect="non-scaling-stroke" d="
  M 301.75 208.46
  Q 300.59 208.42 300.56 209.31
  Q 300.48 211.53 300.46 213.75"
/>
<path stroke="#9f5f1b" vector-effect="non-scaling-stroke" d="
  M 340.54 214.75
  Q 340.32 212.24 338.93 214.15
  Q 338.39 214.89 337.75 215.54"
/>
<path stroke="#9f5f1b" vector-effect="non-scaling-stroke" d="
  M 309.54 224.25
  L 305.79 219.24
  C 305.44 218.78 305.48 218.16 305.87 217.80
  L 308.96 215.00"
/>
<path stroke="#9f5f1b" vector-effect="non-scaling-stroke" d="
  M 310.75 217.79
  Q 310.50 225.26 317.96 225.00"
/>
<path stroke="#9f5f1b" vector-effect="non-scaling-stroke" d="
  M 347.75 225.04
  Q 350.25 224.77 352.00 222.96"
/>
<path stroke="#47130e" vector-effect="non-scaling-stroke" d="
  M 581.25 182.96
  Q 582.87 184.04 583.72 185.73
  C 583.86 185.99 583.80 186.32 583.58 186.54
  L 467.17 303.21
  C 466.97 303.41 466.97 303.73 467.16 303.93
  L 480.72 317.59
  C 481.08 317.95 481.68 317.95 482.04 317.58
  L 612.88 186.74
  C 613.25 186.37 613.27 185.77 612.92 185.38
  Q 610.41 182.59 607.25 179.75
  Q 606.44 179.02 606.46 178.50"
/>
<path stroke="#865216" vector-effect="non-scaling-stroke" d="
  M 140.31 214.35
  Q 124.28 214.11 108.24 214.24
  Q 108.23 214.24 106.79 214.09
  Q 105.49 213.95 105.59 215.38
  Q 105.67 216.37 105.60 217.13
  Q 105.40 219.29 107.48 219.12
  Q 108.92 219.01 109.02 219.01
  Q 136.11 219.30 163.19 219.68
  Q 169.67 219.78 172.26 219.14
  Q 177.08 217.95 180.37 214.51
  Q 185.18 209.47 184.21 202.79
  Q 183.04 194.72 173.40 190.37
  C 172.57 190.00 172.15 189.05 172.44 188.18
  L 187.00 144.50
  Q 187.97 141.58 184.94 141.56
  L 93.81 140.94
  C 93.51 140.94 93.23 140.76 93.12 140.48
  Q 90.26 133.63 89.25 129.50
  Q 88.54 126.58 85.87 126.69
  Q 84.70 126.74 84.63 126.74
  Q 78.02 126.58 70.52 126.49
  C 70.19 126.48 69.92 126.72 69.90 127.02
  L 69.75 130.94
  C 69.74 131.21 69.99 131.44 70.31 131.46
  L 84.18 132.04
  C 84.49 132.05 84.75 132.25 84.84 132.53
  L 104.13 192.12
  Q 104.81 194.23 107.00 194.24
  Q 138.00 194.47 167.75 194.78
  Q 175.98 194.86 178.74 202.39
  Q 179.91 205.59 178.30 208.56
  Q 174.94 214.76 167.75 214.68
  Q 154.03 214.55 140.31 214.35"
/>
<path stroke="#865216" vector-effect="non-scaling-stroke" d="
  M 259.41 184.90
  Q 256.30 186.44 252.25 186.75
  Q 245.45 187.27 240.31 185.19
  Q 235.50 183.24 234.40 177.43
  C 234.34 177.10 234.10 176.87 233.83 176.87
  L 227.75 176.92
  C 227.48 176.93 227.27 177.20 227.30 177.51
  Q 228.43 188.42 239.23 191.07
  Q 245.24 192.55 251.32 192.08
  Q 255.80 191.73 259.29 190.91
  Q 263.83 189.84 266.69 187.44
  Q 271.55 183.34 271.75 177.75
  Q 272.09 168.02 262.26 165.69
  Q 253.35 163.57 244.28 162.32
  Q 240.06 161.73 238.56 160.94
  Q 234.88 158.99 235.50 155.25
  Q 236.23 150.83 239.88 149.03
  Q 242.23 147.86 246.72 147.33
  Q 251.51 146.77 256.26 148.21
  Q 261.52 149.80 262.88 155.01
  C 262.96 155.32 263.20 155.55 263.49 155.62
  Q 266.41 156.23 269.21 155.35
  C 269.49 155.26 269.67 154.98 269.62 154.69
  Q 268.28 145.21 258.50 143.00
  Q 246.80 140.35 236.31 144.56
  Q 228.89 147.55 228.38 155.10
  Q 228.10 159.15 229.89 162.13
  Q 231.86 165.42 235.80 166.96
  Q 240.00 168.60 243.00 169.00
  Q 249.76 169.90 256.45 171.16
  Q 260.41 171.90 262.21 173.23
  Q 265.67 175.78 264.20 179.78
  Q 262.96 183.15 259.41 184.90"
/>
<path stroke="#7e3917" vector-effect="non-scaling-stroke" d="
  M 632.65 152.69
  Q 630.84 157.98 634.03 162.57
  Q 635.73 165.01 638.76 166.52
  Q 641.58 167.93 644.74 168.54
  Q 651.59 169.85 658.50 170.75
  Q 663.05 171.35 664.50 172.25
  Q 670.14 175.76 667.88 180.41
  Q 666.42 183.42 662.37 185.17
  Q 654.20 188.70 645.20 185.51
  Q 639.58 183.52 638.22 177.27
  C 638.16 176.97 637.90 176.76 637.60 176.76
  L 631.55 176.80
  C 631.28 176.80 631.06 177.03 631.07 177.31
  Q 631.32 184.07 636.06 187.69
  Q 639.83 190.56 645.00 191.53
  Q 649.20 192.31 654.52 192.16
  Q 661.17 191.97 666.94 189.44
  Q 675.78 185.56 675.29 175.76
  Q 674.97 169.47 669.25 166.99
  Q 664.93 165.12 662.50 164.75
  Q 650.53 162.94 644.56 161.69
  Q 639.54 160.63 639.39 156.04
  Q 639.33 154.25 640.13 152.58
  Q 641.06 150.65 642.56 149.81
  Q 651.77 144.68 661.67 148.98
  Q 663.79 149.89 664.83 151.17
  Q 666.08 152.72 666.51 154.80
  C 666.63 155.36 667.11 155.76 667.67 155.75
  L 672.93 155.70
  C 673.22 155.70 673.45 155.47 673.45 155.19
  Q 673.45 150.24 670.19 147.06
  Q 666.56 143.53 660.85 142.49
  Q 656.38 141.68 651.91 141.96
  Q 646.46 142.30 643.13 143.32
  Q 639.55 144.41 636.70 146.85
  Q 633.79 149.34 632.65 152.69"
/>
<path stroke="#7c3517" vector-effect="non-scaling-stroke" d="
  M 722.91 179.00
  L 728.73 190.99
  C 728.88 191.30 729.19 191.50 729.53 191.50
  L 736.04 191.50
  C 736.38 191.50 736.60 191.14 736.45 190.84
  L 712.41 143.25
  C 712.27 142.97 711.99 142.79 711.69 142.79
  L 704.30 142.80
  C 704.01 142.80 703.73 142.97 703.59 143.25
  L 679.17 190.70
  C 678.98 191.07 679.25 191.50 679.66 191.50
  L 685.26 191.50
  C 685.60 191.50 685.92 191.31 686.07 191.01
  L 692.33 179.01
  C 692.48 178.73 692.76 178.56 693.06 178.56
  L 722.19 178.56
  C 722.50 178.56 722.78 178.73 722.91 179.00"
/>
<path stroke="#7b3117" vector-effect="non-scaling-stroke" d="
  M 750.81 184.95
  L 750.75 143.42
  C 750.75 143.05 750.45 142.75 750.09 142.75
  L 744.67 142.75
  C 744.30 142.75 744.00 143.05 744.00 143.42
  L 744.00 190.98
  C 744.00 191.27 744.23 191.50 744.52 191.50
  L 777.98 191.50
  C 778.27 191.50 778.50 191.27 778.50 190.98
  L 778.50 186.05
  C 778.50 185.75 778.25 185.50 777.94 185.50
  L 751.30 185.44
  C 751.03 185.44 750.81 185.22 750.81 184.95"
/>
<path stroke="#7a2e17" vector-effect="non-scaling-stroke" d="
  M 824.06 191.05
  L 824.15 186.22
  C 824.16 185.69 823.69 185.25 823.10 185.25
  L 794.60 185.25
  C 794.13 185.25 793.75 184.87 793.75 184.40
  L 793.75 169.19
  C 793.75 168.81 794.06 168.50 794.44 168.50
  L 820.61 168.50
  C 820.95 168.50 821.23 168.23 821.23 167.89
  L 821.21 163.31
  C 821.21 163.03 820.98 162.81 820.70 162.81
  L 794.42 162.75
  C 794.05 162.75 793.75 162.45 793.75 162.09
  L 793.75 149.17
  C 793.75 148.80 794.05 148.50 794.42 148.50
  L 822.56 148.50
  C 823.06 148.50 823.45 148.01 823.43 147.42
  L 823.29 143.26
  C 823.28 142.98 823.07 142.75 822.82 142.75
  L 787.77 142.75
  C 787.48 142.75 787.25 142.98 787.25 143.27
  L 787.25 190.73
  C 787.25 191.12 787.56 191.44 787.95 191.44
  L 823.52 191.50
  C 823.82 191.50 824.06 191.30 824.06 191.05"
/>
<path stroke="#865216" vector-effect="non-scaling-stroke" d="
  M 241.15 220.22
  Q 239.45 215.18 238.16 210.02
  Q 237.69 208.14 236.60 208.77
  Q 236.05 209.08 235.80 209.99
  Q 234.38 215.21 232.98 220.28
  Q 232.60 221.68 232.25 220.27
  Q 230.99 215.01 229.36 209.87
  Q 229.15 209.20 228.83 208.85
  Q 227.99 207.94 227.44 209.04
  C 227.31 209.30 227.29 209.64 227.39 209.98
  Q 229.46 216.96 231.56 223.94
  Q 232.06 225.58 233.13 224.90
  Q 233.65 224.58 233.88 223.73
  Q 235.40 218.26 236.75 212.73
  Q 237.04 211.57 237.32 212.73
  Q 238.69 218.27 240.26 223.79
  Q 240.69 225.30 241.64 224.83
  Q 242.14 224.58 242.41 223.79
  Q 244.80 216.85 246.63 209.74
  C 246.71 209.41 246.66 209.08 246.48 208.83
  Q 245.35 207.29 244.75 209.50
  Q 242.85 216.42 241.48 220.23
  Q 241.31 220.69 241.15 220.22"
/>
<path stroke="#865216" vector-effect="non-scaling-stroke" d="
  M 273.92 214.13
  Q 271.18 212.07 268.56 213.56
  Q 265.51 215.30 266.00 219.53
  Q 266.21 221.32 266.24 223.14
  Q 266.26 223.92 266.45 224.34
  Q 266.91 225.37 267.80 224.75
  C 268.05 224.58 268.20 224.28 268.21 223.94
  L 268.24 217.57
  C 268.24 216.54 268.92 215.65 269.90 215.40
  Q 273.52 214.49 273.25 218.75
  Q 273.08 221.40 273.43 224.01
  C 273.47 224.35 273.66 224.63 273.93 224.76
  Q 275.18 225.38 275.30 223.49
  Q 275.47 220.81 275.49 218.12
  Q 275.51 216.68 275.95 215.99
  Q 276.75 214.75 278.28 215.13
  Q 280.41 215.66 280.44 217.79
  L 280.51 223.75
  C 280.51 224.12 280.61 224.44 280.79 224.64
  Q 281.43 225.34 282.05 224.71
  Q 282.43 224.33 282.48 223.54
  Q 282.86 217.82 282.25 216.50
  Q 279.72 211.02 274.72 214.17
  C 274.48 214.32 274.16 214.31 273.92 214.13"
/>
<path stroke="#865216" vector-effect="non-scaling-stroke" d="
  M 254.70 218.07
  L 252.00 218.30
  C 251.62 218.33 251.31 218.45 251.17 218.61
  Q 249.85 220.22 252.49 220.36
  Q 254.63 220.47 256.70 220.05
  C 257.01 219.98 257.25 219.75 257.30 219.45
  Q 257.81 216.64 255.31 214.69
  Q 253.12 212.97 250.85 213.33
  Q 248.89 213.64 247.23 215.55
  Q 244.25 218.99 247.09 222.63
  Q 248.55 224.50 250.57 224.94
  Q 252.96 225.47 255.00 224.00
  Q 256.64 222.81 254.98 222.16
  C 254.71 222.05 254.38 222.10 254.10 222.29
  Q 251.96 223.68 249.81 222.44
  Q 247.58 221.14 247.81 219.01
  Q 247.99 217.32 249.60 216.10
  Q 252.60 213.85 254.93 217.51
  C 255.08 217.74 254.95 218.05 254.70 218.07"
/>
<path stroke="#865216" vector-effect="non-scaling-stroke" d="
  M 285.55 218.24
  Q 285.10 220.39 286.31 222.19
  Q 289.20 226.46 294.29 224.44
  C 294.58 224.33 294.90 224.34 295.19 224.49
  Q 297.52 225.65 297.39 223.10
  Q 297.32 221.82 297.39 220.89
  Q 297.58 218.18 296.23 216.09
  Q 294.90 214.02 292.48 213.46
  Q 289.54 212.78 287.39 214.93
  Q 285.94 216.38 285.55 218.24"
/>
<path stroke="#865216" vector-effect="non-scaling-stroke" d="
  M 138.71 233.29
  C 138.71 226.92 133.54 221.75 127.17 221.75
  C 120.80 221.75 115.63 226.92 115.63 233.29
  C 115.63 239.66 120.80 244.83 127.17 244.83
  C 133.54 244.83 138.71 239.66 138.71 233.29"
/>
<path stroke="#865216" vector-effect="non-scaling-stroke" d="
  M 164.5979 245.4009
  C 170.92 245.92 176.48 241.16 177.0014 234.7615
  C 177.53 228.37 172.83 222.76 166.5021 222.2391
  C 160.18 221.72 154.62 226.48 154.0986 232.8785
  C 153.57 239.27 158.27 244.88 164.5979 245.4009"
/>
<path stroke="#47130e" vector-effect="non-scaling-stroke" d="
  M 460.5664 33.3138
  C 460.67 33.21 460.67 33.05 460.5664 32.9462
  L 446.1838 18.5636
  C 446.08 18.46 445.92 18.46 445.8162 18.5636
  L 431.4336 32.9462
  C 431.33 33.05 431.33 33.21 431.4336 33.3138
  L 445.8162 47.6964
  C 445.92 47.80 446.08 47.80 446.1838 47.6964
  L 460.5664 33.3138"
/>
<path stroke="#47130e" vector-effect="non-scaling-stroke" d="
  M 446.1909 54.0538
  C 446.09 53.95 445.91 53.95 445.8091 54.0538
  L 431.5538 68.3091
  C 431.45 68.41 431.45 68.59 431.5538 68.6909
  L 445.8091 82.9462
  C 445.91 83.05 446.09 83.05 446.1909 82.9462
  L 460.4462 68.6909
  C 460.55 68.59 460.55 68.41 460.4462 68.3091
  L 446.1909 54.0538"
/>
<path stroke="#834717" vector-effect="non-scaling-stroke" d="
  M 411.18 164.37
  L 394.24 143.48
  C 393.87 143.02 393.32 142.75 392.76 142.75
  L 385.53 142.75
  Q 384.31 142.75 385.09 143.70
  L 407.20 170.38
  C 407.57 170.83 407.77 171.42 407.78 172.05
  L 407.92 190.81
  C 407.92 191.11 408.15 191.35 408.44 191.36
  L 414.19 191.47
  C 414.46 191.48 414.69 191.23 414.69 190.93
  L 414.81 171.06
  C 414.81 170.74 414.92 170.42 415.13 170.17
  L 436.69 143.38
  Q 437.05 142.94 436.50 142.93
  L 429.57 142.86
  C 428.93 142.85 428.28 143.21 427.80 143.82
  L 411.81 164.37
  C 411.65 164.57 411.34 164.57 411.18 164.37"
/>
<path stroke="#814317" vector-effect="non-scaling-stroke" d="
  M 476.66 179.00
  L 482.48 190.99
  C 482.63 191.30 482.94 191.50 483.28 191.50
  L 489.69 191.50
  C 490.11 191.50 490.38 191.06 490.19 190.69
  L 466.16 143.25
  C 466.01 142.96 465.73 142.78 465.44 142.78
  L 458.19 142.89
  C 457.89 142.90 457.61 143.08 457.46 143.37
  L 432.92 190.70
  C 432.73 191.07 433.00 191.50 433.41 191.50
  L 439.01 191.50
  C 439.35 191.50 439.67 191.31 439.83 191.00
  L 446.08 179.01
  C 446.23 178.73 446.51 178.56 446.81 178.56
  L 475.94 178.56
  C 476.25 178.56 476.53 178.73 476.66 179.00"
/>
<path stroke="#865216" vector-effect="non-scaling-stroke" d="
  M 391.05 215.52
  L 392.00 215.49
  C 392.36 215.48 392.67 215.35 392.85 215.15
  Q 393.95 213.89 391.75 213.89
  Q 390.00 213.89 390.69 211.30
  C 390.89 210.54 390.31 209.80 389.53 209.81
  Q 387.90 209.84 388.01 211.76
  Q 388.25 216.00 388.40 220.24
  Q 388.54 224.25 392.19 224.87
  C 392.53 224.93 392.86 224.86 393.11 224.67
  Q 394.58 223.57 391.79 222.47
  C 391.01 222.16 390.49 221.42 390.50 220.61
  L 390.54 216.07
  C 390.55 215.77 390.77 215.53 391.05 215.52"
/>
<path stroke="#865216" vector-effect="non-scaling-stroke" d="
  M 425.56 215.64
  Q 428.22 216.00 427.42 214.25
  C 427.31 214.00 427.02 213.85 426.68 213.87
  Q 424.69 213.98 425.00 211.50
  Q 425.33 208.90 423.37 209.93
  C 423.08 210.09 422.89 210.38 422.90 210.68
  L 423.00 221.75
  Q 423.03 224.67 426.25 224.75
  Q 430.06 224.84 425.93 222.16
  C 425.34 221.78 424.99 221.15 425.00 220.49
  L 425.04 216.06
  C 425.05 215.80 425.29 215.60 425.56 215.64"
/>
<path stroke="#865216" vector-effect="non-scaling-stroke" d="
  M 372.19 216.19
  Q 370.79 218.75 371.15 222.25
  Q 371.22 222.91 371.20 223.76
  Q 371.14 225.67 372.11 225.11
  C 372.91 224.65 373.39 223.79 373.35 222.87
  Q 373.06 216.05 377.27 215.07
  Q 379.69 214.50 378.10 213.33
  C 377.85 213.15 377.52 213.06 377.18 213.09
  Q 373.71 213.39 372.19 216.19"
/>
<path stroke="#865216" vector-effect="non-scaling-stroke" d="
  M 356.94 213.69
  Q 356.35 214.63 356.38 216.06
  Q 356.42 217.84 356.39 218.44
  Q 356.15 223.62 360.40 224.71
  Q 363.24 225.44 365.29 223.80
  Q 367.55 221.99 367.36 218.49
  Q 367.26 216.62 367.25 214.75
  C 367.25 214.40 367.15 214.08 366.97 213.84
  Q 365.89 212.41 365.40 214.08
  Q 365.25 214.59 365.32 215.42
  Q 365.52 217.90 364.91 220.24
  Q 364.47 221.88 363.20 222.55
  Q 361.36 223.50 359.93 222.26
  Q 358.75 221.24 358.57 218.84
  Q 358.41 216.71 358.43 214.57
  Q 358.43 213.97 358.22 213.60
  Q 357.63 212.58 356.94 213.69"
/>
<path stroke="#865216" vector-effect="non-scaling-stroke" d="
  M 405.33 224.38
  Q 406.27 225.33 407.15 224.61
  C 407.37 224.43 407.50 224.11 407.50 223.75
  Q 407.52 222.13 407.63 220.51
  Q 407.80 217.86 406.48 215.94
  Q 405.21 214.09 402.84 213.50
  Q 399.61 212.69 397.41 215.13
  Q 395.98 216.71 395.70 218.66
  Q 395.38 220.91 396.81 222.69
  Q 399.91 226.54 404.56 224.23
  C 404.81 224.10 405.12 224.17 405.33 224.38"
/>
<path stroke="#865216" vector-effect="non-scaling-stroke" d="
  M 412.81 217.19
  Q 411.17 216.56 412.94 215.69
  Q 415.17 214.58 417.10 215.84
  Q 417.76 216.28 418.13 216.36
  Q 419.42 216.63 419.08 215.28
  C 419.01 214.98 418.82 214.71 418.54 214.52
  Q 414.75 211.80 411.19 214.73
  C 410.93 214.95 410.75 215.24 410.70 215.56
  Q 410.20 218.55 414.62 219.68
  Q 416.18 220.08 417.35 221.21
  Q 418.07 221.91 417.01 222.62
  Q 416.50 222.96 415.80 223.04
  Q 413.60 223.31 411.83 222.10
  C 411.52 221.89 411.20 221.78 410.93 221.81
  Q 409.91 221.89 410.10 222.82
  Q 410.21 223.40 410.85 223.82
  Q 414.01 225.94 417.19 224.69
  Q 421.06 223.16 418.73 219.72
  C 418.56 219.47 418.30 219.27 417.97 219.15
  L 412.81 217.19"
/>
<path stroke="#865216" vector-effect="non-scaling-stroke" d="
  M 439.10 218.05
  Q 438.30 218.54 437.24 218.31
  Q 434.74 217.74 435.16 219.46
  C 435.24 219.81 435.51 220.06 435.80 220.06
  L 440.51 220.08
  C 441.35 220.09 441.93 219.21 441.68 218.33
  Q 440.62 214.65 437.79 213.66
  Q 435.07 212.71 432.53 214.41
  Q 430.39 215.83 430.15 218.51
  Q 429.95 220.78 431.34 222.72
  Q 434.15 226.62 439.25 223.93
  C 439.59 223.75 439.81 223.48 439.83 223.21
  Q 439.93 221.94 435.77 222.71
  C 435.12 222.83 434.45 222.72 433.88 222.38
  Q 431.79 221.16 432.07 218.98
  Q 432.29 217.27 433.83 216.12
  Q 436.67 213.99 439.21 217.34
  C 439.39 217.58 439.34 217.91 439.10 218.05"
/>
<path stroke="#865216" vector-effect="non-scaling-stroke" d="
  M 165.56 146.43
  Q 130.32 145.85 95.39 145.81
  C 94.96 145.81 94.66 146.22 94.79 146.63
  L 108.33 188.51
  C 108.47 188.95 108.88 189.25 109.34 189.26
  L 166.08 189.69
  C 166.49 189.69 166.86 189.42 166.99 189.02
  L 181.11 147.17
  C 181.22 146.84 180.98 146.50 180.64 146.50
  Q 173.03 146.55 165.56 146.43"
/>
<path stroke="#844b16" vector-effect="non-scaling-stroke" d="
  M 349.74 148.23
  Q 348.87 148.10 348.02 148.38
  C 347.74 148.47 347.56 148.74 347.55 149.06
  L 347.51 163.09
  C 347.50 163.70 347.99 164.19 348.60 164.21
  Q 358.18 164.53 366.84 163.93
  Q 370.14 163.71 371.51 162.93
  Q 373.75 161.66 374.56 158.81
  Q 375.88 154.20 373.44 151.46
  Q 371.76 149.57 367.44 148.95
  Q 359.47 147.82 351.41 148.38
  Q 350.96 148.41 349.74 148.23"
/>
<path stroke="#814317" vector-effect="non-scaling-stroke" d="
  M 461.29 149.23
  L 449.55 172.20
  C 449.42 172.45 449.61 172.75 449.89 172.75
  L 473.11 172.75
  C 473.34 172.75 473.49 172.50 473.39 172.29
  L 462.28 149.25
  Q 461.79 148.25 461.29 149.23"
/>
<path stroke="#98491b" vector-effect="non-scaling-stroke" d="
  M 593.00 159.96
  L 591.04 163.50"
/>
<path stroke="#7f3c17" vector-effect="non-scaling-stroke" d="
  M 591.04 163.50
  L 586.66 171.97
  C 586.47 172.33 586.73 172.75 587.13 172.75
  L 599.25 172.71"
/>
<path stroke="#98491b" vector-effect="non-scaling-stroke" d="
  M 599.25 172.71
  L 606.00 172.71"
/>
<path stroke="#7f3c17" vector-effect="non-scaling-stroke" d="
  M 606.00 172.71
  L 610.01 172.59
  C 610.26 172.59 610.41 172.30 610.29 172.05
  L 599.09 148.99
  Q 598.82 148.45 598.55 148.98
  L 593.00 159.96"
/>
<path stroke="#47130e" vector-effect="non-scaling-stroke" d="
  M 606.00 172.71
  Q 600.43 166.71 594.59 160.96
  Q 594.53 160.90 594.16 160.33
  Q 593.82 159.81 593.00 159.96"
/>
<path stroke="#47130e" vector-effect="non-scaling-stroke" d="
  M 599.25 172.71
  Q 599.26 171.62 598.06 170.44
  Q 594.55 166.97 591.04 163.50"
/>
<path stroke="#7c3517" vector-effect="non-scaling-stroke" d="
  M 707.89 148.83
  L 695.88 171.76
  C 695.64 172.21 695.97 172.75 696.48 172.75
  L 719.39 172.75
  C 719.62 172.75 719.78 172.50 719.67 172.29
  L 708.34 148.84
  Q 708.12 148.38 707.89 148.83"
/>
<path stroke="#865216" vector-effect="non-scaling-stroke" d="
  M 133.95 165.20
  L 122.08 165.24
  C 121.70 165.24 121.40 165.51 121.39 165.84
  L 121.38 169.51
  C 121.38 169.78 121.66 170.00 122.00 170.00
  L 133.74 169.99
  C 134.16 169.99 134.50 170.33 134.50 170.75
  L 134.50 182.76
  C 134.50 183.05 134.70 183.31 134.99 183.37
  Q 136.98 183.80 138.96 183.32
  C 139.22 183.26 139.40 183.00 139.40 182.69
  L 139.49 170.62
  C 139.49 170.31 139.75 170.07 140.07 170.06
  L 151.63 170.01
  C 152.14 170.00 152.54 169.66 152.55 169.24
  L 152.60 165.79
  C 152.60 165.52 152.30 165.31 151.93 165.30
  L 140.25 165.25
  C 139.91 165.25 139.63 165.00 139.60 164.67
  Q 138.93 158.35 139.44 152.92
  C 139.49 152.42 139.11 151.99 138.62 152.00
  L 135.07 152.04
  C 134.79 152.04 134.56 152.27 134.56 152.56
  L 134.44 164.69
  C 134.44 164.97 134.22 165.19 133.95 165.20"
/>
<path stroke="#47130e" vector-effect="non-scaling-stroke" d="
  M 446.1768 289.0497
  C 446.08 288.95 445.91 288.95 445.8091 289.0497
  L 431.5397 303.3191
  C 431.44 303.42 431.44 303.59 431.5397 303.6868
  L 445.8232 317.9703
  C 445.92 318.07 446.09 318.07 446.1909 317.9703
  L 460.4603 303.7009
  C 460.56 303.60 460.56 303.43 460.4603 303.3332
  L 446.1768 289.0497"
/>
<path stroke="#47130e" vector-effect="non-scaling-stroke" d="
  M 460.3720 339.2297
  C 460.58 339.02 460.58 338.68 460.3706 338.4660
  L 446.3738 324.5180
  C 446.16 324.31 445.82 324.31 445.6102 324.5193
  L 431.6480 338.5303
  C 431.44 338.74 431.44 339.08 431.6494 339.2940
  L 445.6462 353.2420
  C 445.86 353.45 446.20 353.45 446.4098 353.2407
  L 460.3720 339.2297"
/>
<path stroke="#865216" vector-effect="non-scaling-stroke" d="
  M 295.17 219.15
  C 295.17 217.07 293.48 215.38 291.40 215.38
  C 289.32 215.38 287.63 217.07 287.63 219.15
  C 287.63 221.23 289.32 222.92 291.40 222.92
  C 293.48 222.92 295.17 221.23 295.17 219.15"
/>
<path stroke="#9f5f1b" vector-effect="non-scaling-stroke" d="
  M 344.50 217.21
  Q 343.13 218.90 343.81 220.44
  Q 345.64 224.52 349.75 222.04"
/>
<path stroke="#865216" vector-effect="non-scaling-stroke" d="
  M 349.75 222.04
  Q 352.88 219.32 350.19 216.56
  Q 347.12 213.43 344.50 217.21"
/>
<path stroke="#47130e" vector-effect="non-scaling-stroke" d="
  M 349.75 222.04
  L 344.50 217.21"
/>
<path stroke="#865216" vector-effect="non-scaling-stroke" d="
  M 405.32 219.17
  C 405.32 217.10 403.64 215.42 401.57 215.42
  C 399.50 215.42 397.82 217.10 397.82 219.17
  C 397.82 221.24 399.50 222.92 401.57 222.92
  C 403.64 222.92 405.32 221.24 405.32 219.17"
/>
<path stroke="#865216" vector-effect="non-scaling-stroke" d="
  M 133.52 233.47
  C 133.52 229.93 130.65 227.06 127.11 227.06
  C 123.57 227.06 120.70 229.93 120.70 233.47
  C 120.70 237.01 123.57 239.88 127.11 239.88
  C 130.65 239.88 133.52 237.01 133.52 233.47"
/>
<path stroke="#865216" vector-effect="non-scaling-stroke" d="
  M 172.02 233.66
  C 172.02 230.10 169.13 227.21 165.57 227.21
  C 162.01 227.21 159.12 230.10 159.12 233.66
  C 159.12 237.22 162.01 240.11 165.57 240.11
  C 169.13 240.11 172.02 237.22 172.02 233.66"
/>
</g>
<path fill="#2e0609" d="
  M 0.00 0.00
  Q 428.00 0.00 856.00 0.00
  Q 856.00 190.00 856.00 380.00
  Q 428.00 380.00 0.00 380.00
  Q 0.00 190.00 0.00 0.00
  Z
  M 289.04 169.50
  L 288.77 143.93
  C 288.76 143.31 288.30 142.80 287.74 142.81
  L 282.68 142.87
  C 282.41 142.88 282.18 143.12 282.17 143.43
  Q 281.56 160.10 282.46 176.75
  L 281.81 177.02
  Q 281.10 177.31 280.97 177.44
  L 273.20 185.39
  C 272.88 185.72 272.87 186.24 273.19 186.56
  L 300.46 213.75
  Q 300.53 218.46 300.50 223.16
  Q 300.50 223.91 300.64 224.32
  Q 301.00 225.36 301.89 224.85
  Q 302.45 224.53 302.62 223.78
  Q 302.91 222.55 302.75 221.25
  Q 302.37 218.22 304.25 220.50
  Q 305.89 222.49 307.60 224.40
  Q 308.66 225.59 309.54 224.25
  Q 310.51 223.87 311.69 225.06
  Q 329.84 243.47 410.39 323.65
  C 410.59 323.85 410.92 323.85 411.11 323.65
  L 427.83 306.92
  C 428.09 306.66 428.51 306.65 428.76 306.91
  L 442.42 320.88
  C 442.61 321.08 442.60 321.40 442.40 321.61
  L 425.85 338.40
  C 425.66 338.59 425.66 338.91 425.86 339.11
  L 445.42 358.92
  C 445.74 359.25 446.26 359.25 446.59 358.92
  L 466.14 339.36
  C 466.44 339.06 466.44 338.57 466.14 338.27
  L 449.31 321.55
  C 449.17 321.42 449.17 321.21 449.30 321.08
  L 463.46 306.79
  C 463.65 306.60 463.97 306.60 464.18 306.80
  L 481.08 323.59
  C 481.27 323.78 481.59 323.78 481.79 323.59
  Q 549.78 255.93 617.42 187.92
  Q 617.65 187.69 617.96 187.75
  L 619.78 191.03
  C 619.93 191.29 620.23 191.45 620.57 191.45
  L 627.21 191.50
  C 627.39 191.50 627.50 191.31 627.42 191.15
  L 603.41 143.26
  C 603.27 142.98 602.99 142.80 602.69 142.80
  L 595.60 142.76
  C 595.10 142.76 594.64 143.05 594.39 143.51
  L 588.50 154.54
  Q 562.04 128.98 536.16 102.84
  Q 509.05 75.45 481.69 48.32
  C 481.52 48.14 481.24 48.14 481.07 48.31
  L 464.04 65.09
  C 463.81 65.31 463.46 65.32 463.24 65.10
  L 449.59 51.13
  C 449.40 50.93 449.40 50.60 449.61 50.39
  L 466.16 33.36
  C 466.35 33.17 466.34 32.85 466.14 32.65
  L 446.60 13.10
  C 446.40 12.90 446.09 12.90 445.88 13.09
  Q 435.49 22.61 425.84 32.88
  C 425.65 33.09 425.65 33.40 425.85 33.60
  L 442.40 50.39
  C 442.60 50.60 442.61 50.92 442.42 51.11
  L 428.62 65.15
  C 428.43 65.35 428.10 65.34 427.90 65.14
  L 411.05 48.30
  C 410.85 48.10 410.53 48.10 410.32 48.30
  L 289.04 169.50
  Z
  M 140.31 214.35
  Q 124.28 214.11 108.24 214.24
  Q 108.23 214.24 106.79 214.09
  Q 105.49 213.95 105.59 215.38
  Q 105.67 216.37 105.60 217.13
  Q 105.40 219.29 107.48 219.12
  Q 108.92 219.01 109.02 219.01
  Q 136.11 219.30 163.19 219.68
  Q 169.67 219.78 172.26 219.14
  Q 177.08 217.95 180.37 214.51
  Q 185.18 209.47 184.21 202.79
  Q 183.04 194.72 173.40 190.37
  C 172.57 190.00 172.15 189.05 172.44 188.18
  L 187.00 144.50
  Q 187.97 141.58 184.94 141.56
  L 93.81 140.94
  C 93.51 140.94 93.23 140.76 93.12 140.48
  Q 90.26 133.63 89.25 129.50
  Q 88.54 126.58 85.87 126.69
  Q 84.70 126.74 84.63 126.74
  Q 78.02 126.58 70.52 126.49
  C 70.19 126.48 69.92 126.72 69.90 127.02
  L 69.75 130.94
  C 69.74 131.21 69.99 131.44 70.31 131.46
  L 84.18 132.04
  C 84.49 132.05 84.75 132.25 84.84 132.53
  L 104.13 192.12
  Q 104.81 194.23 107.00 194.24
  Q 138.00 194.47 167.75 194.78
  Q 175.98 194.86 178.74 202.39
  Q 179.91 205.59 178.30 208.56
  Q 174.94 214.76 167.75 214.68
  Q 154.03 214.55 140.31 214.35
  Z
  M 259.41 184.90
  Q 256.30 186.44 252.25 186.75
  Q 245.45 187.27 240.31 185.19
  Q 235.50 183.24 234.40 177.43
  C 234.34 177.10 234.10 176.87 233.83 176.87
  L 227.75 176.92
  C 227.48 176.93 227.27 177.20 227.30 177.51
  Q 228.43 188.42 239.23 191.07
  Q 245.24 192.55 251.32 192.08
  Q 255.80 191.73 259.29 190.91
  Q 263.83 189.84 266.69 187.44
  Q 271.55 183.34 271.75 177.75
  Q 272.09 168.02 262.26 165.69
  Q 253.35 163.57 244.28 162.32
  Q 240.06 161.73 238.56 160.94
  Q 234.88 158.99 235.50 155.25
  Q 236.23 150.83 239.88 149.03
  Q 242.23 147.86 246.72 147.33
  Q 251.51 146.77 256.26 148.21
  Q 261.52 149.80 262.88 155.01
  C 262.96 155.32 263.20 155.55 263.49 155.62
  Q 266.41 156.23 269.21 155.35
  C 269.49 155.26 269.67 154.98 269.62 154.69
  Q 268.28 145.21 258.50 143.00
  Q 246.80 140.35 236.31 144.56
  Q 228.89 147.55 228.38 155.10
  Q 228.10 159.15 229.89 162.13
  Q 231.86 165.42 235.80 166.96
  Q 240.00 168.60 243.00 169.00
  Q 249.76 169.90 256.45 171.16
  Q 260.41 171.90 262.21 173.23
  Q 265.67 175.78 264.20 179.78
  Q 262.96 183.15 259.41 184.90
  Z
  M 632.65 152.69
  Q 630.84 157.98 634.03 162.57
  Q 635.73 165.01 638.76 166.52
  Q 641.58 167.93 644.74 168.54
  Q 651.59 169.85 658.50 170.75
  Q 663.05 171.35 664.50 172.25
  Q 670.14 175.76 667.88 180.41
  Q 666.42 183.42 662.37 185.17
  Q 654.20 188.70 645.20 185.51
  Q 639.58 183.52 638.22 177.27
  C 638.16 176.97 637.90 176.76 637.60 176.76
  L 631.55 176.80
  C 631.28 176.80 631.06 177.03 631.07 177.31
  Q 631.32 184.07 636.06 187.69
  Q 639.83 190.56 645.00 191.53
  Q 649.20 192.31 654.52 192.16
  Q 661.17 191.97 666.94 189.44
  Q 675.78 185.56 675.29 175.76
  Q 674.97 169.47 669.25 166.99
  Q 664.93 165.12 662.50 164.75
  Q 650.53 162.94 644.56 161.69
  Q 639.54 160.63 639.39 156.04
  Q 639.33 154.25 640.13 152.58
  Q 641.06 150.65 642.56 149.81
  Q 651.77 144.68 661.67 148.98
  Q 663.79 149.89 664.83 151.17
  Q 666.08 152.72 666.51 154.80
  C 666.63 155.36 667.11 155.76 667.67 155.75
  L 672.93 155.70
  C 673.22 155.70 673.45 155.47 673.45 155.19
  Q 673.45 150.24 670.19 147.06
  Q 666.56 143.53 660.85 142.49
  Q 656.38 141.68 651.91 141.96
  Q 646.46 142.30 643.13 143.32
  Q 639.55 144.41 636.70 146.85
  Q 633.79 149.34 632.65 152.69
  Z
  M 722.91 179.00
  L 728.73 190.99
  C 728.88 191.30 729.19 191.50 729.53 191.50
  L 736.04 191.50
  C 736.38 191.50 736.60 191.14 736.45 190.84
  L 712.41 143.25
  C 712.27 142.97 711.99 142.79 711.69 142.79
  L 704.30 142.80
  C 704.01 142.80 703.73 142.97 703.59 143.25
  L 679.17 190.70
  C 678.98 191.07 679.25 191.50 679.66 191.50
  L 685.26 191.50
  C 685.60 191.50 685.92 191.31 686.07 191.01
  L 692.33 179.01
  C 692.48 178.73 692.76 178.56 693.06 178.56
  L 722.19 178.56
  C 722.50 178.56 722.78 178.73 722.91 179.00
  Z
  M 750.81 184.95
  L 750.75 143.42
  C 750.75 143.05 750.45 142.75 750.09 142.75
  L 744.67 142.75
  C 744.30 142.75 744.00 143.05 744.00 143.42
  L 744.00 190.98
  C 744.00 191.27 744.23 191.50 744.52 191.50
  L 777.98 191.50
  C 778.27 191.50 778.50 191.27 778.50 190.98
  L 778.50 186.05
  C 778.50 185.75 778.25 185.50 777.94 185.50
  L 751.30 185.44
  C 751.03 185.44 750.81 185.22 750.81 184.95
  Z
  M 824.06 191.05
  L 824.15 186.22
  C 824.16 185.69 823.69 185.25 823.10 185.25
  L 794.60 185.25
  C 794.13 185.25 793.75 184.87 793.75 184.40
  L 793.75 169.19
  C 793.75 168.81 794.06 168.50 794.44 168.50
  L 820.61 168.50
  C 820.95 168.50 821.23 168.23 821.23 167.89
  L 821.21 163.31
  C 821.21 163.03 820.98 162.81 820.70 162.81
  L 794.42 162.75
  C 794.05 162.75 793.75 162.45 793.75 162.09
  L 793.75 149.17
  C 793.75 148.80 794.05 148.50 794.42 148.50
  L 822.56 148.50
  C 823.06 148.50 823.45 148.01 823.43 147.42
  L 823.29 143.26
  C 823.28 142.98 823.07 142.75 822.82 142.75
  L 787.77 142.75
  C 787.48 142.75 787.25 142.98 787.25 143.27
  L 787.25 190.73
  C 787.25 191.12 787.56 191.44 787.95 191.44
  L 823.52 191.50
  C 823.82 191.50 824.06 191.30 824.06 191.05
  Z
  M 241.15 220.22
  Q 239.45 215.18 238.16 210.02
  Q 237.69 208.14 236.60 208.77
  Q 236.05 209.08 235.80 209.99
  Q 234.38 215.21 232.98 220.28
  Q 232.60 221.68 232.25 220.27
  Q 230.99 215.01 229.36 209.87
  Q 229.15 209.20 228.83 208.85
  Q 227.99 207.94 227.44 209.04
  C 227.31 209.30 227.29 209.64 227.39 209.98
  Q 229.46 216.96 231.56 223.94
  Q 232.06 225.58 233.13 224.90
  Q 233.65 224.58 233.88 223.73
  Q 235.40 218.26 236.75 212.73
  Q 237.04 211.57 237.32 212.73
  Q 238.69 218.27 240.26 223.79
  Q 240.69 225.30 241.64 224.83
  Q 242.14 224.58 242.41 223.79
  Q 244.80 216.85 246.63 209.74
  C 246.71 209.41 246.66 209.08 246.48 208.83
  Q 245.35 207.29 244.75 209.50
  Q 242.85 216.42 241.48 220.23
  Q 241.31 220.69 241.15 220.22
  Z
  M 273.92 214.13
  Q 271.18 212.07 268.56 213.56
  Q 265.51 215.30 266.00 219.53
  Q 266.21 221.32 266.24 223.14
  Q 266.26 223.92 266.45 224.34
  Q 266.91 225.37 267.80 224.75
  C 268.05 224.58 268.20 224.28 268.21 223.94
  L 268.24 217.57
  C 268.24 216.54 268.92 215.65 269.90 215.40
  Q 273.52 214.49 273.25 218.75
  Q 273.08 221.40 273.43 224.01
  C 273.47 224.35 273.66 224.63 273.93 224.76
  Q 275.18 225.38 275.30 223.49
  Q 275.47 220.81 275.49 218.12
  Q 275.51 216.68 275.95 215.99
  Q 276.75 214.75 278.28 215.13
  Q 280.41 215.66 280.44 217.79
  L 280.51 223.75
  C 280.51 224.12 280.61 224.44 280.79 224.64
  Q 281.43 225.34 282.05 224.71
  Q 282.43 224.33 282.48 223.54
  Q 282.86 217.82 282.25 216.50
  Q 279.72 211.02 274.72 214.17
  C 274.48 214.32 274.16 214.31 273.92 214.13
  Z
  M 254.70 218.07
  L 252.00 218.30
  C 251.62 218.33 251.31 218.45 251.17 218.61
  Q 249.85 220.22 252.49 220.36
  Q 254.63 220.47 256.70 220.05
  C 257.01 219.98 257.25 219.75 257.30 219.45
  Q 257.81 216.64 255.31 214.69
  Q 253.12 212.97 250.85 213.33
  Q 248.89 213.64 247.23 215.55
  Q 244.25 218.99 247.09 222.63
  Q 248.55 224.50 250.57 224.94
  Q 252.96 225.47 255.00 224.00
  Q 256.64 222.81 254.98 222.16
  C 254.71 222.05 254.38 222.10 254.10 222.29
  Q 251.96 223.68 249.81 222.44
  Q 247.58 221.14 247.81 219.01
  Q 247.99 217.32 249.60 216.10
  Q 252.60 213.85 254.93 217.51
  C 255.08 217.74 254.95 218.05 254.70 218.07
  Z
  M 285.55 218.24
  Q 285.10 220.39 286.31 222.19
  Q 289.20 226.46 294.29 224.44
  C 294.58 224.33 294.90 224.34 295.19 224.49
  Q 297.52 225.65 297.39 223.10
  Q 297.32 221.82 297.39 220.89
  Q 297.58 218.18 296.23 216.09
  Q 294.90 214.02 292.48 213.46
  Q 289.54 212.78 287.39 214.93
  Q 285.94 216.38 285.55 218.24
  Z
  M 138.71 233.29
  C 138.71 226.92 133.54 221.75 127.17 221.75
  C 120.80 221.75 115.63 226.92 115.63 233.29
  C 115.63 239.66 120.80 244.83 127.17 244.83
  C 133.54 244.83 138.71 239.66 138.71 233.29
  Z
  M 164.5979 245.4009
  C 170.92 245.92 176.48 241.16 177.0014 234.7615
  C 177.53 228.37 172.83 222.76 166.5021 222.2391
  C 160.18 221.72 154.62 226.48 154.0986 232.8785
  C 153.57 239.27 158.27 244.88 164.5979 245.4009
  Z"
/>
<path fill="#602012" d="
  M 588.50 154.54
  L 586.29 158.75
  L 481.88 54.25
  C 481.60 53.97 481.15 53.97 480.87 54.25
  L 467.28 67.85
  C 466.92 68.21 466.92 68.79 467.28 69.15
  Q 507.06 108.94 547.06 148.94
  Q 547.17 149.05 547.46 149.00
  L 545.54 152.75
  Q 545.39 152.52 545.16 152.47
  C 544.81 152.40 544.55 152.30 544.46 152.21
  L 463.99 71.86
  C 463.78 71.66 463.46 71.66 463.26 71.86
  L 446.36 88.65
  C 446.16 88.85 445.84 88.85 445.64 88.65
  L 428.74 71.86
  C 428.54 71.66 428.22 71.66 428.02 71.86
  Q 393.27 106.65 359.00 140.75
  Q 357.72 142.03 357.50 142.71
  L 351.00 142.71
  L 424.84 68.92
  C 425.04 68.72 425.04 68.40 424.85 68.20
  Q 418.22 60.91 410.88 54.34
  C 410.67 54.15 410.35 54.15 410.15 54.35
  L 323.41 140.96
  C 323.15 141.22 323.01 141.53 323.00 141.81
  L 323.00 142.71
  Q 319.16 141.66 319.46 145.00
  Q 304.66 159.55 290.19 174.44
  Q 289.42 175.22 289.46 175.75
  L 289.04 169.50
  L 410.32 48.30
  C 410.53 48.10 410.85 48.10 411.05 48.30
  L 427.90 65.14
  C 428.10 65.34 428.43 65.35 428.62 65.15
  L 442.42 51.11
  C 442.61 50.92 442.60 50.60 442.40 50.39
  L 425.85 33.60
  C 425.65 33.40 425.65 33.09 425.84 32.88
  Q 435.49 22.61 445.88 13.09
  C 446.09 12.90 446.40 12.90 446.60 13.10
  L 466.14 32.65
  C 466.34 32.85 466.35 33.17 466.16 33.36
  L 449.61 50.39
  C 449.40 50.60 449.40 50.93 449.59 51.13
  L 463.24 65.10
  C 463.46 65.32 463.81 65.31 464.04 65.09
  L 481.07 48.31
  C 481.24 48.14 481.52 48.14 481.69 48.32
  Q 509.05 75.45 536.16 102.84
  Q 562.04 128.98 588.50 154.54
  Z
  M 460.5664 33.3138
  C 460.67 33.21 460.67 33.05 460.5664 32.9462
  L 446.1838 18.5636
  C 446.08 18.46 445.92 18.46 445.8162 18.5636
  L 431.4336 32.9462
  C 431.33 33.05 431.33 33.21 431.4336 33.3138
  L 445.8162 47.6964
  C 445.92 47.80 446.08 47.80 446.1838 47.6964
  L 460.5664 33.3138
  Z
  M 446.1909 54.0538
  C 446.09 53.95 445.91 53.95 445.8091 54.0538
  L 431.5538 68.3091
  C 431.45 68.41 431.45 68.59 431.5538 68.6909
  L 445.8091 82.9462
  C 445.91 83.05 446.09 83.05 446.1909 82.9462
  L 460.4462 68.6909
  C 460.55 68.59 460.55 68.41 460.4462 68.3091
  L 446.1909 54.0538
  Z"
/>
<rect fill="#2e0609" x="-10.43" y="-10.43" transform="translate(446.00,33.13) rotate(45.0)" width="20.86" height="20.86" rx="0.26"/>
<rect fill="#2e0609" x="-10.35" y="-10.35" transform="translate(446.00,68.50) rotate(-45.0)" width="20.70" height="20.70" rx="0.27"/>
<path fill="#2e0609" d="
  M 351.00 142.71
  L 341.57 142.81
  C 341.29 142.81 341.06 143.03 341.05 143.31
  L 340.96 153.00
  Q 331.44 162.18 329.06 164.81
  Q 327.67 166.35 326.29 166.25
  L 326.19 143.32
  C 326.19 143.03 325.97 142.80 325.69 142.79
  L 323.00 142.71
  L 323.00 141.81
  C 323.01 141.53 323.15 141.22 323.41 140.96
  L 410.15 54.35
  C 410.35 54.15 410.67 54.15 410.88 54.34
  Q 418.22 60.91 424.85 68.20
  C 425.04 68.40 425.04 68.72 424.84 68.92
  L 351.00 142.71
  Z"
/>
<path fill="#2e0609" d="
  M 586.29 158.75
  L 576.50 177.79
  Q 575.90 177.78 575.19 177.06
  Q 569.19 171.06 563.21 165.04
  Q 562.82 164.64 562.25 164.71
  L 561.82 143.44
  C 561.81 143.15 561.59 142.91 561.31 142.91
  L 551.31 142.78
  C 550.86 142.77 550.43 143.05 550.21 143.50
  L 547.46 149.00
  Q 547.17 149.05 547.06 148.94
  Q 507.06 108.94 467.28 69.15
  C 466.92 68.79 466.92 68.21 467.28 67.85
  L 480.87 54.25
  C 481.15 53.97 481.60 53.97 481.88 54.25
  L 586.29 158.75
  Z"
/>
<path fill="#2e0609" d="
  M 545.54 152.75
  L 530.05 184.07
  Q 529.67 184.85 529.28 184.07
  L 509.47 143.67
  C 509.19 143.11 508.62 142.75 508.00 142.75
  L 498.00 142.75
  C 497.72 142.75 497.50 142.97 497.50 143.25
  L 497.56 190.70
  C 497.56 191.02 497.77 191.28 498.04 191.29
  L 503.38 191.39
  C 503.72 191.40 504.00 191.09 504.00 190.71
  L 504.25 148.35
  Q 504.25 147.24 504.74 148.23
  L 525.72 190.87
  C 525.87 191.19 526.15 191.39 526.43 191.38
  L 532.94 191.27
  C 533.22 191.27 533.50 191.07 533.66 190.75
  L 554.97 148.00
  Q 555.50 146.93 555.50 148.12
  L 555.50 190.85
  C 555.50 191.18 555.75 191.45 556.06 191.45
  L 561.32 191.37
  C 561.60 191.37 561.82 191.12 561.83 190.81
  L 562.04 169.50
  L 574.29 182.00
  L 570.02 190.98
  C 569.92 191.20 570.07 191.46 570.31 191.47
  L 572.00 191.54
  Q 572.02 192.36 571.69 192.69
  Q 517.84 246.23 464.11 299.90
  C 463.90 300.10 463.58 300.10 463.38 299.91
  L 446.51 283.37
  C 446.23 283.09 445.78 283.09 445.51 283.36
  L 428.79 300.08
  C 428.49 300.38 428.00 300.38 427.70 300.08
  Q 390.67 262.58 353.50 225.75
  Q 352.32 224.59 352.00 222.96
  Q 354.13 219.68 352.82 216.82
  Q 351.66 214.28 348.57 213.53
  Q 344.95 212.64 342.83 215.60
  Q 341.09 218.04 341.86 220.81
  Q 342.93 224.63 347.75 225.04
  Q 347.70 226.39 348.66 227.09
  Q 349.75 227.87 349.85 227.98
  Q 387.45 265.49 424.90 303.15
  C 425.10 303.35 425.10 303.67 424.91 303.86
  L 410.87 317.66
  C 410.67 317.85 410.35 317.85 410.15 317.65
  Q 365.05 272.85 320.25 227.75
  Q 318.24 225.73 317.96 225.00
  Q 319.22 224.38 320.30 223.51
  Q 321.04 222.92 320.59 222.48
  Q 320.34 222.23 319.83 222.27
  Q 318.76 222.35 317.74 222.65
  Q 316.48 223.02 315.72 222.81
  Q 313.82 222.28 313.12 220.56
  Q 312.52 219.10 313.31 217.49
  Q 314.90 214.24 318.55 215.98
  Q 319.23 216.31 319.64 216.86
  Q 320.83 218.50 318.51 218.34
  Q 317.35 218.25 316.97 218.29
  Q 314.80 218.53 316.13 219.90
  C 316.35 220.13 316.67 220.26 317.00 220.26
  L 321.44 220.21
  C 321.76 220.20 322.05 220.02 322.18 219.74
  Q 322.89 218.17 321.75 216.50
  Q 318.07 211.09 312.81 214.81
  Q 311.62 215.66 310.75 217.79
  Q 308.76 217.34 308.96 215.00
  Q 310.05 213.44 308.56 213.32
  C 308.24 213.29 307.92 213.41 307.67 213.63
  L 303.53 217.34
  Q 302.74 218.05 302.75 217.01
  Q 302.80 213.28 302.69 209.31
  Q 302.67 208.59 301.75 208.46
  Q 299.92 207.55 297.31 204.94
  Q 288.31 195.94 278.94 186.56
  C 278.65 186.27 278.63 185.81 278.91 185.55
  L 283.50 181.21
  Q 286.14 186.93 291.31 189.44
  Q 301.79 194.51 313.46 191.00
  Q 313.55 191.92 315.00 193.25
  Q 320.70 198.49 336.50 214.75
  Q 336.67 214.93 337.75 215.54
  L 335.61 220.95
  Q 335.24 221.89 334.82 220.95
  Q 333.36 217.73 331.60 214.68
  Q 331.27 214.11 330.89 213.80
  Q 329.82 212.93 329.61 214.08
  Q 329.52 214.60 329.83 215.23
  Q 331.58 218.85 333.95 223.05
  C 334.18 223.45 334.21 223.96 334.01 224.43
  L 332.23 228.72
  C 332.11 229.01 332.18 229.34 332.41 229.55
  Q 333.58 230.62 334.14 229.14
  Q 334.54 228.09 334.56 228.03
  Q 337.68 221.45 340.54 214.75
  Q 341.38 214.56 341.19 214.06
  Q 341.13 213.90 340.68 213.56
  Q 340.26 213.25 340.22 212.75
  C 340.18 212.38 340.06 212.08 339.89 211.91
  L 318.13 190.27
  C 317.88 190.02 317.74 189.73 317.74 189.49
  L 317.75 189.04
  Q 326.30 183.63 326.29 173.25
  L 340.96 158.75
  L 341.00 190.85
  C 341.00 191.21 341.29 191.50 341.65 191.50
  L 346.94 191.50
  C 347.25 191.50 347.50 191.25 347.50 190.94
  L 347.50 170.66
  C 347.50 170.33 347.76 170.06 348.09 170.04
  Q 357.20 169.61 365.55 170.47
  Q 368.74 170.80 370.25 171.77
  Q 372.63 173.32 373.00 176.25
  Q 373.92 183.59 375.73 190.68
  C 375.85 191.16 376.29 191.50 376.79 191.50
  L 382.50 191.50
  C 382.75 191.50 382.94 191.26 382.87 191.02
  Q 380.65 182.45 378.95 173.76
  Q 378.04 169.07 372.44 167.75
  Q 371.72 167.58 372.42 167.36
  Q 383.00 164.04 381.85 154.38
  Q 381.32 149.85 379.00 147.09
  Q 376.29 143.87 371.49 143.31
  Q 364.52 142.51 357.50 142.71
  Q 357.72 142.03 359.00 140.75
  Q 393.27 106.65 428.02 71.86
  C 428.22 71.66 428.54 71.66 428.74 71.86
  L 445.64 88.65
  C 445.84 88.85 446.16 88.85 446.36 88.65
  L 463.26 71.86
  C 463.46 71.66 463.78 71.66 463.99 71.86
  L 544.46 152.21
  C 544.55 152.30 544.81 152.40 545.16 152.47
  Q 545.39 152.52 545.54 152.75
  Z
  M 411.18 164.37
  L 394.24 143.48
  C 393.87 143.02 393.32 142.75 392.76 142.75
  L 385.53 142.75
  Q 384.31 142.75 385.09 143.70
  L 407.20 170.38
  C 407.57 170.83 407.77 171.42 407.78 172.05
  L 407.92 190.81
  C 407.92 191.11 408.15 191.35 408.44 191.36
  L 414.19 191.47
  C 414.46 191.48 414.69 191.23 414.69 190.93
  L 414.81 171.06
  C 414.81 170.74 414.92 170.42 415.13 170.17
  L 436.69 143.38
  Q 437.05 142.94 436.50 142.93
  L 429.57 142.86
  C 428.93 142.85 428.28 143.21 427.80 143.82
  L 411.81 164.37
  C 411.65 164.57 411.34 164.57 411.18 164.37
  Z
  M 476.66 179.00
  L 482.48 190.99
  C 482.63 191.30 482.94 191.50 483.28 191.50
  L 489.69 191.50
  C 490.11 191.50 490.38 191.06 490.19 190.69
  L 466.16 143.25
  C 466.01 142.96 465.73 142.78 465.44 142.78
  L 458.19 142.89
  C 457.89 142.90 457.61 143.08 457.46 143.37
  L 432.92 190.70
  C 432.73 191.07 433.00 191.50 433.41 191.50
  L 439.01 191.50
  C 439.35 191.50 439.67 191.31 439.83 191.00
  L 446.08 179.01
  C 446.23 178.73 446.51 178.56 446.81 178.56
  L 475.94 178.56
  C 476.25 178.56 476.53 178.73 476.66 179.00
  Z
  M 391.05 215.52
  L 392.00 215.49
  C 392.36 215.48 392.67 215.35 392.85 215.15
  Q 393.95 213.89 391.75 213.89
  Q 390.00 213.89 390.69 211.30
  C 390.89 210.54 390.31 209.80 389.53 209.81
  Q 387.90 209.84 388.01 211.76
  Q 388.25 216.00 388.40 220.24
  Q 388.54 224.25 392.19 224.87
  C 392.53 224.93 392.86 224.86 393.11 224.67
  Q 394.58 223.57 391.79 222.47
  C 391.01 222.16 390.49 221.42 390.50 220.61
  L 390.54 216.07
  C 390.55 215.77 390.77 215.53 391.05 215.52
  Z
  M 425.56 215.64
  Q 428.22 216.00 427.42 214.25
  C 427.31 214.00 427.02 213.85 426.68 213.87
  Q 424.69 213.98 425.00 211.50
  Q 425.33 208.90 423.37 209.93
  C 423.08 210.09 422.89 210.38 422.90 210.68
  L 423.00 221.75
  Q 423.03 224.67 426.25 224.75
  Q 430.06 224.84 425.93 222.16
  C 425.34 221.78 424.99 221.15 425.00 220.49
  L 425.04 216.06
  C 425.05 215.80 425.29 215.60 425.56 215.64
  Z
  M 372.19 216.19
  Q 370.79 218.75 371.15 222.25
  Q 371.22 222.91 371.20 223.76
  Q 371.14 225.67 372.11 225.11
  C 372.91 224.65 373.39 223.79 373.35 222.87
  Q 373.06 216.05 377.27 215.07
  Q 379.69 214.50 378.10 213.33
  C 377.85 213.15 377.52 213.06 377.18 213.09
  Q 373.71 213.39 372.19 216.19
  Z
  M 356.94 213.69
  Q 356.35 214.63 356.38 216.06
  Q 356.42 217.84 356.39 218.44
  Q 356.15 223.62 360.40 224.71
  Q 363.24 225.44 365.29 223.80
  Q 367.55 221.99 367.36 218.49
  Q 367.26 216.62 367.25 214.75
  C 367.25 214.40 367.15 214.08 366.97 213.84
  Q 365.89 212.41 365.40 214.08
  Q 365.25 214.59 365.32 215.42
  Q 365.52 217.90 364.91 220.24
  Q 364.47 221.88 363.20 222.55
  Q 361.36 223.50 359.93 222.26
  Q 358.75 221.24 358.57 218.84
  Q 358.41 216.71 358.43 214.57
  Q 358.43 213.97 358.22 213.60
  Q 357.63 212.58 356.94 213.69
  Z
  M 405.33 224.38
  Q 406.27 225.33 407.15 224.61
  C 407.37 224.43 407.50 224.11 407.50 223.75
  Q 407.52 222.13 407.63 220.51
  Q 407.80 217.86 406.48 215.94
  Q 405.21 214.09 402.84 213.50
  Q 399.61 212.69 397.41 215.13
  Q 395.98 216.71 395.70 218.66
  Q 395.38 220.91 396.81 222.69
  Q 399.91 226.54 404.56 224.23
  C 404.81 224.10 405.12 224.17 405.33 224.38
  Z
  M 412.81 217.19
  Q 411.17 216.56 412.94 215.69
  Q 415.17 214.58 417.10 215.84
  Q 417.76 216.28 418.13 216.36
  Q 419.42 216.63 419.08 215.28
  C 419.01 214.98 418.82 214.71 418.54 214.52
  Q 414.75 211.80 411.19 214.73
  C 410.93 214.95 410.75 215.24 410.70 215.56
  Q 410.20 218.55 414.62 219.68
  Q 416.18 220.08 417.35 221.21
  Q 418.07 221.91 417.01 222.62
  Q 416.50 222.96 415.80 223.04
  Q 413.60 223.31 411.83 222.10
  C 411.52 221.89 411.20 221.78 410.93 221.81
  Q 409.91 221.89 410.10 222.82
  Q 410.21 223.40 410.85 223.82
  Q 414.01 225.94 417.19 224.69
  Q 421.06 223.16 418.73 219.72
  C 418.56 219.47 418.30 219.27 417.97 219.15
  L 412.81 217.19
  Z
  M 439.10 218.05
  Q 438.30 218.54 437.24 218.31
  Q 434.74 217.74 435.16 219.46
  C 435.24 219.81 435.51 220.06 435.80 220.06
  L 440.51 220.08
  C 441.35 220.09 441.93 219.21 441.68 218.33
  Q 440.62 214.65 437.79 213.66
  Q 435.07 212.71 432.53 214.41
  Q 430.39 215.83 430.15 218.51
  Q 429.95 220.78 431.34 222.72
  Q 434.15 226.62 439.25 223.93
  C 439.59 223.75 439.81 223.48 439.83 223.21
  Q 439.93 221.94 435.77 222.71
  C 435.12 222.83 434.45 222.72 433.88 222.38
  Q 431.79 221.16 432.07 218.98
  Q 432.29 217.27 433.83 216.12
  Q 436.67 213.99 439.21 217.34
  C 439.39 217.58 439.34 217.91 439.10 218.05
  Z"
/>
<path fill="#de9d23" d="
  M 140.31 214.35
  Q 154.03 214.55 167.75 214.68
  Q 174.94 214.76 178.30 208.56
  Q 179.91 205.59 178.74 202.39
  Q 175.98 194.86 167.75 194.78
  Q 138.00 194.47 107.00 194.24
  Q 104.81 194.23 104.13 192.12
  L 84.84 132.53
  C 84.75 132.25 84.49 132.05 84.18 132.04
  L 70.31 131.46
  C 69.99 131.44 69.74 131.21 69.75 130.94
  L 69.90 127.02
  C 69.92 126.72 70.19 126.48 70.52 126.49
  Q 78.02 126.58 84.63 126.74
  Q 84.70 126.74 85.87 126.69
  Q 88.54 126.58 89.25 129.50
  Q 90.26 133.63 93.12 140.48
  C 93.23 140.76 93.51 140.94 93.81 140.94
  L 184.94 141.56
  Q 187.97 141.58 187.00 144.50
  L 172.44 188.18
  C 172.15 189.05 172.57 190.00 173.40 190.37
  Q 183.04 194.72 184.21 202.79
  Q 185.18 209.47 180.37 214.51
  Q 177.08 217.95 172.26 219.14
  Q 169.67 219.78 163.19 219.68
  Q 136.11 219.30 109.02 219.01
  Q 108.92 219.01 107.48 219.12
  Q 105.40 219.29 105.60 217.13
  Q 105.67 216.37 105.59 215.38
  Q 105.49 213.95 106.79 214.09
  Q 108.23 214.24 108.24 214.24
  Q 124.28 214.11 140.31 214.35
  Z
  M 165.56 146.43
  Q 130.32 145.85 95.39 145.81
  C 94.96 145.81 94.66 146.22 94.79 146.63
  L 108.33 188.51
  C 108.47 188.95 108.88 189.25 109.34 189.26
  L 166.08 189.69
  C 166.49 189.69 166.86 189.42 166.99 189.02
  L 181.11 147.17
  C 181.22 146.84 180.98 146.50 180.64 146.50
  Q 173.03 146.55 165.56 146.43
  Z"
/>
<path fill="#de9d23" d="
  M 264.20 179.78
  Q 265.67 175.78 262.21 173.23
  Q 260.41 171.90 256.45 171.16
  Q 249.76 169.90 243.00 169.00
  Q 240.00 168.60 235.80 166.96
  Q 231.86 165.42 229.89 162.13
  Q 228.10 159.15 228.38 155.10
  Q 228.89 147.55 236.31 144.56
  Q 246.80 140.35 258.50 143.00
  Q 268.28 145.21 269.62 154.69
  C 269.67 154.98 269.49 155.26 269.21 155.35
  Q 266.41 156.23 263.49 155.62
  C 263.20 155.55 262.96 155.32 262.88 155.01
  Q 261.52 149.80 256.26 148.21
  Q 251.51 146.77 246.72 147.33
  Q 242.23 147.86 239.88 149.03
  Q 236.23 150.83 235.50 155.25
  Q 234.88 158.99 238.56 160.94
  Q 240.06 161.73 244.28 162.32
  Q 253.35 163.57 262.26 165.69
  Q 272.09 168.02 271.75 177.75
  Q 271.55 183.34 266.69 187.44
  Q 263.83 189.84 259.29 190.91
  Q 255.80 191.73 251.32 192.08
  Q 245.24 192.55 239.23 191.07
  Q 228.43 188.42 227.30 177.51
  C 227.27 177.20 227.48 176.93 227.75 176.92
  L 233.83 176.87
  C 234.10 176.87 234.34 177.10 234.40 177.43
  Q 235.50 183.24 240.31 185.19
  Q 245.45 187.27 252.25 186.75
  Q 256.30 186.44 259.41 184.90
  Q 262.96 183.15 264.20 179.78
  Z"
/>
<path fill="#cd6b24" d="
  M 636.70 146.85
  Q 639.55 144.41 643.13 143.32
  Q 646.46 142.30 651.91 141.96
  Q 656.38 141.68 660.85 142.49
  Q 666.56 143.53 670.19 147.06
  Q 673.45 150.24 673.45 155.19
  C 673.45 155.47 673.22 155.70 672.93 155.70
  L 667.67 155.75
  C 667.11 155.76 666.63 155.36 666.51 154.80
  Q 666.08 152.72 664.83 151.17
  Q 663.79 149.89 661.67 148.98
  Q 651.77 144.68 642.56 149.81
  Q 641.06 150.65 640.13 152.58
  Q 639.33 154.25 639.39 156.04
  Q 639.54 160.63 644.56 161.69
  Q 650.53 162.94 662.50 164.75
  Q 664.93 165.12 669.25 166.99
  Q 674.97 169.47 675.29 175.76
  Q 675.78 185.56 666.94 189.44
  Q 661.17 191.97 654.52 192.16
  Q 649.20 192.31 645.00 191.53
  Q 639.83 190.56 636.06 187.69
  Q 631.32 184.07 631.07 177.31
  C 631.06 177.03 631.28 176.80 631.55 176.80
  L 637.60 176.76
  C 637.90 176.76 638.16 176.97 638.22 177.27
  Q 639.58 183.52 645.20 185.51
  Q 654.20 188.70 662.37 185.17
  Q 666.42 183.42 667.88 180.41
  Q 670.14 175.76 664.50 172.25
  Q 663.05 171.35 658.50 170.75
  Q 651.59 169.85 644.74 168.54
  Q 641.58 167.93 638.76 166.52
  Q 635.73 165.01 634.03 162.57
  Q 630.84 157.98 632.65 152.69
  Q 633.79 149.34 636.70 146.85
  Z"
/>
<path fill="#dc9623" d="
  M 289.04 169.50
  L 289.46 175.75
  Q 290.44 182.11 296.16 184.87
  Q 301.59 187.50 307.50 186.21
  Q 317.03 185.05 318.71 175.75
  Q 319.58 171.55 319.56 167.25
  Q 319.53 156.12 319.46 145.00
  Q 319.16 141.66 323.00 142.71
  L 325.69 142.79
  C 325.97 142.80 326.19 143.03 326.19 143.32
  L 326.29 166.25
  L 326.29 173.25
  Q 326.30 183.63 317.75 189.04
  L 313.46 191.00
  Q 301.79 194.51 291.31 189.44
  Q 286.14 186.93 283.50 181.21
  L 282.46 176.75
  Q 281.56 160.10 282.17 143.43
  C 282.18 143.12 282.41 142.88 282.68 142.87
  L 287.74 142.81
  C 288.30 142.80 288.76 143.31 288.77 143.93
  L 289.04 169.50
  Z"
/>
<path fill="#d98f23" d="
  M 351.00 142.71
  L 357.50 142.71
  Q 364.52 142.51 371.49 143.31
  Q 376.29 143.87 379.00 147.09
  Q 381.32 149.85 381.85 154.38
  Q 383.00 164.04 372.42 167.36
  Q 371.72 167.58 372.44 167.75
  Q 378.04 169.07 378.95 173.76
  Q 380.65 182.45 382.87 191.02
  C 382.94 191.26 382.75 191.50 382.50 191.50
  L 376.79 191.50
  C 376.29 191.50 375.85 191.16 375.73 190.68
  Q 373.92 183.59 373.00 176.25
  Q 372.63 173.32 370.25 171.77
  Q 368.74 170.80 365.55 170.47
  Q 357.20 169.61 348.09 170.04
  C 347.76 170.06 347.50 170.33 347.50 170.66
  L 347.50 190.94
  C 347.50 191.25 347.25 191.50 346.94 191.50
  L 341.65 191.50
  C 341.29 191.50 341.00 191.21 341.00 190.85
  L 340.96 158.75
  L 340.96 153.00
  L 341.05 143.31
  C 341.06 143.03 341.29 142.81 341.57 142.81
  L 351.00 142.71
  Z
  M 349.74 148.23
  Q 348.87 148.10 348.02 148.38
  C 347.74 148.47 347.56 148.74 347.55 149.06
  L 347.51 163.09
  C 347.50 163.70 347.99 164.19 348.60 164.21
  Q 358.18 164.53 366.84 163.93
  Q 370.14 163.71 371.51 162.93
  Q 373.75 161.66 374.56 158.81
  Q 375.88 154.20 373.44 151.46
  Q 371.76 149.57 367.44 148.95
  Q 359.47 147.82 351.41 148.38
  Q 350.96 148.41 349.74 148.23
  Z"
/>
<path fill="#d78724" d="
  M 411.81 164.37
  L 427.80 143.82
  C 428.28 143.21 428.93 142.85 429.57 142.86
  L 436.50 142.93
  Q 437.05 142.94 436.69 143.38
  L 415.13 170.17
  C 414.92 170.42 414.81 170.74 414.81 171.06
  L 414.69 190.93
  C 414.69 191.23 414.46 191.48 414.19 191.47
  L 408.44 191.36
  C 408.15 191.35 407.92 191.11 407.92 190.81
  L 407.78 172.05
  C 407.77 171.42 407.57 170.83 407.20 170.38
  L 385.09 143.70
  Q 384.31 142.75 385.53 142.75
  L 392.76 142.75
  C 393.32 142.75 393.87 143.02 394.24 143.48
  L 411.18 164.37
  C 411.34 164.57 411.65 164.57 411.81 164.37
  Z"
/>
<path fill="#d48024" d="
  M 475.94 178.56
  L 446.81 178.56
  C 446.51 178.56 446.23 178.73 446.08 179.01
  L 439.83 191.00
  C 439.67 191.31 439.35 191.50 439.01 191.50
  L 433.41 191.50
  C 433.00 191.50 432.73 191.07 432.92 190.70
  L 457.46 143.37
  C 457.61 143.08 457.89 142.90 458.19 142.89
  L 465.44 142.78
  C 465.73 142.78 466.01 142.96 466.16 143.25
  L 490.19 190.69
  C 490.38 191.06 490.11 191.50 489.69 191.50
  L 483.28 191.50
  C 482.94 191.50 482.63 191.30 482.48 190.99
  L 476.66 179.00
  C 476.53 178.73 476.25 178.56 475.94 178.56
  Z
  M 461.29 149.23
  L 449.55 172.20
  C 449.42 172.45 449.61 172.75 449.89 172.75
  L 473.11 172.75
  C 473.34 172.75 473.49 172.50 473.39 172.29
  L 462.28 149.25
  Q 461.79 148.25 461.29 149.23
  Z"
/>
<path fill="#d27924" d="
  M 545.54 152.75
  L 547.46 149.00
  L 550.21 143.50
  C 550.43 143.05 550.86 142.77 551.31 142.78
  L 561.31 142.91
  C 561.59 142.91 561.81 143.15 561.82 143.44
  L 562.25 164.71
  L 562.04 169.50
  L 561.83 190.81
  C 561.82 191.12 561.60 191.37 561.32 191.37
  L 556.06 191.45
  C 555.75 191.45 555.50 191.18 555.50 190.85
  L 555.50 148.12
  Q 555.50 146.93 554.97 148.00
  L 533.66 190.75
  C 533.50 191.07 533.22 191.27 532.94 191.27
  L 526.43 191.38
  C 526.15 191.39 525.87 191.19 525.72 190.87
  L 504.74 148.23
  Q 504.25 147.24 504.25 148.35
  L 504.00 190.71
  C 504.00 191.09 503.72 191.40 503.38 191.39
  L 498.04 191.29
  C 497.77 191.28 497.56 191.02 497.56 190.70
  L 497.50 143.25
  C 497.50 142.97 497.72 142.75 498.00 142.75
  L 508.00 142.75
  C 508.62 142.75 509.19 143.11 509.47 143.67
  L 529.28 184.07
  Q 529.67 184.85 530.05 184.07
  L 545.54 152.75
  Z"
/>
<path fill="#cf7224" d="
  M 617.96 187.75
  L 613.97 179.49
  C 613.70 178.92 613.13 178.55 612.52 178.55
  L 606.46 178.50
  L 584.05 178.56
  C 583.71 178.56 583.41 178.73 583.28 178.99
  L 581.25 182.96
  L 576.98 190.81
  C 576.81 191.12 576.53 191.32 576.25 191.33
  L 572.00 191.54
  L 570.31 191.47
  C 570.07 191.46 569.92 191.20 570.02 190.98
  L 574.29 182.00
  L 576.50 177.79
  L 586.29 158.75
  L 588.50 154.54
  L 594.39 143.51
  C 594.64 143.05 595.10 142.76 595.60 142.76
  L 602.69 142.80
  C 602.99 142.80 603.27 142.98 603.41 143.26
  L 627.42 191.15
  C 627.50 191.31 627.39 191.50 627.21 191.50
  L 620.57 191.45
  C 620.23 191.45 619.93 191.29 619.78 191.03
  L 617.96 187.75
  Z
  M 593.00 159.96
  L 591.04 163.50
  L 586.66 171.97
  C 586.47 172.33 586.73 172.75 587.13 172.75
  L 599.25 172.71
  L 606.00 172.71
  L 610.01 172.59
  C 610.26 172.59 610.41 172.30 610.29 172.05
  L 599.09 148.99
  Q 598.82 148.45 598.55 148.98
  L 593.00 159.96
  Z"
/>
<path fill="#ca6325" d="
  M 722.19 178.56
  L 693.06 178.56
  C 692.76 178.56 692.48 178.73 692.33 179.01
  L 686.07 191.01
  C 685.92 191.31 685.60 191.50 685.26 191.50
  L 679.66 191.50
  C 679.25 191.50 678.98 191.07 679.17 190.70
  L 703.59 143.25
  C 703.73 142.97 704.01 142.80 704.30 142.80
  L 711.69 142.79
  C 711.99 142.79 712.27 142.97 712.41 143.25
  L 736.45 190.84
  C 736.60 191.14 736.38 191.50 736.04 191.50
  L 729.53 191.50
  C 729.19 191.50 728.88 191.30 728.73 190.99
  L 722.91 179.00
  C 722.78 178.73 722.50 178.56 722.19 178.56
  Z
  M 707.89 148.83
  L 695.88 171.76
  C 695.64 172.21 695.97 172.75 696.48 172.75
  L 719.39 172.75
  C 719.62 172.75 719.78 172.50 719.67 172.29
  L 708.34 148.84
  Q 708.12 148.38 707.89 148.83
  Z"
/>
<path fill="#c85c25" d="
  M 751.30 185.44
  L 777.94 185.50
  C 778.25 185.50 778.50 185.75 778.50 186.05
  L 778.50 190.98
  C 778.50 191.27 778.27 191.50 777.98 191.50
  L 744.52 191.50
  C 744.23 191.50 744.00 191.27 744.00 190.98
  L 744.00 143.42
  C 744.00 143.05 744.30 142.75 744.67 142.75
  L 750.09 142.75
  C 750.45 142.75 750.75 143.05 750.75 143.42
  L 750.81 184.95
  C 750.81 185.22 751.03 185.44 751.30 185.44
  Z"
/>
<path fill="#c55525" d="
  M 824.06 191.05
  C 824.06 191.30 823.82 191.50 823.52 191.50
  L 787.95 191.44
  C 787.56 191.44 787.25 191.12 787.25 190.73
  L 787.25 143.27
  C 787.25 142.98 787.48 142.75 787.77 142.75
  L 822.82 142.75
  C 823.07 142.75 823.28 142.98 823.29 143.26
  L 823.43 147.42
  C 823.45 148.01 823.06 148.50 822.56 148.50
  L 794.42 148.50
  C 794.05 148.50 793.75 148.80 793.75 149.17
  L 793.75 162.09
  C 793.75 162.45 794.05 162.75 794.42 162.75
  L 820.70 162.81
  C 820.98 162.81 821.21 163.03 821.21 163.31
  L 821.23 167.89
  C 821.23 168.23 820.95 168.50 820.61 168.50
  L 794.44 168.50
  C 794.06 168.50 793.75 168.81 793.75 169.19
  L 793.75 184.40
  C 793.75 184.87 794.13 185.25 794.60 185.25
  L 823.10 185.25
  C 823.69 185.25 824.16 185.69 824.15 186.22
  L 824.06 191.05
  Z"
/>
<path fill="#2e0609" d="
  M 319.46 145.00
  Q 319.53 156.12 319.56 167.25
  Q 319.58 171.55 318.71 175.75
  Q 317.97 175.83 316.75 177.00
  Q 312.04 181.52 307.50 186.21
  Q 301.59 187.50 296.16 184.87
  Q 290.44 182.11 289.46 175.75
  Q 289.42 175.22 290.19 174.44
  Q 304.66 159.55 319.46 145.00
  Z"
/>
<path fill="#2e0609" d="
  M 165.56 146.43
  Q 173.03 146.55 180.64 146.50
  C 180.98 146.50 181.22 146.84 181.11 147.17
  L 166.99 189.02
  C 166.86 189.42 166.49 189.69 166.08 189.69
  L 109.34 189.26
  C 108.88 189.25 108.47 188.95 108.33 188.51
  L 94.79 146.63
  C 94.66 146.22 94.96 145.81 95.39 145.81
  Q 130.32 145.85 165.56 146.43
  Z
  M 133.95 165.20
  L 122.08 165.24
  C 121.70 165.24 121.40 165.51 121.39 165.84
  L 121.38 169.51
  C 121.38 169.78 121.66 170.00 122.00 170.00
  L 133.74 169.99
  C 134.16 169.99 134.50 170.33 134.50 170.75
  L 134.50 182.76
  C 134.50 183.05 134.70 183.31 134.99 183.37
  Q 136.98 183.80 138.96 183.32
  C 139.22 183.26 139.40 183.00 139.40 182.69
  L 139.49 170.62
  C 139.49 170.31 139.75 170.07 140.07 170.06
  L 151.63 170.01
  C 152.14 170.00 152.54 169.66 152.55 169.24
  L 152.60 165.79
  C 152.60 165.52 152.30 165.31 151.93 165.30
  L 140.25 165.25
  C 139.91 165.25 139.63 165.00 139.60 164.67
  Q 138.93 158.35 139.44 152.92
  C 139.49 152.42 139.11 151.99 138.62 152.00
  L 135.07 152.04
  C 134.79 152.04 134.56 152.27 134.56 152.56
  L 134.44 164.69
  C 134.44 164.97 134.22 165.19 133.95 165.20
  Z"
/>
<path fill="#2e0609" d="
  M 351.41 148.38
  Q 359.47 147.82 367.44 148.95
  Q 371.76 149.57 373.44 151.46
  Q 375.88 154.20 374.56 158.81
  Q 373.75 161.66 371.51 162.93
  Q 370.14 163.71 366.84 163.93
  Q 358.18 164.53 348.60 164.21
  C 347.99 164.19 347.50 163.70 347.51 163.09
  L 347.55 149.06
  C 347.56 148.74 347.74 148.47 348.02 148.38
  Q 348.87 148.10 349.74 148.23
  Q 350.96 148.41 351.41 148.38
  Z"
/>
<path fill="#2e0609" d="
  M 606.00 172.71
  Q 600.43 166.71 594.59 160.96
  Q 594.53 160.90 594.16 160.33
  Q 593.82 159.81 593.00 159.96
  L 598.55 148.98
  Q 598.82 148.45 599.09 148.99
  L 610.29 172.05
  C 610.41 172.30 610.26 172.59 610.01 172.59
  L 606.00 172.71
  Z"
/>
<path fill="#2e0609" d="
  M 707.89 148.83
  Q 708.12 148.38 708.34 148.84
  L 719.67 172.29
  C 719.78 172.50 719.62 172.75 719.39 172.75
  L 696.48 172.75
  C 695.97 172.75 695.64 172.21 695.88 171.76
  L 707.89 148.83
  Z"
/>
<path fill="#2e0609" d="
  M 461.29 149.23
  Q 461.79 148.25 462.28 149.25
  L 473.39 172.29
  C 473.49 172.50 473.34 172.75 473.11 172.75
  L 449.89 172.75
  C 449.61 172.75 449.42 172.45 449.55 172.20
  L 461.29 149.23
  Z"
/>
<path fill="#de9d23" d="
  M 134.44 164.69
  L 134.56 152.56
  C 134.56 152.27 134.79 152.04 135.07 152.04
  L 138.62 152.00
  C 139.11 151.99 139.49 152.42 139.44 152.92
  Q 138.93 158.35 139.60 164.67
  C 139.63 165.00 139.91 165.25 140.25 165.25
  L 151.93 165.30
  C 152.30 165.31 152.60 165.52 152.60 165.79
  L 152.55 169.24
  C 152.54 169.66 152.14 170.00 151.63 170.01
  L 140.07 170.06
  C 139.75 170.07 139.49 170.31 139.49 170.62
  L 139.40 182.69
  C 139.40 183.00 139.22 183.26 138.96 183.32
  Q 136.98 183.80 134.99 183.37
  C 134.70 183.31 134.50 183.05 134.50 182.76
  L 134.50 170.75
  C 134.50 170.33 134.16 169.99 133.74 169.99
  L 122.00 170.00
  C 121.66 170.00 121.38 169.78 121.38 169.51
  L 121.39 165.84
  C 121.40 165.51 121.70 165.24 122.08 165.24
  L 133.95 165.20
  C 134.22 165.19 134.44 164.97 134.44 164.69
  Z"
/>
<path fill="#602012" d="
  M 340.96 153.00
  L 340.96 158.75
  L 326.29 173.25
  L 326.29 166.25
  Q 327.67 166.35 329.06 164.81
  Q 331.44 162.18 340.96 153.00
  Z"
/>
<path fill="#602012" d="
  M 593.00 159.96
  Q 593.82 159.81 594.16 160.33
  Q 594.53 160.90 594.59 160.96
  Q 600.43 166.71 606.00 172.71
  L 599.25 172.71
  Q 599.26 171.62 598.06 170.44
  Q 594.55 166.97 591.04 163.50
  L 593.00 159.96
  Z"
/>
<path fill="#2e0609" d="
  M 591.04 163.50
  Q 594.55 166.97 598.06 170.44
  Q 599.26 171.62 599.25 172.71
  L 587.13 172.75
  C 586.73 172.75 586.47 172.33 586.66 171.97
  L 591.04 163.50
  Z"
/>
<path fill="#602012" d="
  M 562.25 164.71
  Q 562.82 164.64 563.21 165.04
  Q 569.19 171.06 575.19 177.06
  Q 575.90 177.78 576.50 177.79
  L 574.29 182.00
  L 562.04 169.50
  L 562.25 164.71
  Z"
/>
<path fill="#602012" d="
  M 318.71 175.75
  Q 317.03 185.05 307.50 186.21
  Q 312.04 181.52 316.75 177.00
  Q 317.97 175.83 318.71 175.75
  Z"
/>
<path fill="#602012" d="
  M 282.46 176.75
  L 283.50 181.21
  L 278.91 185.55
  C 278.63 185.81 278.65 186.27 278.94 186.56
  Q 288.31 195.94 297.31 204.94
  Q 299.92 207.55 301.75 208.46
  Q 300.59 208.42 300.56 209.31
  Q 300.48 211.53 300.46 213.75
  L 273.19 186.56
  C 272.87 186.24 272.88 185.72 273.20 185.39
  L 280.97 177.44
  Q 281.10 177.31 281.81 177.02
  L 282.46 176.75
  Z"
/>
<path fill="#602012" d="
  M 617.96 187.75
  Q 617.65 187.69 617.42 187.92
  Q 549.78 255.93 481.79 323.59
  C 481.59 323.78 481.27 323.78 481.08 323.59
  L 464.18 306.80
  C 463.97 306.60 463.65 306.60 463.46 306.79
  L 449.30 321.08
  C 449.17 321.21 449.17 321.42 449.31 321.55
  L 466.14 338.27
  C 466.44 338.57 466.44 339.06 466.14 339.36
  L 446.59 358.92
  C 446.26 359.25 445.74 359.25 445.42 358.92
  L 425.86 339.11
  C 425.66 338.91 425.66 338.59 425.85 338.40
  L 442.40 321.61
  C 442.60 321.40 442.61 321.08 442.42 320.88
  L 428.76 306.91
  C 428.51 306.65 428.09 306.66 427.83 306.92
  L 411.11 323.65
  C 410.92 323.85 410.59 323.85 410.39 323.65
  Q 329.84 243.47 311.69 225.06
  Q 310.51 223.87 309.54 224.25
  L 305.79 219.24
  C 305.44 218.78 305.48 218.16 305.87 217.80
  L 308.96 215.00
  Q 308.76 217.34 310.75 217.79
  Q 310.50 225.26 317.96 225.00
  Q 318.24 225.73 320.25 227.75
  Q 365.05 272.85 410.15 317.65
  C 410.35 317.85 410.67 317.85 410.87 317.66
  L 424.91 303.86
  C 425.10 303.67 425.10 303.35 424.90 303.15
  Q 387.45 265.49 349.85 227.98
  Q 349.75 227.87 348.66 227.09
  Q 347.70 226.39 347.75 225.04
  Q 350.25 224.77 352.00 222.96
  Q 352.32 224.59 353.50 225.75
  Q 390.67 262.58 427.70 300.08
  C 428.00 300.38 428.49 300.38 428.79 300.08
  L 445.51 283.36
  C 445.78 283.09 446.23 283.09 446.51 283.37
  L 463.38 299.91
  C 463.58 300.10 463.90 300.10 464.11 299.90
  Q 517.84 246.23 571.69 192.69
  Q 572.02 192.36 572.00 191.54
  L 576.25 191.33
  C 576.53 191.32 576.81 191.12 576.98 190.81
  L 581.25 182.96
  Q 582.87 184.04 583.72 185.73
  C 583.86 185.99 583.80 186.32 583.58 186.54
  L 467.17 303.21
  C 466.97 303.41 466.97 303.73 467.16 303.93
  L 480.72 317.59
  C 481.08 317.95 481.68 317.95 482.04 317.58
  L 612.88 186.74
  C 613.25 186.37 613.27 185.77 612.92 185.38
  Q 610.41 182.59 607.25 179.75
  Q 606.44 179.02 606.46 178.50
  L 612.52 178.55
  C 613.13 178.55 613.70 178.92 613.97 179.49
  L 617.96 187.75
  Z
  M 446.1768 289.0497
  C 446.08 288.95 445.91 288.95 445.8091 289.0497
  L 431.5397 303.3191
  C 431.44 303.42 431.44 303.59 431.5397 303.6868
  L 445.8232 317.9703
  C 445.92 318.07 446.09 318.07 446.1909 317.9703
  L 460.4603 303.7009
  C 460.56 303.60 460.56 303.43 460.4603 303.3332
  L 446.1768 289.0497
  Z
  M 460.3720 339.2297
  C 460.58 339.02 460.58 338.68 460.3706 338.4660
  L 446.3738 324.5180
  C 446.16 324.31 445.82 324.31 445.6102 324.5193
  L 431.6480 338.5303
  C 431.44 338.74 431.44 339.08 431.6494 339.2940
  L 445.6462 353.2420
  C 445.86 353.45 446.20 353.45 446.4098 353.2407
  L 460.3720 339.2297
  Z"
/>
<path fill="#2e0609" d="
  M 606.46 178.50
  Q 606.44 179.02 607.25 179.75
  Q 610.41 182.59 612.92 185.38
  C 613.27 185.77 613.25 186.37 612.88 186.74
  L 482.04 317.58
  C 481.68 317.95 481.08 317.95 480.72 317.59
  L 467.16 303.93
  C 466.97 303.73 466.97 303.41 467.17 303.21
  L 583.58 186.54
  C 583.80 186.32 583.86 185.99 583.72 185.73
  Q 582.87 184.04 581.25 182.96
  L 583.28 178.99
  C 583.41 178.73 583.71 178.56 584.05 178.56
  L 606.46 178.50
  Z"
/>
<path fill="#602012" d="
  M 317.75 189.04
  L 317.74 189.49
  C 317.74 189.73 317.88 190.02 318.13 190.27
  L 339.89 211.91
  C 340.06 212.08 340.18 212.38 340.22 212.75
  Q 340.26 213.25 340.68 213.56
  Q 341.13 213.90 341.19 214.06
  Q 341.38 214.56 340.54 214.75
  Q 340.32 212.24 338.93 214.15
  Q 338.39 214.89 337.75 215.54
  Q 336.67 214.93 336.50 214.75
  Q 320.70 198.49 315.00 193.25
  Q 313.55 191.92 313.46 191.00
  L 317.75 189.04
  Z"
/>
<path fill="#de9d23" d="
  M 241.48 220.23
  Q 242.85 216.42 244.75 209.50
  Q 245.35 207.29 246.48 208.83
  C 246.66 209.08 246.71 209.41 246.63 209.74
  Q 244.80 216.85 242.41 223.79
  Q 242.14 224.58 241.64 224.83
  Q 240.69 225.30 240.26 223.79
  Q 238.69 218.27 237.32 212.73
  Q 237.04 211.57 236.75 212.73
  Q 235.40 218.26 233.88 223.73
  Q 233.65 224.58 233.13 224.90
  Q 232.06 225.58 231.56 223.94
  Q 229.46 216.96 227.39 209.98
  C 227.29 209.64 227.31 209.30 227.44 209.04
  Q 227.99 207.94 228.83 208.85
  Q 229.15 209.20 229.36 209.87
  Q 230.99 215.01 232.25 220.27
  Q 232.60 221.68 232.98 220.28
  Q 234.38 215.21 235.80 209.99
  Q 236.05 209.08 236.60 208.77
  Q 237.69 208.14 238.16 210.02
  Q 239.45 215.18 241.15 220.22
  Q 241.31 220.69 241.48 220.23
  Z"
/>
<path fill="#de9d23" d="
  M 301.75 208.46
  Q 302.67 208.59 302.69 209.31
  Q 302.80 213.28 302.75 217.01
  Q 302.74 218.05 303.53 217.34
  L 307.67 213.63
  C 307.92 213.41 308.24 213.29 308.56 213.32
  Q 310.05 213.44 308.96 215.00
  L 305.87 217.80
  C 305.48 218.16 305.44 218.78 305.79 219.24
  L 309.54 224.25
  Q 308.66 225.59 307.60 224.40
  Q 305.89 222.49 304.25 220.50
  Q 302.37 218.22 302.75 221.25
  Q 302.91 222.55 302.62 223.78
  Q 302.45 224.53 301.89 224.85
  Q 301.00 225.36 300.64 224.32
  Q 300.50 223.91 300.50 223.16
  Q 300.53 218.46 300.46 213.75
  Q 300.48 211.53 300.56 209.31
  Q 300.59 208.42 301.75 208.46
  Z"
/>
<path fill="#de9d23" d="
  M 390.54 216.07
  L 390.50 220.61
  C 390.49 221.42 391.01 222.16 391.79 222.47
  Q 394.58 223.57 393.11 224.67
  C 392.86 224.86 392.53 224.93 392.19 224.87
  Q 388.54 224.25 388.40 220.24
  Q 388.25 216.00 388.01 211.76
  Q 387.90 209.84 389.53 209.81
  C 390.31 209.80 390.89 210.54 390.69 211.30
  Q 390.00 213.89 391.75 213.89
  Q 393.95 213.89 392.85 215.15
  C 392.67 215.35 392.36 215.48 392.00 215.49
  L 391.05 215.52
  C 390.77 215.53 390.55 215.77 390.54 216.07
  Z"
/>
<path fill="#de9d23" d="
  M 425.04 216.06
  L 425.00 220.49
  C 424.99 221.15 425.34 221.78 425.93 222.16
  Q 430.06 224.84 426.25 224.75
  Q 423.03 224.67 423.00 221.75
  L 422.90 210.68
  C 422.89 210.38 423.08 210.09 423.37 209.93
  Q 425.33 208.90 425.00 211.50
  Q 424.69 213.98 426.68 213.87
  C 427.02 213.85 427.31 214.00 427.42 214.25
  Q 428.22 216.00 425.56 215.64
  C 425.29 215.60 425.05 215.80 425.04 216.06
  Z"
/>
<path fill="#de9d23" d="
  M 274.72 214.17
  Q 279.72 211.02 282.25 216.50
  Q 282.86 217.82 282.48 223.54
  Q 282.43 224.33 282.05 224.71
  Q 281.43 225.34 280.79 224.64
  C 280.61 224.44 280.51 224.12 280.51 223.75
  L 280.44 217.79
  Q 280.41 215.66 278.28 215.13
  Q 276.75 214.75 275.95 215.99
  Q 275.51 216.68 275.49 218.12
  Q 275.47 220.81 275.30 223.49
  Q 275.18 225.38 273.93 224.76
  C 273.66 224.63 273.47 224.35 273.43 224.01
  Q 273.08 221.40 273.25 218.75
  Q 273.52 214.49 269.90 215.40
  C 268.92 215.65 268.24 216.54 268.24 217.57
  L 268.21 223.94
  C 268.20 224.28 268.05 224.58 267.80 224.75
  Q 266.91 225.37 266.45 224.34
  Q 266.26 223.92 266.24 223.14
  Q 266.21 221.32 266.00 219.53
  Q 265.51 215.30 268.56 213.56
  Q 271.18 212.07 273.92 214.13
  C 274.16 214.31 274.48 214.32 274.72 214.17
  Z"
/>
<path fill="#de9d23" d="
  M 372.19 216.19
  Q 373.71 213.39 377.18 213.09
  C 377.52 213.06 377.85 213.15 378.10 213.33
  Q 379.69 214.50 377.27 215.07
  Q 373.06 216.05 373.35 222.87
  C 373.39 223.79 372.91 224.65 372.11 225.11
  Q 371.14 225.67 371.20 223.76
  Q 371.22 222.91 371.15 222.25
  Q 370.79 218.75 372.19 216.19
  Z"
/>
<path fill="#de9d23" d="
  M 254.93 217.51
  Q 252.60 213.85 249.60 216.10
  Q 247.99 217.32 247.81 219.01
  Q 247.58 221.14 249.81 222.44
  Q 251.96 223.68 254.10 222.29
  C 254.38 222.10 254.71 222.05 254.98 222.16
  Q 256.64 222.81 255.00 224.00
  Q 252.96 225.47 250.57 224.94
  Q 248.55 224.50 247.09 222.63
  Q 244.25 218.99 247.23 215.55
  Q 248.89 213.64 250.85 213.33
  Q 253.12 212.97 255.31 214.69
  Q 257.81 216.64 257.30 219.45
  C 257.25 219.75 257.01 219.98 256.70 220.05
  Q 254.63 220.47 252.49 220.36
  Q 249.85 220.22 251.17 218.61
  C 251.31 218.45 251.62 218.33 252.00 218.30
  L 254.70 218.07
  C 254.95 218.05 255.08 217.74 254.93 217.51
  Z"
/>
<path fill="#de9d23" d="
  M 287.39 214.93
  Q 289.54 212.78 292.48 213.46
  Q 294.90 214.02 296.23 216.09
  Q 297.58 218.18 297.39 220.89
  Q 297.32 221.82 297.39 223.10
  Q 297.52 225.65 295.19 224.49
  C 294.90 224.34 294.58 224.33 294.29 224.44
  Q 289.20 226.46 286.31 222.19
  Q 285.10 220.39 285.55 218.24
  Q 285.94 216.38 287.39 214.93
  Z
  M 295.17 219.15
  C 295.17 217.07 293.48 215.38 291.40 215.38
  C 289.32 215.38 287.63 217.07 287.63 219.15
  C 287.63 221.23 289.32 222.92 291.40 222.92
  C 293.48 222.92 295.17 221.23 295.17 219.15
  Z"
/>
<path fill="#de9d23" d="
  M 317.96 225.00
  Q 310.50 225.26 310.75 217.79
  Q 311.62 215.66 312.81 214.81
  Q 318.07 211.09 321.75 216.50
  Q 322.89 218.17 322.18 219.74
  C 322.05 220.02 321.76 220.20 321.44 220.21
  L 317.00 220.26
  C 316.67 220.26 316.35 220.13 316.13 219.90
  Q 314.80 218.53 316.97 218.29
  Q 317.35 218.25 318.51 218.34
  Q 320.83 218.50 319.64 216.86
  Q 319.23 216.31 318.55 215.98
  Q 314.90 214.24 313.31 217.49
  Q 312.52 219.10 313.12 220.56
  Q 313.82 222.28 315.72 222.81
  Q 316.48 223.02 317.74 222.65
  Q 318.76 222.35 319.83 222.27
  Q 320.34 222.23 320.59 222.48
  Q 321.04 222.92 320.30 223.51
  Q 319.22 224.38 317.96 225.00
  Z"
/>
<path fill="#de9d23" d="
  M 340.54 214.75
  Q 337.68 221.45 334.56 228.03
  Q 334.54 228.09 334.14 229.14
  Q 333.58 230.62 332.41 229.55
  C 332.18 229.34 332.11 229.01 332.23 228.72
  L 334.01 224.43
  C 334.21 223.96 334.18 223.45 333.95 223.05
  Q 331.58 218.85 329.83 215.23
  Q 329.52 214.60 329.61 214.08
  Q 329.82 212.93 330.89 213.80
  Q 331.27 214.11 331.60 214.68
  Q 333.36 217.73 334.82 220.95
  Q 335.24 221.89 335.61 220.95
  L 337.75 215.54
  Q 338.39 214.89 338.93 214.15
  Q 340.32 212.24 340.54 214.75
  Z"
/>
<path fill="#de9d23" d="
  M 352.00 222.96
  Q 350.25 224.77 347.75 225.04
  Q 342.93 224.63 341.86 220.81
  Q 341.09 218.04 342.83 215.60
  Q 344.95 212.64 348.57 213.53
  Q 351.66 214.28 352.82 216.82
  Q 354.13 219.68 352.00 222.96
  Z
  M 344.50 217.21
  Q 343.13 218.90 343.81 220.44
  Q 345.64 224.52 349.75 222.04
  Q 352.88 219.32 350.19 216.56
  Q 347.12 213.43 344.50 217.21
  Z"
/>
<path fill="#de9d23" d="
  M 356.94 213.69
  Q 357.63 212.58 358.22 213.60
  Q 358.43 213.97 358.43 214.57
  Q 358.41 216.71 358.57 218.84
  Q 358.75 221.24 359.93 222.26
  Q 361.36 223.50 363.20 222.55
  Q 364.47 221.88 364.91 220.24
  Q 365.52 217.90 365.32 215.42
  Q 365.25 214.59 365.40 214.08
  Q 365.89 212.41 366.97 213.84
  C 367.15 214.08 367.25 214.40 367.25 214.75
  Q 367.26 216.62 367.36 218.49
  Q 367.55 221.99 365.29 223.80
  Q 363.24 225.44 360.40 224.71
  Q 356.15 223.62 356.39 218.44
  Q 356.42 217.84 356.38 216.06
  Q 356.35 214.63 356.94 213.69
  Z"
/>
<path fill="#de9d23" d="
  M 404.56 224.23
  Q 399.91 226.54 396.81 222.69
  Q 395.38 220.91 395.70 218.66
  Q 395.98 216.71 397.41 215.13
  Q 399.61 212.69 402.84 213.50
  Q 405.21 214.09 406.48 215.94
  Q 407.80 217.86 407.63 220.51
  Q 407.52 222.13 407.50 223.75
  C 407.50 224.11 407.37 224.43 407.15 224.61
  Q 406.27 225.33 405.33 224.38
  C 405.12 224.17 404.81 224.10 404.56 224.23
  Z
  M 405.32 219.17
  C 405.32 217.10 403.64 215.42 401.57 215.42
  C 399.50 215.42 397.82 217.10 397.82 219.17
  C 397.82 221.24 399.50 222.92 401.57 222.92
  C 403.64 222.92 405.32 221.24 405.32 219.17
  Z"
/>
<path fill="#de9d23" d="
  M 412.81 217.19
  L 417.97 219.15
  C 418.30 219.27 418.56 219.47 418.73 219.72
  Q 421.06 223.16 417.19 224.69
  Q 414.01 225.94 410.85 223.82
  Q 410.21 223.40 410.10 222.82
  Q 409.91 221.89 410.93 221.81
  C 411.20 221.78 411.52 221.89 411.83 222.10
  Q 413.60 223.31 415.80 223.04
  Q 416.50 222.96 417.01 222.62
  Q 418.07 221.91 417.35 221.21
  Q 416.18 220.08 414.62 219.68
  Q 410.20 218.55 410.70 215.56
  C 410.75 215.24 410.93 214.95 411.19 214.73
  Q 414.75 211.80 418.54 214.52
  C 418.82 214.71 419.01 214.98 419.08 215.28
  Q 419.42 216.63 418.13 216.36
  Q 417.76 216.28 417.10 215.84
  Q 415.17 214.58 412.94 215.69
  Q 411.17 216.56 412.81 217.19
  Z"
/>
<path fill="#de9d23" d="
  M 439.21 217.34
  Q 436.67 213.99 433.83 216.12
  Q 432.29 217.27 432.07 218.98
  Q 431.79 221.16 433.88 222.38
  C 434.45 222.72 435.12 222.83 435.77 222.71
  Q 439.93 221.94 439.83 223.21
  C 439.81 223.48 439.59 223.75 439.25 223.93
  Q 434.15 226.62 431.34 222.72
  Q 429.95 220.78 430.15 218.51
  Q 430.39 215.83 432.53 214.41
  Q 435.07 212.71 437.79 213.66
  Q 440.62 214.65 441.68 218.33
  C 441.93 219.21 441.35 220.09 440.51 220.08
  L 435.80 220.06
  C 435.51 220.06 435.24 219.81 435.16 219.46
  Q 434.74 217.74 437.24 218.31
  Q 438.30 218.54 439.10 218.05
  C 439.34 217.91 439.39 217.58 439.21 217.34
  Z"
/>
<circle fill="#2e0609" cx="291.40" cy="219.15" r="3.77"/>
<path fill="#2e0609" d="
  M 349.75 222.04
  L 344.50 217.21
  Q 347.12 213.43 350.19 216.56
  Q 352.88 219.32 349.75 222.04
  Z"
/>
<circle fill="#2e0609" cx="401.57" cy="219.17" r="3.75"/>
<path fill="#602012" d="
  M 344.50 217.21
  L 349.75 222.04
  Q 345.64 224.52 343.81 220.44
  Q 343.13 218.90 344.50 217.21
  Z"
/>
<path fill="#de9d23" d="
  M 138.71 233.29
  C 138.71 239.66 133.54 244.83 127.17 244.83
  C 120.80 244.83 115.63 239.66 115.63 233.29
  C 115.63 226.92 120.80 221.75 127.17 221.75
  C 133.54 221.75 138.71 226.92 138.71 233.29
  Z
  M 133.52 233.47
  C 133.52 229.93 130.65 227.06 127.11 227.06
  C 123.57 227.06 120.70 229.93 120.70 233.47
  C 120.70 237.01 123.57 239.88 127.11 239.88
  C 130.65 239.88 133.52 237.01 133.52 233.47
  Z"
/>
<path fill="#de9d23" d="
  M 164.5979 245.4009
  C 158.27 244.88 153.57 239.27 154.0986 232.8785
  C 154.62 226.48 160.18 221.72 166.5021 222.2391
  C 172.83 222.76 177.53 228.37 177.0014 234.7615
  C 176.48 241.16 170.92 245.92 164.5979 245.4009
  Z
  M 172.02 233.66
  C 172.02 230.10 169.13 227.21 165.57 227.21
  C 162.01 227.21 159.12 230.10 159.12 233.66
  C 159.12 237.22 162.01 240.11 165.57 240.11
  C 169.13 240.11 172.02 237.22 172.02 233.66
  Z"
/>
<circle fill="#2e0609" cx="127.11" cy="233.47" r="6.41"/>
<circle fill="#2e0609" cx="165.57" cy="233.66" r="6.45"/>
<rect fill="#2e0609" x="-10.35" y="-10.36" transform="translate(446.00,303.51) rotate(-45.0)" width="20.70" height="20.72" rx="0.26"/>
<rect fill="#2e0609" x="-10.42" y="-10.43" transform="translate(446.01,338.88) rotate(44.9)" width="20.84" height="20.86" rx="0.54"/>
</svg>
