<?xml version="1.0" encoding="UTF-8" standalone="no"?>
<!DOCTYPE svg PUBLIC "-//W3C//DTD SVG 1.1//EN" "http://www.w3.org/Graphics/SVG/1.1/DTD/svg11.dtd">
<svg xmlns="http://www.w3.org/2000/svg" version="1.1" viewBox="0 0 1270 592">
<g stroke-width="2.0" fill="none" stroke-linecap="butt">
<path stroke="#854e16" vector-effect="non-scaling-stroke" d="
  M 514.04 284.25
  L 513.77 259.06
  C 513.76 258.39 513.27 257.84 512.66 257.85
  L 507.68 257.87
  C 507.41 257.87 507.18 258.12 507.17 258.44
  Q 506.68 274.85 507.29 291.25"
/>
<path stroke="#47130e" vector-effect="non-scaling-stroke" d="
  M 507.29 291.25
  L 497.86 300.77
  C 497.73 300.90 497.73 301.10 497.86 301.23
  L 525.46 328.75"
/>
<path stroke="#865216" vector-effect="non-scaling-stroke" d="
  M 525.46 328.75
  Q 525.53 333.43 525.50 338.11
  Q 525.50 338.83 525.73 339.35
  Q 526.43 340.89 527.16 339.71
  Q 527.62 338.96 527.66 338.09
  Q 527.74 336.15 528.16 335.47
  Q 528.63 334.67 529.74 336.01
  Q 531.21 337.79 532.75 339.51
  Q 533.72 340.60 534.50 339.46"
/>
<path stroke="#47130e" vector-effect="non-scaling-stroke" d="
  M 534.50 339.46
  Q 535.63 338.98 536.69 340.06
  Q 567.86 371.70 635.39 438.65
  C 635.59 438.84 635.91 438.84 636.11 438.65
  L 653.00 421.87
  C 653.20 421.66 653.52 421.66 653.72 421.87
  L 667.40 435.78
  C 667.66 436.05 667.65 436.47 667.38 436.74
  L 650.92 453.20
  C 650.62 453.50 650.62 453.99 650.92 454.29
  L 670.64 473.89
  C 670.84 474.09 671.16 474.09 671.36 473.89
  L 691.15 454.35
  C 691.35 454.15 691.35 453.83 691.15 453.63
  L 674.74 436.89
  C 674.31 436.45 674.32 435.75 674.75 435.32
  L 688.26 421.87
  C 688.54 421.59 688.98 421.59 689.25 421.86
  L 706.07 438.59
  C 706.27 438.78 706.59 438.78 706.79 438.59
  L 841.84 303.53
  C 841.97 303.41 842.09 303.10 842.18 302.70
  Q 842.26 302.32 842.71 302.25"
/>
<path stroke="#7f3c17" vector-effect="non-scaling-stroke" d="
  M 842.71 302.25
  L 844.29 305.47
  C 844.60 306.10 845.20 306.50 845.83 306.49
  L 851.95 306.45
  C 852.18 306.45 852.33 306.20 852.22 305.99
  L 828.32 258.21
  C 828.18 257.93 827.89 257.75 827.58 257.75
  L 820.75 257.75
  C 820.19 257.75 819.67 258.06 819.41 258.55
  L 813.54 269.50"
/>
<path stroke="#47130e" vector-effect="non-scaling-stroke" d="
  M 813.54 269.50
  Q 813.44 269.28 813.26 269.32
  C 813.11 269.36 812.96 269.34 812.89 269.27
  L 706.79 163.41
  C 706.59 163.21 706.27 163.21 706.07 163.40
  L 689.45 179.69
  C 689.11 180.03 688.57 180.05 688.22 179.74
  Q 680.55 172.85 674.58 166.13
  C 674.40 165.92 674.41 165.60 674.61 165.39
  L 691.16 148.36
  C 691.35 148.16 691.35 147.84 691.15 147.65
  L 671.64 128.14
  C 671.29 127.79 670.71 127.79 670.36 128.14
  L 650.85 147.65
  C 650.65 147.85 650.65 148.17 650.84 148.37
  L 667.68 165.30
  C 667.86 165.48 667.87 165.76 667.70 165.93
  L 653.67 180.09
  C 653.48 180.29 653.16 180.29 652.96 180.09
  L 636.18 163.31
  C 635.94 163.07 635.56 163.07 635.32 163.30
  Q 582.05 216.05 529.31 269.31
  Q 521.80 276.91 514.04 284.25"
/>
<path stroke="#98491b" vector-effect="non-scaling-stroke" d="
  M 813.54 269.50
  L 811.50 273.29"
/>
<path stroke="#47130e" vector-effect="non-scaling-stroke" d="
  M 811.50 273.29
  Q 810.90 273.28 810.19 272.56
  Q 758.44 220.81 706.66 169.04
  C 706.47 168.84 706.15 168.85 705.95 169.05
  L 692.14 183.11
  C 691.92 183.33 691.92 183.67 692.14 183.89
  Q 731.39 223.36 770.94 262.81
  Q 771.84 263.72 772.50 263.79"
/>
<path stroke="#994d1b" vector-effect="non-scaling-stroke" d="
  M 772.50 263.79
  L 770.50 267.79"
/>
<path stroke="#47130e" vector-effect="non-scaling-stroke" d="
  M 770.50 267.79
  L 770.13 267.75
  C 769.85 267.72 769.62 267.62 769.48 267.48
  L 689.10 186.86
  C 688.91 186.66 688.59 186.66 688.39 186.85
  L 671.36 203.65
  C 671.16 203.84 670.84 203.84 670.64 203.65
  L 653.74 186.86
  C 653.54 186.66 653.22 186.66 653.02 186.86
  L 582.66 257.09
  C 582.56 257.19 582.50 257.33 582.50 257.48
  L 582.50 257.71"
/>
<path stroke="#9d581b" vector-effect="non-scaling-stroke" d="
  M 582.50 257.71
  L 575.25 257.71"
/>
<path stroke="#47130e" vector-effect="non-scaling-stroke" d="
  M 575.25 257.71
  Q 575.46 257.55 575.70 257.48
  Q 576.32 257.31 576.53 257.10
  L 649.83 183.92
  C 650.03 183.72 650.04 183.39 649.84 183.19
  L 636.22 169.36
  C 635.93 169.06 635.44 169.06 635.14 169.36
  Q 591.64 212.64 548.15 256.15
  Q 547.52 256.77 547.75 257.71"
/>
<path stroke="#9e5b1b" vector-effect="non-scaling-stroke" d="
  M 547.75 257.71
  Q 543.87 256.73 544.46 260.25"
/>
<path stroke="#47130e" vector-effect="non-scaling-stroke" d="
  M 544.46 260.25
  Q 528.47 275.55 515.56 289.06
  Q 514.99 289.66 514.29 289.50"
/>
<path stroke="#9e5b1b" vector-effect="non-scaling-stroke" d="
  M 514.29 289.50
  L 514.04 284.25"
/>
<path stroke="#98491b" vector-effect="non-scaling-stroke" d="
  M 842.71 302.25
  L 838.95 294.14
  C 838.77 293.75 838.40 293.50 837.99 293.50
  L 828.75 293.54"
/>
<path stroke="#7f3c17" vector-effect="non-scaling-stroke" d="
  M 828.75 293.54
  L 809.05 293.56
  C 808.71 293.56 808.42 293.72 808.28 293.98
  L 806.04 298.25"
/>
<path stroke="#98491b" vector-effect="non-scaling-stroke" d="
  M 806.04 298.25
  L 801.83 305.88
  C 801.67 306.18 801.38 306.37 801.06 306.38
  L 797.25 306.54"
/>
<path stroke="#98491b" vector-effect="non-scaling-stroke" d="
  M 799.50 296.54
  L 801.46 293.00"
/>
<path stroke="#7f3c17" vector-effect="non-scaling-stroke" d="
  M 811.50 273.29
  L 801.46 293.00"
/>
<path stroke="#47130e" vector-effect="non-scaling-stroke" d="
  M 801.46 293.00
  L 787.04 279.25"
/>
<path stroke="#804017" vector-effect="non-scaling-stroke" d="
  M 787.04 279.25
  L 787.00 258.60
  C 787.00 258.13 786.62 257.75 786.15 257.75
  L 776.12 257.75
  C 775.81 257.75 775.53 257.93 775.38 258.22
  L 772.50 263.79"
/>
<path stroke="#47130e" vector-effect="non-scaling-stroke" d="
  M 543.71 290.75
  Q 542.35 291.24 540.31 293.31
  Q 534.62 299.10 533.00 301.21"
/>
<path stroke="#9d581b" vector-effect="non-scaling-stroke" d="
  M 565.96 274.00
  L 565.96 268.25"
/>
<path stroke="#854e16" vector-effect="non-scaling-stroke" d="
  M 514.29 289.50
  Q 514.69 295.39 518.81 298.44
  Q 524.83 302.89 533.00 301.21"
/>
<path stroke="#9e5b1b" vector-effect="non-scaling-stroke" d="
  M 533.00 301.21
  Q 542.11 299.71 543.71 290.75"
/>
<path stroke="#854e16" vector-effect="non-scaling-stroke" d="
  M 543.71 290.75
  Q 544.57 286.54 544.56 282.25
  Q 544.53 271.25 544.46 260.25"
/>
<path stroke="#9e5b1b" vector-effect="non-scaling-stroke" d="
  M 551.29 281.50
  L 551.29 288.00"
/>
<path stroke="#9e5b1b" vector-effect="non-scaling-stroke" d="
  M 542.21 304.50
  L 538.50 306.04"
/>
<path stroke="#854e16" vector-effect="non-scaling-stroke" d="
  M 538.50 306.04
  Q 528.50 308.91 519.06 305.69
  Q 511.92 303.25 508.46 296.25"
/>
<path stroke="#9e5b1b" vector-effect="non-scaling-stroke" d="
  M 508.46 296.25
  L 507.29 291.25"
/>
<path stroke="#804017" vector-effect="non-scaling-stroke" d="
  M 770.50 267.79
  L 755.05 299.07
  Q 754.67 299.85 754.29 299.07
  L 734.41 258.75
  C 734.11 258.14 733.49 257.75 732.81 257.75
  L 723.00 257.75
  C 722.72 257.75 722.50 257.97 722.50 258.25
  L 722.56 305.70
  C 722.56 306.03 722.78 306.29 723.06 306.30
  L 728.32 306.36
  C 728.70 306.37 729.00 306.03 729.01 305.60
  L 729.26 263.60
  Q 729.27 262.46 729.77 263.48
  L 750.57 305.90
  C 750.75 306.27 751.13 306.50 751.53 306.50
  L 757.75 306.50
  C 758.11 306.50 758.44 306.30 758.60 305.98
  L 779.92 263.10
  Q 780.50 261.94 780.50 263.24
  L 780.50 305.94
  C 780.50 306.25 780.75 306.50 781.06 306.50
  L 786.45 306.50
  C 786.75 306.50 787.00 306.25 787.00 305.94
  L 787.04 284.75"
/>
<path stroke="#47130e" vector-effect="non-scaling-stroke" d="
  M 787.04 284.75
  Q 792.52 290.26 797.94 295.81
  Q 798.76 296.65 799.50 296.54"
/>
<path stroke="#7f3c17" vector-effect="non-scaling-stroke" d="
  M 799.50 296.54
  L 794.98 305.80
  C 794.85 306.06 794.97 306.37 795.22 306.39
  L 797.25 306.54"
/>
<path stroke="#47130e" vector-effect="non-scaling-stroke" d="
  M 797.25 306.54
  Q 797.09 307.16 795.75 308.50
  Q 742.52 361.52 689.10 415.03
  C 688.84 415.29 688.42 415.29 688.15 415.03
  L 671.36 398.24
  C 671.16 398.04 670.84 398.04 670.64 398.24
  L 653.67 415.09
  C 653.48 415.28 653.16 415.28 652.96 415.08
  Q 615.01 377.14 577.00 339.25
  Q 576.59 338.85 576.71 338.25"
/>
<path stroke="#865216" vector-effect="non-scaling-stroke" d="
  M 576.71 338.25
  Q 578.36 336.38 578.31 334.12
  Q 578.26 332.12 576.75 330.33
  Q 573.35 326.30 568.25 330.04"
/>
<path stroke="#47130e" vector-effect="non-scaling-stroke" d="
  M 568.25 330.04
  Q 566.80 329.99 566.37 328.73
  Q 566.19 328.20 565.89 327.91
  L 542.21 304.50"
/>
<path stroke="#854e16" vector-effect="non-scaling-stroke" d="
  M 542.21 304.50
  Q 551.36 298.96 551.29 288.00"
/>
<path stroke="#47130e" vector-effect="non-scaling-stroke" d="
  M 551.29 288.00
  Q 551.95 288.18 552.30 287.80
  Q 558.89 280.66 565.96 274.00"
/>
<path stroke="#844b16" vector-effect="non-scaling-stroke" d="
  M 565.96 274.00
  L 566.06 305.69
  C 566.06 306.02 566.27 306.28 566.54 306.29
  L 571.88 306.39
  C 572.22 306.40 572.50 306.09 572.50 305.71
  L 572.50 285.56
  C 572.50 285.27 572.73 285.04 573.02 285.03
  Q 581.34 284.74 589.12 285.27
  Q 593.11 285.55 594.70 286.48
  Q 597.44 288.08 597.98 291.75
  Q 598.95 298.43 600.59 305.38
  C 600.74 306.04 601.33 306.50 602.01 306.50
  L 607.78 306.50
  C 608.02 306.50 608.19 306.25 608.10 306.03
  Q 606.74 302.66 606.20 299.17
  Q 605.38 293.84 603.85 288.68
  Q 603.03 285.94 601.91 284.75
  Q 600.31 283.07 597.81 282.64
  Q 597.36 282.56 597.79 282.43
  Q 601.76 281.24 604.24 278.35
  Q 606.50 275.72 606.82 271.61
  Q 607.73 260.21 595.25 258.00
  Q 593.01 257.60 582.50 257.71"
/>
<path stroke="#994d1b" vector-effect="non-scaling-stroke" d="
  M 787.04 279.25
  L 787.04 284.75"
/>
<path stroke="#844b16" vector-effect="non-scaling-stroke" d="
  M 575.25 257.71
  L 566.69 257.75
  C 566.31 257.75 566.00 258.05 566.00 258.43
  L 565.96 268.25"
/>
<path stroke="#47130e" vector-effect="non-scaling-stroke" d="
  M 565.96 268.25
  Q 565.06 268.46 564.19 269.44
  Q 560.02 274.07 553.06 280.81
  Q 552.17 281.68 551.29 281.50"
/>
<path stroke="#854e16" vector-effect="non-scaling-stroke" d="
  M 551.29 281.50
  L 551.25 258.26
  C 551.25 257.97 551.01 257.73 550.71 257.73
  L 547.75 257.71"
/>
<path stroke="#9f5f1b" vector-effect="non-scaling-stroke" d="
  M 534.50 339.46
  Q 533.29 336.83 531.02 334.52
  C 530.44 333.93 530.48 332.98 531.11 332.49
  L 533.25 330.79"
/>
<path stroke="#47130e" vector-effect="non-scaling-stroke" d="
  M 533.25 330.79
  Q 534.16 332.24 535.75 332.79"
/>
<path stroke="#9f5f1b" vector-effect="non-scaling-stroke" d="
  M 535.75 332.79
  Q 535.51 340.23 542.96 340.00"
/>
<path stroke="#47130e" vector-effect="non-scaling-stroke" d="
  M 542.96 340.00
  Q 542.97 340.59 543.69 341.31
  Q 589.19 386.81 634.95 432.57
  C 635.32 432.94 635.93 432.94 636.30 432.57
  L 649.96 418.92
  C 650.19 418.69 650.19 418.31 649.96 418.08
  Q 612.06 380.09 574.39 342.64
  Q 574.30 342.55 573.53 341.97
  Q 572.64 341.29 572.75 340.04"
/>
<path stroke="#9f5f1b" vector-effect="non-scaling-stroke" d="
  M 572.75 340.04
  Q 575.02 339.78 576.71 338.25"
/>
<path stroke="#47130e" vector-effect="non-scaling-stroke" d="
  M 828.75 293.54
  L 830.45 293.82
  C 830.87 293.89 831.19 294.00 831.32 294.12
  L 837.87 300.29
  C 838.32 300.71 838.31 301.44 837.84 301.91
  L 707.06 432.57
  C 706.68 432.95 706.07 432.95 705.69 432.57
  L 692.05 418.92
  C 691.85 418.72 691.85 418.40 692.05 418.20
  Q 749.70 360.47 807.17 302.96
  Q 807.24 302.88 808.28 302.02
  Q 809.68 300.86 808.11 299.82
  Q 807.75 299.57 807.42 299.14
  Q 806.89 298.45 806.04 298.25"
/>
<path stroke="#47130e" vector-effect="non-scaling-stroke" d="
  M 538.50 306.04
  Q 538.57 307.07 539.81 308.19
  Q 550.03 317.40 562.54 331.25"
/>
<path stroke="#865216" vector-effect="non-scaling-stroke" d="
  M 562.54 331.25
  L 560.63 335.76
  Q 560.20 336.77 559.73 335.76
  Q 558.25 332.56 556.29 329.40
  Q 555.25 327.73 554.67 329.03
  C 554.54 329.32 554.55 329.66 554.71 329.95
  L 559.00 338.08
  C 559.15 338.38 559.19 338.70 559.11 338.99
  Q 558.52 340.97 557.63 342.85
  Q 556.45 345.34 558.46 344.83
  C 558.74 344.76 558.99 344.54 559.13 344.23
  L 564.29 332.75"
/>
<path stroke="#47130e" vector-effect="non-scaling-stroke" d="
  M 564.29 332.75
  L 566.46 333.75"
/>
<path stroke="#865216" vector-effect="non-scaling-stroke" d="
  M 566.46 333.75
  Q 566.92 339.59 572.75 340.04"
/>
<path stroke="#865216" vector-effect="non-scaling-stroke" d="
  M 542.96 340.00
  L 544.99 338.92
  C 545.30 338.76 545.52 338.50 545.60 338.21
  Q 546.11 336.37 544.00 337.25
  Q 541.78 338.17 540.16 337.55
  Q 538.55 336.94 537.89 334.96
  Q 536.98 332.22 540.00 330.75
  Q 543.05 329.27 544.77 332.31
  C 544.91 332.56 544.81 332.87 544.56 332.98
  Q 543.47 333.47 542.24 333.33
  C 541.90 333.29 541.58 333.38 541.37 333.58
  Q 539.69 335.16 542.42 335.25
  Q 542.80 335.27 544.08 335.39
  Q 545.70 335.55 547.02 334.72
  C 547.28 334.56 547.43 334.25 547.40 333.93
  Q 547.07 330.25 544.16 328.91
  Q 541.75 327.80 539.33 328.85
  Q 536.87 329.93 535.75 332.79"
/>
<path stroke="#865216" vector-effect="non-scaling-stroke" d="
  M 533.25 330.79
  Q 535.95 327.30 532.00 329.04"
/>
<path stroke="#47130e" vector-effect="non-scaling-stroke" d="
  M 532.00 329.04
  L 527.79 326.25"
/>
<path stroke="#865216" vector-effect="non-scaling-stroke" d="
  M 527.79 326.25
  Q 528.26 324.10 526.50 323.29"
/>
<path stroke="#47130e" vector-effect="non-scaling-stroke" d="
  M 508.46 296.25
  L 503.91 300.51
  C 503.62 300.78 503.63 301.26 503.93 301.56
  Q 513.56 311.19 522.56 320.19
  Q 525.09 322.71 526.50 323.29"
/>
<path stroke="#9f5f1b" vector-effect="non-scaling-stroke" d="
  M 526.50 323.29
  Q 524.84 325.68 525.46 328.75"
/>
<path stroke="#9f5f1b" vector-effect="non-scaling-stroke" d="
  M 568.25 330.04
  Q 566.83 331.64 566.46 333.75"
/>
<path stroke="#9f5f1b" vector-effect="non-scaling-stroke" d="
  M 564.29 332.75
  Q 564.82 331.34 565.34 329.94
  Q 565.91 328.43 564.67 328.58
  C 564.33 328.62 564.04 328.81 563.87 329.08
  L 562.54 331.25"
/>
<path stroke="#9f5f1b" vector-effect="non-scaling-stroke" d="
  M 527.79 326.25
  L 527.75 332.17
  Q 527.74 333.06 528.38 332.45
  L 532.00 329.04"
/>
<path stroke="#865216" vector-effect="non-scaling-stroke" d="
  M 331.34 309.07
  Q 358.78 309.58 386.79 309.73
  Q 394.08 309.77 394.20 309.78
  Q 398.38 310.26 401.19 312.81
  Q 406.09 317.27 403.62 322.91
  Q 402.41 325.68 400.14 327.47
  Q 397.56 329.51 394.50 329.50
  Q 362.97 329.41 332.18 329.07
  C 331.65 329.06 331.19 329.42 331.06 329.94
  Q 330.01 334.33 332.69 334.09
  Q 333.68 334.00 333.82 334.01
  Q 361.41 334.25 388.99 334.99
  Q 394.84 335.15 399.25 333.50
  Q 408.38 330.08 409.34 321.44
  Q 409.97 315.77 406.87 311.66
  Q 403.89 307.73 398.15 305.31
  C 397.45 305.02 397.10 304.23 397.34 303.50
  L 412.00 259.50
  Q 412.99 256.52 409.75 256.50
  L 319.09 256.00
  C 318.44 256.00 317.85 255.56 317.63 254.90
  L 313.67 243.16
  C 313.39 242.33 312.58 241.77 311.66 241.76
  L 295.42 241.49
  C 295.11 241.49 294.87 241.71 294.86 241.99
  L 294.75 245.94
  C 294.74 246.21 294.99 246.44 295.31 246.46
  L 309.18 247.04
  C 309.49 247.05 309.75 247.25 309.84 247.53
  L 329.26 307.52
  C 329.55 308.43 330.39 309.05 331.34 309.07"
/>
<path stroke="#865216" vector-effect="non-scaling-stroke" d="
  M 457.99 280.23
  Q 461.40 282.54 463.50 283.00
  Q 467.47 283.87 483.94 286.56
  Q 488.49 287.30 489.32 291.07
  Q 490.02 294.23 488.05 296.99
  Q 486.10 299.73 482.31 300.81
  Q 473.66 303.29 465.97 300.28
  Q 463.13 299.17 461.64 297.38
  Q 459.89 295.28 459.39 292.43
  C 459.33 292.12 459.09 291.89 458.81 291.88
  L 452.86 291.81
  C 452.59 291.80 452.37 292.05 452.39 292.35
  Q 452.76 297.68 455.66 301.09
  Q 458.03 303.87 463.22 305.51
  Q 475.10 309.27 487.30 304.79
  Q 495.07 301.93 496.50 294.50
  Q 497.84 287.54 493.39 283.75
  Q 490.87 281.60 484.06 280.04
  Q 477.88 278.62 471.59 277.70
  Q 465.87 276.86 464.16 276.11
  Q 458.44 273.61 461.63 267.58
  Q 462.88 265.24 465.44 264.07
  Q 473.52 260.36 482.32 263.67
  Q 486.49 265.23 487.97 270.23
  C 488.06 270.53 488.33 270.74 488.63 270.73
  L 494.19 270.71
  C 494.47 270.70 494.69 270.47 494.67 270.20
  Q 494.25 262.15 487.44 259.31
  Q 475.39 254.29 462.00 259.25
  Q 455.48 261.67 453.79 267.91
  Q 452.81 271.53 453.72 274.60
  Q 454.75 278.04 457.99 280.23"
/>
<path stroke="#7e3917" vector-effect="non-scaling-stroke" d="
  M 861.49 279.99
  Q 865.57 282.94 869.25 283.50
  Q 885.14 285.91 888.50 286.75
  Q 891.50 287.50 892.76 290.08
  Q 893.86 292.33 892.90 294.96
  Q 891.33 299.28 886.46 300.75
  Q 879.75 302.78 873.10 301.41
  Q 869.02 300.57 866.81 298.67
  Q 864.07 296.32 863.22 292.36
  C 863.14 292.00 862.83 291.75 862.47 291.75
  L 856.65 291.75
  C 856.37 291.75 856.14 291.99 856.16 292.27
  Q 856.52 299.40 861.81 303.19
  Q 865.69 305.96 870.96 306.72
  Q 875.45 307.37 880.55 307.13
  Q 887.42 306.81 893.45 303.53
  Q 897.00 301.60 898.61 298.93
  Q 900.46 295.85 900.53 292.00
  Q 900.66 285.00 894.40 282.15
  Q 889.86 280.09 884.93 279.34
  Q 877.44 278.19 869.98 276.83
  Q 864.87 275.90 864.48 271.36
  Q 864.32 269.51 865.10 267.74
  Q 866.01 265.71 867.56 264.81
  Q 875.69 260.15 885.58 263.37
  Q 890.17 264.87 891.62 269.92
  C 891.76 270.42 892.21 270.77 892.71 270.76
  L 897.93 270.70
  C 898.21 270.70 898.44 270.46 898.43 270.18
  Q 898.25 262.68 892.19 259.81
  Q 879.93 254.01 865.94 259.19
  Q 859.69 261.50 857.73 267.42
  Q 856.55 270.99 857.37 274.15
  Q 858.29 277.68 861.49 279.99"
/>
<path stroke="#7c3517" vector-effect="non-scaling-stroke" d="
  M 947.91 294.01
  L 953.72 306.03
  C 953.86 306.32 954.15 306.50 954.46 306.50
  L 961.04 306.50
  C 961.38 306.50 961.60 306.14 961.45 305.84
  L 937.41 258.25
  C 937.27 257.97 936.99 257.79 936.69 257.79
  L 929.30 257.80
  C 929.01 257.80 928.73 257.97 928.59 258.25
  L 904.17 305.70
  C 903.98 306.07 904.25 306.50 904.66 306.50
  L 910.27 306.50
  C 910.61 306.50 910.92 306.31 911.07 306.02
  L 917.12 294.27
  C 917.36 293.80 917.83 293.50 918.35 293.50
  L 947.19 293.56
  C 947.50 293.56 947.78 293.73 947.91 294.01"
/>
<path stroke="#7b3117" vector-effect="non-scaling-stroke" d="
  M 975.81 299.95
  L 975.75 258.41
  C 975.75 258.05 975.45 257.75 975.09 257.75
  L 969.44 257.75
  C 969.16 257.75 968.93 257.98 968.93 258.27
  L 968.94 305.99
  C 968.94 306.27 969.17 306.50 969.45 306.50
  L 1002.98 306.50
  C 1003.27 306.50 1003.50 306.27 1003.50 305.98
  L 1003.50 301.05
  C 1003.50 300.75 1003.25 300.50 1002.94 300.50
  L 976.30 300.44
  C 976.03 300.44 975.81 300.22 975.81 299.95"
/>
<path stroke="#7a2e17" vector-effect="non-scaling-stroke" d="
  M 1019.32 283.56
  L 1045.69 283.44
  C 1045.98 283.44 1046.21 283.21 1046.21 282.93
  L 1046.23 278.36
  C 1046.23 278.02 1045.95 277.75 1045.61 277.75
  L 1019.42 277.75
  C 1019.05 277.75 1018.75 277.45 1018.75 277.08
  L 1018.75 264.16
  C 1018.75 263.80 1019.05 263.50 1019.41 263.50
  L 1047.85 263.50
  C 1048.13 263.50 1048.36 263.25 1048.35 262.95
  L 1048.34 258.27
  C 1048.33 257.98 1048.12 257.75 1047.86 257.75
  L 1012.81 257.75
  C 1012.50 257.75 1012.25 258.00 1012.25 258.31
  L 1012.25 305.69
  C 1012.25 306.14 1012.61 306.50 1013.06 306.50
  L 1048.73 306.50
  C 1049.02 306.50 1049.25 306.27 1049.25 305.98
  L 1049.25 301.13
  C 1049.25 300.64 1048.85 300.25 1048.35 300.24
  L 1019.44 300.07
  C 1019.15 300.07 1018.92 299.84 1018.91 299.56
  L 1018.80 284.06
  C 1018.79 283.79 1019.03 283.56 1019.32 283.56"
/>
<path stroke="#865216" vector-effect="non-scaling-stroke" d="
  M 466.26 335.54
  Q 464.51 330.42 463.20 325.01
  Q 462.69 322.91 461.38 323.92
  C 461.15 324.09 460.97 324.37 460.87 324.73
  L 457.97 335.11
  Q 457.64 336.32 457.32 335.10
  Q 456.02 330.16 454.36 324.88
  Q 454.15 324.20 453.83 323.85
  Q 452.99 322.94 452.44 324.04
  C 452.31 324.30 452.29 324.64 452.39 324.98
  Q 454.38 332.02 456.66 338.98
  Q 456.85 339.54 457.16 339.77
  Q 457.67 340.16 458.22 339.84
  Q 458.65 339.58 458.84 338.83
  Q 460.28 333.28 461.75 327.73
  Q 462.04 326.64 462.33 327.73
  Q 463.74 333.25 465.21 338.80
  Q 465.65 340.46 466.65 339.88
  Q 467.14 339.59 467.41 338.79
  Q 471.44 326.91 471.75 324.50
  Q 471.92 323.20 470.80 323.25
  C 470.50 323.26 470.24 323.47 470.15 323.78
  L 466.75 335.52
  Q 466.52 336.29 466.26 335.54"
/>
<path stroke="#865216" vector-effect="non-scaling-stroke" d="
  M 498.91 329.15
  Q 498.30 328.74 497.64 328.40
  Q 496.75 327.95 495.77 328.05
  Q 490.65 328.59 491.08 334.26
  Q 491.23 336.19 491.25 338.14
  Q 491.25 338.91 491.45 339.34
  Q 491.91 340.37 492.80 339.75
  C 493.05 339.58 493.20 339.28 493.21 338.94
  L 493.24 332.62
  C 493.24 331.60 493.88 330.70 494.83 330.40
  Q 498.29 329.29 498.24 333.50
  Q 498.21 336.22 498.30 338.94
  C 498.31 339.27 498.47 339.57 498.74 339.71
  Q 500.15 340.48 500.26 338.49
  Q 500.44 335.28 500.55 332.06
  C 500.56 331.73 500.69 331.42 500.91 331.20
  Q 503.91 328.27 505.31 332.69
  Q 505.69 333.88 505.53 338.15
  Q 505.50 338.87 505.66 339.33
  Q 506.14 340.67 507.13 339.57
  C 507.33 339.35 507.45 339.04 507.48 338.68
  Q 507.88 332.87 507.25 331.50
  Q 504.72 326.02 499.72 329.17
  C 499.47 329.33 499.15 329.32 498.91 329.15"
/>
<path stroke="#865216" vector-effect="non-scaling-stroke" d="
  M 479.66 332.02
  Q 480.67 333.29 479.05 333.27
  Q 475.22 333.22 476.04 334.78
  C 476.17 335.03 476.47 335.20 476.82 335.23
  Q 478.03 335.33 479.22 335.47
  Q 483.80 336.02 481.82 332.09
  Q 479.54 327.57 475.73 328.45
  Q 472.65 329.16 471.25 332.24
  Q 469.57 335.95 473.17 338.75
  Q 474.71 339.95 476.22 339.99
  Q 477.86 340.03 479.56 339.06
  Q 481.52 337.95 480.02 337.24
  C 479.76 337.12 479.43 337.13 479.11 337.27
  Q 473.73 339.62 472.88 334.05
  C 472.83 333.74 472.88 333.41 473.04 333.11
  Q 476.01 327.47 479.66 332.02"
/>
<path stroke="#865216" vector-effect="non-scaling-stroke" d="
  M 520.14 339.31
  Q 522.31 340.90 522.31 338.26
  Q 522.31 336.36 522.32 336.23
  Q 522.46 333.41 521.94 332.31
  Q 519.62 327.44 515.19 328.51
  Q 512.79 329.10 511.44 330.90
  Q 509.81 333.07 510.75 335.75
  Q 512.96 342.07 519.30 339.21
  C 519.57 339.09 519.89 339.13 520.14 339.31"
/>
<path stroke="#865216" vector-effect="non-scaling-stroke" d="
  M 363.69 348.31
  C 363.69 341.94 358.53 336.78 352.16 336.78
  C 345.79 336.78 340.63 341.94 340.63 348.31
  C 340.63 354.68 345.79 359.84 352.16 359.84
  C 358.53 359.84 363.69 354.68 363.69 348.31"
/>
<path stroke="#865216" vector-effect="non-scaling-stroke" d="
  M 389.4676 360.3704
  C 395.78 360.96 401.37 356.25 401.9610 349.8695
  C 402.55 343.48 397.92 337.83 391.6124 337.2496
  C 385.30 336.66 379.71 341.37 379.1190 347.7505
  C 378.53 354.14 383.16 359.79 389.4676 360.3704"
/>
<path stroke="#47130e" vector-effect="non-scaling-stroke" d="
  M 671.2970 133.6667
  C 671.13 133.50 670.87 133.50 670.7030 133.6667
  L 656.5467 147.8230
  C 656.38 147.99 656.38 148.25 656.5467 148.4170
  L 670.7030 162.5733
  C 670.87 162.74 671.13 162.74 671.2970 162.5733
  L 685.4533 148.4170
  C 685.62 148.25 685.62 147.99 685.4533 147.8230
  L 671.2970 133.6667"
/>
<path stroke="#47130e" vector-effect="non-scaling-stroke" d="
  M 671.1980 169.0367
  C 671.09 168.93 670.92 168.93 670.8162 169.0367
  L 656.5467 183.3062
  C 656.44 183.41 656.44 183.58 656.5467 183.6880
  L 670.8020 197.9433
  C 670.91 198.05 671.08 198.05 671.1838 197.9433
  L 685.4533 183.6738
  C 685.56 183.57 685.56 183.40 685.4533 183.2920
  L 671.1980 169.0367"
/>
<path stroke="#834717" vector-effect="non-scaling-stroke" d="
  M 636.18 279.37
  L 618.88 258.33
  C 618.66 258.06 618.36 257.90 618.06 257.89
  L 610.29 257.80
  Q 609.33 257.79 609.96 258.54
  L 632.20 285.38
  C 632.57 285.83 632.77 286.42 632.78 287.05
  L 632.92 305.81
  C 632.92 306.11 633.15 306.35 633.44 306.36
  L 639.19 306.47
  C 639.46 306.48 639.69 306.24 639.69 305.94
  L 639.75 286.15
  C 639.75 285.75 639.88 285.37 640.13 285.07
  L 661.84 258.44
  Q 662.41 257.75 661.52 257.75
  L 654.74 257.75
  C 654.04 257.75 653.37 258.09 652.93 258.66
  L 636.81 279.37
  C 636.65 279.57 636.34 279.57 636.18 279.37"
/>
<path stroke="#814317" vector-effect="non-scaling-stroke" d="
  M 701.66 294.01
  L 707.47 306.03
  C 707.61 306.32 707.90 306.50 708.21 306.50
  L 715.08 306.50
  C 715.32 306.50 715.47 306.25 715.36 306.04
  L 691.16 258.26
  C 691.02 257.98 690.74 257.80 690.44 257.80
  L 683.22 257.75
  C 682.88 257.75 682.57 257.94 682.42 258.24
  L 657.97 305.81
  C 657.85 306.05 658.00 306.33 658.24 306.33
  L 663.89 306.36
  C 664.39 306.37 664.88 306.04 665.15 305.51
  L 671.08 294.00
  C 671.22 293.73 671.50 293.56 671.81 293.56
  L 700.94 293.56
  C 701.25 293.56 701.53 293.73 701.66 294.01"
/>
<path stroke="#865216" vector-effect="non-scaling-stroke" d="
  M 616.05 330.61
  Q 618.80 330.81 617.79 329.16
  C 617.64 328.92 617.34 328.79 617.01 328.81
  Q 615.20 328.94 615.36 327.24
  Q 615.47 326.05 615.40 325.76
  Q 615.10 324.46 613.88 324.96
  C 613.61 325.07 613.42 325.35 613.40 325.68
  Q 612.72 333.80 613.50 337.00
  Q 614.13 339.60 617.18 339.90
  C 617.54 339.94 617.88 339.85 618.12 339.66
  Q 619.47 338.63 616.75 337.38
  C 615.98 337.03 615.49 336.29 615.50 335.48
  L 615.54 331.06
  C 615.55 330.79 615.78 330.59 616.05 330.61"
/>
<path stroke="#865216" vector-effect="non-scaling-stroke" d="
  M 650.55 330.65
  Q 652.92 331.00 652.57 329.29
  C 652.52 329.03 652.25 328.86 651.94 328.89
  Q 649.64 329.13 649.88 326.93
  Q 649.99 325.88 649.92 325.56
  Q 649.64 324.29 648.38 324.93
  C 648.08 325.08 647.89 325.37 647.90 325.68
  L 648.00 336.75
  Q 648.02 339.35 651.00 339.75
  Q 654.58 340.23 652.55 338.16
  C 652.36 337.97 652.06 337.82 651.70 337.76
  Q 649.97 337.45 649.97 335.50
  Q 649.96 333.28 650.04 331.06
  C 650.05 330.80 650.29 330.61 650.55 330.65"
/>
<path stroke="#865216" vector-effect="non-scaling-stroke" d="
  M 596.92 339.81
  Q 598.36 340.17 598.22 338.50
  Q 598.02 336.02 598.50 333.62
  Q 598.80 332.12 599.70 331.32
  Q 600.74 330.39 602.16 330.09
  Q 602.89 329.94 603.24 329.65
  Q 604.20 328.83 603.12 328.26
  Q 602.57 327.96 601.85 328.10
  Q 598.30 328.76 596.86 331.75
  Q 596.23 333.06 596.24 335.35
  Q 596.24 337.23 596.31 339.05
  C 596.32 339.41 596.57 339.72 596.92 339.81"
/>
<path stroke="#865216" vector-effect="non-scaling-stroke" d="
  M 586.27 339.86
  Q 590.20 340.45 591.71 336.80
  Q 592.26 335.45 592.26 333.11
  Q 592.26 331.22 592.20 329.32
  C 592.19 328.98 592.04 328.68 591.79 328.52
  Q 590.40 327.61 590.32 329.75
  Q 590.25 331.75 590.23 333.75
  Q 590.20 336.67 588.13 337.59
  Q 586.06 338.51 584.73 336.84
  Q 583.26 334.98 583.74 331.02
  C 583.86 330.06 583.58 329.09 582.97 328.34
  Q 582.03 327.18 581.74 329.53
  Q 581.50 331.50 581.32 333.48
  Q 581.08 336.16 582.54 337.92
  Q 583.85 339.50 586.27 339.86"
/>
<path stroke="#865216" vector-effect="non-scaling-stroke" d="
  M 630.71 339.48
  Q 631.49 340.51 632.16 339.60
  Q 632.50 339.14 632.50 338.30
  Q 632.50 336.78 632.50 335.26
  Q 632.50 333.46 632.08 332.29
  Q 630.16 326.86 624.25 328.75
  Q 621.95 329.49 621.15 331.76
  Q 620.52 333.54 621.17 335.74
  Q 622.96 341.85 629.98 339.24
  C 630.23 339.15 630.53 339.24 630.71 339.48"
/>
<path stroke="#865216" vector-effect="non-scaling-stroke" d="
  M 641.23 337.94
  Q 639.15 338.47 636.43 337.03
  Q 634.60 336.05 635.15 338.05
  Q 635.42 339.00 636.55 339.37
  Q 636.79 339.45 638.31 339.84
  Q 640.20 340.33 641.94 339.70
  Q 643.70 339.07 644.30 337.51
  Q 645.14 335.31 642.34 334.01
  Q 640.72 333.27 639.04 332.65
  Q 636.50 331.73 638.56 330.31
  Q 640.01 329.32 642.44 331.06
  Q 643.82 332.05 644.12 330.81
  C 644.19 330.51 644.08 330.19 643.83 329.95
  Q 640.83 327.06 637.34 328.94
  Q 635.96 329.69 635.54 330.88
  Q 634.92 332.64 636.75 333.75
  Q 637.45 334.17 641.27 335.55
  Q 642.65 336.05 642.31 337.04
  Q 642.07 337.72 641.23 337.94"
/>
<path stroke="#865216" vector-effect="non-scaling-stroke" d="
  M 657.44 338.81
  Q 660.67 341.30 664.21 339.01
  Q 664.77 338.66 664.90 338.14
  Q 665.14 337.19 664.06 337.08
  C 663.79 337.05 663.47 337.14 663.16 337.35
  Q 661.42 338.51 660.06 337.94
  Q 656.42 336.41 657.23 333.36
  Q 657.75 331.38 659.47 330.70
  Q 661.43 329.92 663.42 331.61
  Q 665.39 333.28 661.44 333.23
  C 660.86 333.22 660.32 333.50 659.97 333.96
  Q 659.11 335.11 661.50 335.19
  Q 663.50 335.25 665.24 335.25
  Q 667.58 335.25 666.69 333.08
  Q 664.12 326.80 659.19 328.77
  Q 656.24 329.94 655.22 332.65
  Q 653.92 336.10 657.44 338.81"
/>
<path stroke="#865216" vector-effect="non-scaling-stroke" d="
  M 343.19 304.33
  Q 366.34 304.72 390.63 304.75
  C 391.29 304.75 391.88 304.32 392.10 303.68
  L 406.06 262.07
  C 406.14 261.82 405.96 261.56 405.70 261.56
  L 320.86 260.75
  C 320.19 260.74 319.71 261.39 319.92 262.03
  L 333.41 303.71
  C 333.50 304.00 333.77 304.19 334.07 304.20
  Q 338.63 304.25 343.19 304.33"
/>
<path stroke="#844b16" vector-effect="non-scaling-stroke" d="
  M 597.08 265.19
  Q 593.37 263.45 589.25 263.36
  Q 581.13 263.19 573.42 263.25
  C 572.92 263.25 572.51 263.65 572.52 264.13
  L 572.66 278.56
  C 572.67 278.84 572.90 279.08 573.19 279.10
  Q 582.47 279.74 591.71 278.86
  Q 595.88 278.46 597.79 276.72
  Q 601.33 273.49 599.31 267.68
  Q 598.72 265.97 597.08 265.19"
/>
<path stroke="#814317" vector-effect="non-scaling-stroke" d="
  M 686.54 263.75
  L 674.55 287.22
  C 674.42 287.46 674.60 287.75 674.87 287.75
  L 698.06 287.75
  C 698.33 287.75 698.51 287.47 698.39 287.22
  L 687.04 263.76
  Q 686.80 263.25 686.54 263.75"
/>
<path stroke="#98491b" vector-effect="non-scaling-stroke" d="
  M 818.25 274.46
  L 815.79 279.00"
/>
<path stroke="#7f3c17" vector-effect="non-scaling-stroke" d="
  M 815.79 279.00
  L 811.54 287.21
  C 811.41 287.46 811.59 287.75 811.86 287.75
  L 824.00 287.71"
/>
<path stroke="#98491b" vector-effect="non-scaling-stroke" d="
  M 824.00 287.71
  L 831.25 287.71"
/>
<path stroke="#7f3c17" vector-effect="non-scaling-stroke" d="
  M 831.25 287.71
  L 834.85 287.76
  C 835.28 287.76 835.55 287.30 835.36 286.91
  L 824.14 264.07
  Q 823.83 263.45 823.53 264.05
  L 818.25 274.46"
/>
<path stroke="#47130e" vector-effect="non-scaling-stroke" d="
  M 831.25 287.71
  L 818.25 274.46"
/>
<path stroke="#47130e" vector-effect="non-scaling-stroke" d="
  M 824.00 287.71
  Q 824.36 286.45 823.45 285.67
  Q 822.62 284.94 822.52 284.83
  Q 819.53 281.47 815.79 279.00"
/>
<path stroke="#7c3517" vector-effect="non-scaling-stroke" d="
  M 932.78 263.77
  L 920.80 287.20
  C 920.67 287.45 920.86 287.75 921.14 287.75
  L 944.38 287.75
  C 944.62 287.75 944.77 287.50 944.67 287.29
  L 933.24 263.78
  Q 933.02 263.31 932.78 263.77"
/>
<path stroke="#865216" vector-effect="non-scaling-stroke" d="
  M 359.23 285.56
  L 359.46 297.72
  C 359.47 298.15 359.80 298.50 360.21 298.50
  L 363.83 298.50
  C 364.11 298.50 364.33 298.27 364.33 297.98
  L 364.30 285.94
  C 364.30 285.42 364.73 285.00 365.27 285.00
  L 376.91 285.00
  C 377.23 285.00 377.49 284.77 377.50 284.49
  L 377.59 280.79
  C 377.60 280.53 377.30 280.31 376.94 280.30
  L 365.02 280.25
  C 364.72 280.25 364.48 280.02 364.47 279.74
  L 364.27 267.84
  C 364.26 267.46 364.00 267.15 363.68 267.15
  L 359.99 267.13
  C 359.72 267.13 359.51 267.41 359.50 267.76
  L 359.45 279.68
  C 359.44 279.96 359.21 280.19 358.93 280.20
  L 347.33 280.24
  C 346.84 280.25 346.45 280.58 346.44 281.00
  L 346.42 284.72
  C 346.41 284.97 346.70 285.17 347.06 285.16
  L 358.69 285.04
  C 358.98 285.04 359.22 285.27 359.23 285.56"
/>
<path stroke="#47130e" vector-effect="non-scaling-stroke" d="
  M 671.2050 404.0529
  C 671.10 403.95 670.94 403.95 670.8373 404.0523
  L 656.5430 418.2968
  C 656.44 418.40 656.44 418.56 656.5423 418.6645
  L 670.8150 432.9871
  C 670.92 433.09 671.08 433.09 671.1827 432.9877
  L 685.4770 418.7432
  C 685.58 418.64 685.58 418.48 685.4777 418.3755
  L 671.2050 404.0529"
/>
<path stroke="#47130e" vector-effect="non-scaling-stroke" d="
  M 685.4533 454.1670
  C 685.62 454.00 685.62 453.73 685.4533 453.5589
  L 671.3111 439.4167
  C 671.14 439.25 670.87 439.25 670.7030 439.4167
  L 656.5467 453.5730
  C 656.38 453.74 656.38 454.01 656.5467 454.1811
  L 670.6889 468.3233
  C 670.86 468.49 671.13 468.49 671.2970 468.3233
  L 685.4533 454.1670"
/>
<path stroke="#865216" vector-effect="non-scaling-stroke" d="
  M 520.17 334.16
  C 520.17 332.08 518.49 330.40 516.41 330.40
  C 514.33 330.40 512.65 332.08 512.65 334.16
  C 512.65 336.24 514.33 337.92 516.41 337.92
  C 518.49 337.92 520.17 336.24 520.17 334.16"
/>
<path stroke="#9f5f1b" vector-effect="non-scaling-stroke" d="
  M 569.29 332.50
  Q 567.64 336.03 571.08 337.64
  Q 572.49 338.30 573.79 337.50"
/>
<path stroke="#865216" vector-effect="non-scaling-stroke" d="
  M 573.79 337.50
  Q 576.72 336.13 576.19 333.62
  Q 575.76 331.61 573.85 330.65
  Q 571.27 329.35 569.29 332.50"
/>
<path stroke="#47130e" vector-effect="non-scaling-stroke" d="
  M 573.79 337.50
  Q 573.17 333.58 569.29 332.50"
/>
<path stroke="#865216" vector-effect="non-scaling-stroke" d="
  M 630.33 334.16
  C 630.33 332.08 628.65 330.40 626.57 330.40
  C 624.49 330.40 622.81 332.08 622.81 334.16
  C 622.81 336.24 624.49 337.92 626.57 337.92
  C 628.65 337.92 630.33 336.24 630.33 334.16"
/>
<path stroke="#865216" vector-effect="non-scaling-stroke" d="
  M 358.53 348.46
  C 358.53 344.91 355.66 342.04 352.11 342.04
  C 348.56 342.04 345.69 344.91 345.69 348.46
  C 345.69 352.01 348.56 354.88 352.11 354.88
  C 355.66 354.88 358.53 352.01 358.53 348.46"
/>
<path stroke="#865216" vector-effect="non-scaling-stroke" d="
  M 397.02 348.67
  C 397.02 345.10 394.13 342.21 390.56 342.21
  C 386.99 342.21 384.10 345.10 384.10 348.67
  C 384.10 352.24 386.99 355.13 390.56 355.13
  C 394.13 355.13 397.02 352.24 397.02 348.67"
/>
</g>
<path fill="#2e0609" d="
  M 0.00 0.00
  Q 635.00 0.00 1270.00 0.00
  Q 1270.00 296.00 1270.00 592.00
  Q 635.00 592.00 0.00 592.00
  Q 0.00 296.00 0.00 0.00
  Z
  M 514.04 284.25
  L 513.77 259.06
  C 513.76 258.39 513.27 257.84 512.66 257.85
  L 507.68 257.87
  C 507.41 257.87 507.18 258.12 507.17 258.44
  Q 506.68 274.85 507.29 291.25
  L 497.86 300.77
  C 497.73 300.90 497.73 301.10 497.86 301.23
  L 525.46 328.75
  Q 525.53 333.43 525.50 338.11
  Q 525.50 338.83 525.73 339.35
  Q 526.43 340.89 527.16 339.71
  Q 527.62 338.96 527.66 338.09
  Q 527.74 336.15 528.16 335.47
  Q 528.63 334.67 529.74 336.01
  Q 531.21 337.79 532.75 339.51
  Q 533.72 340.60 534.50 339.46
  Q 535.63 338.98 536.69 340.06
  Q 567.86 371.70 635.39 438.65
  C 635.59 438.84 635.91 438.84 636.11 438.65
  L 653.00 421.87
  C 653.20 421.66 653.52 421.66 653.72 421.87
  L 667.40 435.78
  C 667.66 436.05 667.65 436.47 667.38 436.74
  L 650.92 453.20
  C 650.62 453.50 650.62 453.99 650.92 454.29
  L 670.64 473.89
  C 670.84 474.09 671.16 474.09 671.36 473.89
  L 691.15 454.35
  C 691.35 454.15 691.35 453.83 691.15 453.63
  L 674.74 436.89
  C 674.31 436.45 674.32 435.75 674.75 435.32
  L 688.26 421.87
  C 688.54 421.59 688.98 421.59 689.25 421.86
  L 706.07 438.59
  C 706.27 438.78 706.59 438.78 706.79 438.59
  L 841.84 303.53
  C 841.97 303.41 842.09 303.10 842.18 302.70
  Q 842.26 302.32 842.71 302.25
  L 844.29 305.47
  C 844.60 306.10 845.20 306.50 845.83 306.49
  L 851.95 306.45
  C 852.18 306.45 852.33 306.20 852.22 305.99
  L 828.32 258.21
  C 828.18 257.93 827.89 257.75 827.58 257.75
  L 820.75 257.75
  C 820.19 257.75 819.67 258.06 819.41 258.55
  L 813.54 269.50
  Q 813.44 269.28 813.26 269.32
  C 813.11 269.36 812.96 269.34 812.89 269.27
  L 706.79 163.41
  C 706.59 163.21 706.27 163.21 706.07 163.40
  L 689.45 179.69
  C 689.11 180.03 688.57 180.05 688.22 179.74
  Q 680.55 172.85 674.58 166.13
  C 674.40 165.92 674.41 165.60 674.61 165.39
  L 691.16 148.36
  C 691.35 148.16 691.35 147.84 691.15 147.65
  L 671.64 128.14
  C 671.29 127.79 670.71 127.79 670.36 128.14
  L 650.85 147.65
  C 650.65 147.85 650.65 148.17 650.84 148.37
  L 667.68 165.30
  C 667.86 165.48 667.87 165.76 667.70 165.93
  L 653.67 180.09
  C 653.48 180.29 653.16 180.29 652.96 180.09
  L 636.18 163.31
  C 635.94 163.07 635.56 163.07 635.32 163.30
  Q 582.05 216.05 529.31 269.31
  Q 521.80 276.91 514.04 284.25
  Z
  M 331.34 309.07
  Q 358.78 309.58 386.79 309.73
  Q 394.08 309.77 394.20 309.78
  Q 398.38 310.26 401.19 312.81
  Q 406.09 317.27 403.62 322.91
  Q 402.41 325.68 400.14 327.47
  Q 397.56 329.51 394.50 329.50
  Q 362.97 329.41 332.18 329.07
  C 331.65 329.06 331.19 329.42 331.06 329.94
  Q 330.01 334.33 332.69 334.09
  Q 333.68 334.00 333.82 334.01
  Q 361.41 334.25 388.99 334.99
  Q 394.84 335.15 399.25 333.50
  Q 408.38 330.08 409.34 321.44
  Q 409.97 315.77 406.87 311.66
  Q 403.89 307.73 398.15 305.31
  C 397.45 305.02 397.10 304.23 397.34 303.50
  L 412.00 259.50
  Q 412.99 256.52 409.75 256.50
  L 319.09 256.00
  C 318.44 256.00 317.85 255.56 317.63 254.90
  L 313.67 243.16
  C 313.39 242.33 312.58 241.77 311.66 241.76
  L 295.42 241.49
  C 295.11 241.49 294.87 241.71 294.86 241.99
  L 294.75 245.94
  C 294.74 246.21 294.99 246.44 295.31 246.46
  L 309.18 247.04
  C 309.49 247.05 309.75 247.25 309.84 247.53
  L 329.26 307.52
  C 329.55 308.43 330.39 309.05 331.34 309.07
  Z
  M 457.99 280.23
  Q 461.40 282.54 463.50 283.00
  Q 467.47 283.87 483.94 286.56
  Q 488.49 287.30 489.32 291.07
  Q 490.02 294.23 488.05 296.99
  Q 486.10 299.73 482.31 300.81
  Q 473.66 303.29 465.97 300.28
  Q 463.13 299.17 461.64 297.38
  Q 459.89 295.28 459.39 292.43
  C 459.33 292.12 459.09 291.89 458.81 291.88
  L 452.86 291.81
  C 452.59 291.80 452.37 292.05 452.39 292.35
  Q 452.76 297.68 455.66 301.09
  Q 458.03 303.87 463.22 305.51
  Q 475.10 309.27 487.30 304.79
  Q 495.07 301.93 496.50 294.50
  Q 497.84 287.54 493.39 283.75
  Q 490.87 281.60 484.06 280.04
  Q 477.88 278.62 471.59 277.70
  Q 465.87 276.86 464.16 276.11
  Q 458.44 273.61 461.63 267.58
  Q 462.88 265.24 465.44 264.07
  Q 473.52 260.36 482.32 263.67
  Q 486.49 265.23 487.97 270.23
  C 488.06 270.53 488.33 270.74 488.63 270.73
  L 494.19 270.71
  C 494.47 270.70 494.69 270.47 494.67 270.20
  Q 494.25 262.15 487.44 259.31
  Q 475.39 254.29 462.00 259.25
  Q 455.48 261.67 453.79 267.91
  Q 452.81 271.53 453.72 274.60
  Q 454.75 278.04 457.99 280.23
  Z
  M 861.49 279.99
  Q 865.57 282.94 869.25 283.50
  Q 885.14 285.91 888.50 286.75
  Q 891.50 287.50 892.76 290.08
  Q 893.86 292.33 892.90 294.96
  Q 891.33 299.28 886.46 300.75
  Q 879.75 302.78 873.10 301.41
  Q 869.02 300.57 866.81 298.67
  Q 864.07 296.32 863.22 292.36
  C 863.14 292.00 862.83 291.75 862.47 291.75
  L 856.65 291.75
  C 856.37 291.75 856.14 291.99 856.16 292.27
  Q 856.52 299.40 861.81 303.19
  Q 865.69 305.96 870.96 306.72
  Q 875.45 307.37 880.55 307.13
  Q 887.42 306.81 893.45 303.53
  Q 897.00 301.60 898.61 298.93
  Q 900.46 295.85 900.53 292.00
  Q 900.66 285.00 894.40 282.15
  Q 889.86 280.09 884.93 279.34
  Q 877.44 278.19 869.98 276.83
  Q 864.87 275.90 864.48 271.36
  Q 864.32 269.51 865.10 267.74
  Q 866.01 265.71 867.56 264.81
  Q 875.69 260.15 885.58 263.37
  Q 890.17 264.87 891.62 269.92
  C 891.76 270.42 892.21 270.77 892.71 270.76
  L 897.93 270.70
  C 898.21 270.70 898.44 270.46 898.43 270.18
  Q 898.25 262.68 892.19 259.81
  Q 879.93 254.01 865.94 259.19
  Q 859.69 261.50 857.73 267.42
  Q 856.55 270.99 857.37 274.15
  Q 858.29 277.68 861.49 279.99
  Z
  M 947.91 294.01
  L 953.72 306.03
  C 953.86 306.32 954.15 306.50 954.46 306.50
  L 961.04 306.50
  C 961.38 306.50 961.60 306.14 961.45 305.84
  L 937.41 258.25
  C 937.27 257.97 936.99 257.79 936.69 257.79
  L 929.30 257.80
  C 929.01 257.80 928.73 257.97 928.59 258.25
  L 904.17 305.70
  C 903.98 306.07 904.25 306.50 904.66 306.50
  L 910.27 306.50
  C 910.61 306.50 910.92 306.31 911.07 306.02
  L 917.12 294.27
  C 917.36 293.80 917.83 293.50 918.35 293.50
  L 947.19 293.56
  C 947.50 293.56 947.78 293.73 947.91 294.01
  Z
  M 975.81 299.95
  L 975.75 258.41
  C 975.75 258.05 975.45 257.75 975.09 257.75
  L 969.44 257.75
  C 969.16 257.75 968.93 257.98 968.93 258.27
  L 968.94 305.99
  C 968.94 306.27 969.17 306.50 969.45 306.50
  L 1002.98 306.50
  C 1003.27 306.50 1003.50 306.27 1003.50 305.98
  L 1003.50 301.05
  C 1003.50 300.75 1003.25 300.50 1002.94 300.50
  L 976.30 300.44
  C 976.03 300.44 975.81 300.22 975.81 299.95
  Z
  M 1019.32 283.56
  L 1045.69 283.44
  C 1045.98 283.44 1046.21 283.21 1046.21 282.93
  L 1046.23 278.36
  C 1046.23 278.02 1045.95 277.75 1045.61 277.75
  L 1019.42 277.75
  C 1019.05 277.75 1018.75 277.45 1018.75 277.08
  L 1018.75 264.16
  C 1018.75 263.80 1019.05 263.50 1019.41 263.50
  L 1047.85 263.50
  C 1048.13 263.50 1048.36 263.25 1048.35 262.95
  L 1048.34 258.27
  C 1048.33 257.98 1048.12 257.75 1047.86 257.75
  L 1012.81 257.75
  C 1012.50 257.75 1012.25 258.00 1012.25 258.31
  L 1012.25 305.69
  C 1012.25 306.14 1012.61 306.50 1013.06 306.50
  L 1048.73 306.50
  C 1049.02 306.50 1049.25 306.27 1049.25 305.98
  L 1049.25 301.13
  C 1049.25 300.64 1048.85 300.25 1048.35 300.24
  L 1019.44 300.07
  C 1019.15 300.07 1018.92 299.84 1018.91 299.56
  L 1018.80 284.06
  C 1018.79 283.79 1019.03 283.56 1019.32 283.56
  Z
  M 466.26 335.54
  Q 464.51 330.42 463.20 325.01
  Q 462.69 322.91 461.38 323.92
  C 461.15 324.09 460.97 324.37 460.87 324.73
  L 457.97 335.11
  Q 457.64 336.32 457.32 335.10
  Q 456.02 330.16 454.36 324.88
  Q 454.15 324.20 453.83 323.85
  Q 452.99 322.94 452.44 324.04
  C 452.31 324.30 452.29 324.64 452.39 324.98
  Q 454.38 332.02 456.66 338.98
  Q 456.85 339.54 457.16 339.77
  Q 457.67 340.16 458.22 339.84
  Q 458.65 339.58 458.84 338.83
  Q 460.28 333.28 461.75 327.73
  Q 462.04 326.64 462.33 327.73
  Q 463.74 333.25 465.21 338.80
  Q 465.65 340.46 466.65 339.88
  Q 467.14 339.59 467.41 338.79
  Q 471.44 326.91 471.75 324.50
  Q 471.92 323.20 470.80 323.25
  C 470.50 323.26 470.24 323.47 470.15 323.78
  L 466.75 335.52
  Q 466.52 336.29 466.26 335.54
  Z
  M 498.91 329.15
  Q 498.30 328.74 497.64 328.40
  Q 496.75 327.95 495.77 328.05
  Q 490.65 328.59 491.08 334.26
  Q 491.23 336.19 491.25 338.14
  Q 491.25 338.91 491.45 339.34
  Q 491.91 340.37 492.80 339.75
  C 493.05 339.58 493.20 339.28 493.21 338.94
  L 493.24 332.62
  C 493.24 331.60 493.88 330.70 494.83 330.40
  Q 498.29 329.29 498.24 333.50
  Q 498.21 336.22 498.30 338.94
  C 498.31 339.27 498.47 339.57 498.74 339.71
  Q 500.15 340.48 500.26 338.49
  Q 500.44 335.28 500.55 332.06
  C 500.56 331.73 500.69 331.42 500.91 331.20
  Q 503.91 328.27 505.31 332.69
  Q 505.69 333.88 505.53 338.15
  Q 505.50 338.87 505.66 339.33
  Q 506.14 340.67 507.13 339.57
  C 507.33 339.35 507.45 339.04 507.48 338.68
  Q 507.88 332.87 507.25 331.50
  Q 504.72 326.02 499.72 329.17
  C 499.47 329.33 499.15 329.32 498.91 329.15
  Z
  M 479.66 332.02
  Q 480.67 333.29 479.05 333.27
  Q 475.22 333.22 476.04 334.78
  C 476.17 335.03 476.47 335.20 476.82 335.23
  Q 478.03 335.33 479.22 335.47
  Q 483.80 336.02 481.82 332.09
  Q 479.54 327.57 475.73 328.45
  Q 472.65 329.16 471.25 332.24
  Q 469.57 335.95 473.17 338.75
  Q 474.71 339.95 476.22 339.99
  Q 477.86 340.03 479.56 339.06
  Q 481.52 337.95 480.02 337.24
  C 479.76 337.12 479.43 337.13 479.11 337.27
  Q 473.73 339.62 472.88 334.05
  C 472.83 333.74 472.88 333.41 473.04 333.11
  Q 476.01 327.47 479.66 332.02
  Z
  M 520.14 339.31
  Q 522.31 340.90 522.31 338.26
  Q 522.31 336.36 522.32 336.23
  Q 522.46 333.41 521.94 332.31
  Q 519.62 327.44 515.19 328.51
  Q 512.79 329.10 511.44 330.90
  Q 509.81 333.07 510.75 335.75
  Q 512.96 342.07 519.30 339.21
  C 519.57 339.09 519.89 339.13 520.14 339.31
  Z
  M 363.69 348.31
  C 363.69 341.94 358.53 336.78 352.16 336.78
  C 345.79 336.78 340.63 341.94 340.63 348.31
  C 340.63 354.68 345.79 359.84 352.16 359.84
  C 358.53 359.84 363.69 354.68 363.69 348.31
  Z
  M 389.4676 360.3704
  C 395.78 360.96 401.37 356.25 401.9610 349.8695
  C 402.55 343.48 397.92 337.83 391.6124 337.2496
  C 385.30 336.66 379.71 341.37 379.1190 347.7505
  C 378.53 354.14 383.16 359.79 389.4676 360.3704
  Z"
/>
<path fill="#602012" d="
  M 813.54 269.50
  L 811.50 273.29
  Q 810.90 273.28 810.19 272.56
  Q 758.44 220.81 706.66 169.04
  C 706.47 168.84 706.15 168.85 705.95 169.05
  L 692.14 183.11
  C 691.92 183.33 691.92 183.67 692.14 183.89
  Q 731.39 223.36 770.94 262.81
  Q 771.84 263.72 772.50 263.79
  L 770.50 267.79
  L 770.13 267.75
  C 769.85 267.72 769.62 267.62 769.48 267.48
  L 689.10 186.86
  C 688.91 186.66 688.59 186.66 688.39 186.85
  L 671.36 203.65
  C 671.16 203.84 670.84 203.84 670.64 203.65
  L 653.74 186.86
  C 653.54 186.66 653.22 186.66 653.02 186.86
  L 582.66 257.09
  C 582.56 257.19 582.50 257.33 582.50 257.48
  L 582.50 257.71
  L 575.25 257.71
  Q 575.46 257.55 575.70 257.48
  Q 576.32 257.31 576.53 257.10
  L 649.83 183.92
  C 650.03 183.72 650.04 183.39 649.84 183.19
  L 636.22 169.36
  C 635.93 169.06 635.44 169.06 635.14 169.36
  Q 591.64 212.64 548.15 256.15
  Q 547.52 256.77 547.75 257.71
  Q 543.87 256.73 544.46 260.25
  Q 528.47 275.55 515.56 289.06
  Q 514.99 289.66 514.29 289.50
  L 514.04 284.25
  Q 521.80 276.91 529.31 269.31
  Q 582.05 216.05 635.32 163.30
  C 635.56 163.07 635.94 163.07 636.18 163.31
  L 652.96 180.09
  C 653.16 180.29 653.48 180.29 653.67 180.09
  L 667.70 165.93
  C 667.87 165.76 667.86 165.48 667.68 165.30
  L 650.84 148.37
  C 650.65 148.17 650.65 147.85 650.85 147.65
  L 670.36 128.14
  C 670.71 127.79 671.29 127.79 671.64 128.14
  L 691.15 147.65
  C 691.35 147.84 691.35 148.16 691.16 148.36
  L 674.61 165.39
  C 674.41 165.60 674.40 165.92 674.58 166.13
  Q 680.55 172.85 688.22 179.74
  C 688.57 180.05 689.11 180.03 689.45 179.69
  L 706.07 163.40
  C 706.27 163.21 706.59 163.21 706.79 163.41
  L 812.89 269.27
  C 812.96 269.34 813.11 269.36 813.26 269.32
  Q 813.44 269.28 813.54 269.50
  Z
  M 671.2970 133.6667
  C 671.13 133.50 670.87 133.50 670.7030 133.6667
  L 656.5467 147.8230
  C 656.38 147.99 656.38 148.25 656.5467 148.4170
  L 670.7030 162.5733
  C 670.87 162.74 671.13 162.74 671.2970 162.5733
  L 685.4533 148.4170
  C 685.62 148.25 685.62 147.99 685.4533 147.8230
  L 671.2970 133.6667
  Z
  M 671.1980 169.0367
  C 671.09 168.93 670.92 168.93 670.8162 169.0367
  L 656.5467 183.3062
  C 656.44 183.41 656.44 183.58 656.5467 183.6880
  L 670.8020 197.9433
  C 670.91 198.05 671.08 198.05 671.1838 197.9433
  L 685.4533 183.6738
  C 685.56 183.57 685.56 183.40 685.4533 183.2920
  L 671.1980 169.0367
  Z"
/>
<rect fill="#2e0609" x="-10.43" y="-10.43" transform="translate(671.00,148.12) rotate(-45.0)" width="20.86" height="20.86" rx="0.42"/>
<rect fill="#2e0609" x="-10.36" y="-10.35" transform="translate(671.00,183.49) rotate(-45.0)" width="20.72" height="20.70" rx="0.27"/>
<path fill="#2e0609" d="
  M 811.50 273.29
  L 801.46 293.00
  L 787.04 279.25
  L 787.00 258.60
  C 787.00 258.13 786.62 257.75 786.15 257.75
  L 776.12 257.75
  C 775.81 257.75 775.53 257.93 775.38 258.22
  L 772.50 263.79
  Q 771.84 263.72 770.94 262.81
  Q 731.39 223.36 692.14 183.89
  C 691.92 183.67 691.92 183.33 692.14 183.11
  L 705.95 169.05
  C 706.15 168.85 706.47 168.84 706.66 169.04
  Q 758.44 220.81 810.19 272.56
  Q 810.90 273.28 811.50 273.29
  Z"
/>
<path fill="#2e0609" d="
  M 575.25 257.71
  L 566.69 257.75
  C 566.31 257.75 566.00 258.05 566.00 258.43
  L 565.96 268.25
  Q 565.06 268.46 564.19 269.44
  Q 560.02 274.07 553.06 280.81
  Q 552.17 281.68 551.29 281.50
  L 551.25 258.26
  C 551.25 257.97 551.01 257.73 550.71 257.73
  L 547.75 257.71
  Q 547.52 256.77 548.15 256.15
  Q 591.64 212.64 635.14 169.36
  C 635.44 169.06 635.93 169.06 636.22 169.36
  L 649.84 183.19
  C 650.04 183.39 650.03 183.72 649.83 183.92
  L 576.53 257.10
  Q 576.32 257.31 575.70 257.48
  Q 575.46 257.55 575.25 257.71
  Z"
/>
<path fill="#2e0609" d="
  M 770.50 267.79
  L 755.05 299.07
  Q 754.67 299.85 754.29 299.07
  L 734.41 258.75
  C 734.11 258.14 733.49 257.75 732.81 257.75
  L 723.00 257.75
  C 722.72 257.75 722.50 257.97 722.50 258.25
  L 722.56 305.70
  C 722.56 306.03 722.78 306.29 723.06 306.30
  L 728.32 306.36
  C 728.70 306.37 729.00 306.03 729.01 305.60
  L 729.26 263.60
  Q 729.27 262.46 729.77 263.48
  L 750.57 305.90
  C 750.75 306.27 751.13 306.50 751.53 306.50
  L 757.75 306.50
  C 758.11 306.50 758.44 306.30 758.60 305.98
  L 779.92 263.10
  Q 780.50 261.94 780.50 263.24
  L 780.50 305.94
  C 780.50 306.25 780.75 306.50 781.06 306.50
  L 786.45 306.50
  C 786.75 306.50 787.00 306.25 787.00 305.94
  L 787.04 284.75
  Q 792.52 290.26 797.94 295.81
  Q 798.76 296.65 799.50 296.54
  L 794.98 305.80
  C 794.85 306.06 794.97 306.37 795.22 306.39
  L 797.25 306.54
  Q 797.09 307.16 795.75 308.50
  Q 742.52 361.52 689.10 415.03
  C 688.84 415.29 688.42 415.29 688.15 415.03
  L 671.36 398.24
  C 671.16 398.04 670.84 398.04 670.64 398.24
  L 653.67 415.09
  C 653.48 415.28 653.16 415.28 652.96 415.08
  Q 615.01 377.14 577.00 339.25
  Q 576.59 338.85 576.71 338.25
  Q 578.36 336.38 578.31 334.12
  Q 578.26 332.12 576.75 330.33
  Q 573.35 326.30 568.25 330.04
  Q 566.80 329.99 566.37 328.73
  Q 566.19 328.20 565.89 327.91
  L 542.21 304.50
  Q 551.36 298.96 551.29 288.00
  Q 551.95 288.18 552.30 287.80
  Q 558.89 280.66 565.96 274.00
  L 566.06 305.69
  C 566.06 306.02 566.27 306.28 566.54 306.29
  L 571.88 306.39
  C 572.22 306.40 572.50 306.09 572.50 305.71
  L 572.50 285.56
  C 572.50 285.27 572.73 285.04 573.02 285.03
  Q 581.34 284.74 589.12 285.27
  Q 593.11 285.55 594.70 286.48
  Q 597.44 288.08 597.98 291.75
  Q 598.95 298.43 600.59 305.38
  C 600.74 306.04 601.33 306.50 602.01 306.50
  L 607.78 306.50
  C 608.02 306.50 608.19 306.25 608.10 306.03
  Q 606.74 302.66 606.20 299.17
  Q 605.38 293.84 603.85 288.68
  Q 603.03 285.94 601.91 284.75
  Q 600.31 283.07 597.81 282.64
  Q 597.36 282.56 597.79 282.43
  Q 601.76 281.24 604.24 278.35
  Q 606.50 275.72 606.82 271.61
  Q 607.73 260.21 595.25 258.00
  Q 593.01 257.60 582.50 257.71
  L 582.50 257.48
  C 582.50 257.33 582.56 257.19 582.66 257.09
  L 653.02 186.86
  C 653.22 186.66 653.54 186.66 653.74 186.86
  L 670.64 203.65
  C 670.84 203.84 671.16 203.84 671.36 203.65
  L 688.39 186.85
  C 688.59 186.66 688.91 186.66 689.10 186.86
  L 769.48 267.48
  C 769.62 267.62 769.85 267.72 770.13 267.75
  L 770.50 267.79
  Z
  M 636.18 279.37
  L 618.88 258.33
  C 618.66 258.06 618.36 257.90 618.06 257.89
  L 610.29 257.80
  Q 609.33 257.79 609.96 258.54
  L 632.20 285.38
  C 632.57 285.83 632.77 286.42 632.78 287.05
  L 632.92 305.81
  C 632.92 306.11 633.15 306.35 633.44 306.36
  L 639.19 306.47
  C 639.46 306.48 639.69 306.24 639.69 305.94
  L 639.75 286.15
  C 639.75 285.75 639.88 285.37 640.13 285.07
  L 661.84 258.44
  Q 662.41 257.75 661.52 257.75
  L 654.74 257.75
  C 654.04 257.75 653.37 258.09 652.93 258.66
  L 636.81 279.37
  C 636.65 279.57 636.34 279.57 636.18 279.37
  Z
  M 701.66 294.01
  L 707.47 306.03
  C 707.61 306.32 707.90 306.50 708.21 306.50
  L 715.08 306.50
  C 715.32 306.50 715.47 306.25 715.36 306.04
  L 691.16 258.26
  C 691.02 257.98 690.74 257.80 690.44 257.80
  L 683.22 257.75
  C 682.88 257.75 682.57 257.94 682.42 258.24
  L 657.97 305.81
  C 657.85 306.05 658.00 306.33 658.24 306.33
  L 663.89 306.36
  C 664.39 306.37 664.88 306.04 665.15 305.51
  L 671.08 294.00
  C 671.22 293.73 671.50 293.56 671.81 293.56
  L 700.94 293.56
  C 701.25 293.56 701.53 293.73 701.66 294.01
  Z
  M 616.05 330.61
  Q 618.80 330.81 617.79 329.16
  C 617.64 328.92 617.34 328.79 617.01 328.81
  Q 615.20 328.94 615.36 327.24
  Q 615.47 326.05 615.40 325.76
  Q 615.10 324.46 613.88 324.96
  C 613.61 325.07 613.42 325.35 613.40 325.68
  Q 612.72 333.80 613.50 337.00
  Q 614.13 339.60 617.18 339.90
  C 617.54 339.94 617.88 339.85 618.12 339.66
  Q 619.47 338.63 616.75 337.38
  C 615.98 337.03 615.49 336.29 615.50 335.48
  L 615.54 331.06
  C 615.55 330.79 615.78 330.59 616.05 330.61
  Z
  M 650.55 330.65
  Q 652.92 331.00 652.57 329.29
  C 652.52 329.03 652.25 328.86 651.94 328.89
  Q 649.64 329.13 649.88 326.93
  Q 649.99 325.88 649.92 325.56
  Q 649.64 324.29 648.38 324.93
  C 648.08 325.08 647.89 325.37 647.90 325.68
  L 648.00 336.75
  Q 648.02 339.35 651.00 339.75
  Q 654.58 340.23 652.55 338.16
  C 652.36 337.97 652.06 337.82 651.70 337.76
  Q 649.97 337.45 649.97 335.50
  Q 649.96 333.28 650.04 331.06
  C 650.05 330.80 650.29 330.61 650.55 330.65
  Z
  M 596.92 339.81
  Q 598.36 340.17 598.22 338.50
  Q 598.02 336.02 598.50 333.62
  Q 598.80 332.12 599.70 331.32
  Q 600.74 330.39 602.16 330.09
  Q 602.89 329.94 603.24 329.65
  Q 604.20 328.83 603.12 328.26
  Q 602.57 327.96 601.85 328.10
  Q 598.30 328.76 596.86 331.75
  Q 596.23 333.06 596.24 335.35
  Q 596.24 337.23 596.31 339.05
  C 596.32 339.41 596.57 339.72 596.92 339.81
  Z
  M 586.27 339.86
  Q 590.20 340.45 591.71 336.80
  Q 592.26 335.45 592.26 333.11
  Q 592.26 331.22 592.20 329.32
  C 592.19 328.98 592.04 328.68 591.79 328.52
  Q 590.40 327.61 590.32 329.75
  Q 590.25 331.75 590.23 333.75
  Q 590.20 336.67 588.13 337.59
  Q 586.06 338.51 584.73 336.84
  Q 583.26 334.98 583.74 331.02
  C 583.86 330.06 583.58 329.09 582.97 328.34
  Q 582.03 327.18 581.74 329.53
  Q 581.50 331.50 581.32 333.48
  Q 581.08 336.16 582.54 337.92
  Q 583.85 339.50 586.27 339.86
  Z
  M 630.71 339.48
  Q 631.49 340.51 632.16 339.60
  Q 632.50 339.14 632.50 338.30
  Q 632.50 336.78 632.50 335.26
  Q 632.50 333.46 632.08 332.29
  Q 630.16 326.86 624.25 328.75
  Q 621.95 329.49 621.15 331.76
  Q 620.52 333.54 621.17 335.74
  Q 622.96 341.85 629.98 339.24
  C 630.23 339.15 630.53 339.24 630.71 339.48
  Z
  M 641.23 337.94
  Q 639.15 338.47 636.43 337.03
  Q 634.60 336.05 635.15 338.05
  Q 635.42 339.00 636.55 339.37
  Q 636.79 339.45 638.31 339.84
  Q 640.20 340.33 641.94 339.70
  Q 643.70 339.07 644.30 337.51
  Q 645.14 335.31 642.34 334.01
  Q 640.72 333.27 639.04 332.65
  Q 636.50 331.73 638.56 330.31
  Q 640.01 329.32 642.44 331.06
  Q 643.82 332.05 644.12 330.81
  C 644.19 330.51 644.08 330.19 643.83 329.95
  Q 640.83 327.06 637.34 328.94
  Q 635.96 329.69 635.54 330.88
  Q 634.92 332.64 636.75 333.75
  Q 637.45 334.17 641.27 335.55
  Q 642.65 336.05 642.31 337.04
  Q 642.07 337.72 641.23 337.94
  Z
  M 657.44 338.81
  Q 660.67 341.30 664.21 339.01
  Q 664.77 338.66 664.90 338.14
  Q 665.14 337.19 664.06 337.08
  C 663.79 337.05 663.47 337.14 663.16 337.35
  Q 661.42 338.51 660.06 337.94
  Q 656.42 336.41 657.23 333.36
  Q 657.75 331.38 659.47 330.70
  Q 661.43 329.92 663.42 331.61
  Q 665.39 333.28 661.44 333.23
  C 660.86 333.22 660.32 333.50 659.97 333.96
  Q 659.11 335.11 661.50 335.19
  Q 663.50 335.25 665.24 335.25
  Q 667.58 335.25 666.69 333.08
  Q 664.12 326.80 659.19 328.77
  Q 656.24 329.94 655.22 332.65
  Q 653.92 336.10 657.44 338.81
  Z"
/>
<path fill="#de9d23" d="
  M 331.34 309.07
  C 330.39 309.05 329.55 308.43 329.26 307.52
  L 309.84 247.53
  C 309.75 247.25 309.49 247.05 309.18 247.04
  L 295.31 246.46
  C 294.99 246.44 294.74 246.21 294.75 245.94
  L 294.86 241.99
  C 294.87 241.71 295.11 241.49 295.42 241.49
  L 311.66 241.76
  C 312.58 241.77 313.39 242.33 313.67 243.16
  L 317.63 254.90
  C 317.85 255.56 318.44 256.00 319.09 256.00
  L 409.75 256.50
  Q 412.99 256.52 412.00 259.50
  L 397.34 303.50
  C 397.10 304.23 397.45 305.02 398.15 305.31
  Q 403.89 307.73 406.87 311.66
  Q 409.97 315.77 409.34 321.44
  Q 408.38 330.08 399.25 333.50
  Q 394.84 335.15 388.99 334.99
  Q 361.41 334.25 333.82 334.01
  Q 333.68 334.00 332.69 334.09
  Q 330.01 334.33 331.06 329.94
  C 331.19 329.42 331.65 329.06 332.18 329.07
  Q 362.97 329.41 394.50 329.50
  Q 397.56 329.51 400.14 327.47
  Q 402.41 325.68 403.62 322.91
  Q 406.09 317.27 401.19 312.81
  Q 398.38 310.26 394.20 309.78
  Q 394.08 309.77 386.79 309.73
  Q 358.78 309.58 331.34 309.07
  Z
  M 343.19 304.33
  Q 366.34 304.72 390.63 304.75
  C 391.29 304.75 391.88 304.32 392.10 303.68
  L 406.06 262.07
  C 406.14 261.82 405.96 261.56 405.70 261.56
  L 320.86 260.75
  C 320.19 260.74 319.71 261.39 319.92 262.03
  L 333.41 303.71
  C 333.50 304.00 333.77 304.19 334.07 304.20
  Q 338.63 304.25 343.19 304.33
  Z"
/>
<path fill="#de9d23" d="
  M 457.99 280.23
  Q 454.75 278.04 453.72 274.60
  Q 452.81 271.53 453.79 267.91
  Q 455.48 261.67 462.00 259.25
  Q 475.39 254.29 487.44 259.31
  Q 494.25 262.15 494.67 270.20
  C 494.69 270.47 494.47 270.70 494.19 270.71
  L 488.63 270.73
  C 488.33 270.74 488.06 270.53 487.97 270.23
  Q 486.49 265.23 482.32 263.67
  Q 473.52 260.36 465.44 264.07
  Q 462.88 265.24 461.63 267.58
  Q 458.44 273.61 464.16 276.11
  Q 465.87 276.86 471.59 277.70
  Q 477.88 278.62 484.06 280.04
  Q 490.87 281.60 493.39 283.75
  Q 497.84 287.54 496.50 294.50
  Q 495.07 301.93 487.30 304.79
  Q 475.10 309.27 463.22 305.51
  Q 458.03 303.87 455.66 301.09
  Q 452.76 297.68 452.39 292.35
  C 452.37 292.05 452.59 291.80 452.86 291.81
  L 458.81 291.88
  C 459.09 291.89 459.33 292.12 459.39 292.43
  Q 459.89 295.28 461.64 297.38
  Q 463.13 299.17 465.97 300.28
  Q 473.66 303.29 482.31 300.81
  Q 486.10 299.73 488.05 296.99
  Q 490.02 294.23 489.32 291.07
  Q 488.49 287.30 483.94 286.56
  Q 467.47 283.87 463.50 283.00
  Q 461.40 282.54 457.99 280.23
  Z"
/>
<path fill="#cd6b24" d="
  M 861.49 279.99
  Q 858.29 277.68 857.37 274.15
  Q 856.55 270.99 857.73 267.42
  Q 859.69 261.50 865.94 259.19
  Q 879.93 254.01 892.19 259.81
  Q 898.25 262.68 898.43 270.18
  C 898.44 270.46 898.21 270.70 897.93 270.70
  L 892.71 270.76
  C 892.21 270.77 891.76 270.42 891.62 269.92
  Q 890.17 264.87 885.58 263.37
  Q 875.69 260.15 867.56 264.81
  Q 866.01 265.71 865.10 267.74
  Q 864.32 269.51 864.48 271.36
  Q 864.87 275.90 869.98 276.83
  Q 877.44 278.19 884.93 279.34
  Q 889.86 280.09 894.40 282.15
  Q 900.66 285.00 900.53 292.00
  Q 900.46 295.85 898.61 298.93
  Q 897.00 301.60 893.45 303.53
  Q 887.42 306.81 880.55 307.13
  Q 875.45 307.37 870.96 306.72
  Q 865.69 305.96 861.81 303.19
  Q 856.52 299.40 856.16 292.27
  C 856.14 291.99 856.37 291.75 856.65 291.75
  L 862.47 291.75
  C 862.83 291.75 863.14 292.00 863.22 292.36
  Q 864.07 296.32 866.81 298.67
  Q 869.02 300.57 873.10 301.41
  Q 879.75 302.78 886.46 300.75
  Q 891.33 299.28 892.90 294.96
  Q 893.86 292.33 892.76 290.08
  Q 891.50 287.50 888.50 286.75
  Q 885.14 285.91 869.25 283.50
  Q 865.57 282.94 861.49 279.99
  Z"
/>
<path fill="#dc9623" d="
  M 514.04 284.25
  L 514.29 289.50
  Q 514.69 295.39 518.81 298.44
  Q 524.83 302.89 533.00 301.21
  Q 542.11 299.71 543.71 290.75
  Q 544.57 286.54 544.56 282.25
  Q 544.53 271.25 544.46 260.25
  Q 543.87 256.73 547.75 257.71
  L 550.71 257.73
  C 551.01 257.73 551.25 257.97 551.25 258.26
  L 551.29 281.50
  L 551.29 288.00
  Q 551.36 298.96 542.21 304.50
  L 538.50 306.04
  Q 528.50 308.91 519.06 305.69
  Q 511.92 303.25 508.46 296.25
  L 507.29 291.25
  Q 506.68 274.85 507.17 258.44
  C 507.18 258.12 507.41 257.87 507.68 257.87
  L 512.66 257.85
  C 513.27 257.84 513.76 258.39 513.77 259.06
  L 514.04 284.25
  Z"
/>
<path fill="#d98f23" d="
  M 575.25 257.71
  L 582.50 257.71
  Q 593.01 257.60 595.25 258.00
  Q 607.73 260.21 606.82 271.61
  Q 606.50 275.72 604.24 278.35
  Q 601.76 281.24 597.79 282.43
  Q 597.36 282.56 597.81 282.64
  Q 600.31 283.07 601.91 284.75
  Q 603.03 285.94 603.85 288.68
  Q 605.38 293.84 606.20 299.17
  Q 606.74 302.66 608.10 306.03
  C 608.19 306.25 608.02 306.50 607.78 306.50
  L 602.01 306.50
  C 601.33 306.50 600.74 306.04 600.59 305.38
  Q 598.95 298.43 597.98 291.75
  Q 597.44 288.08 594.70 286.48
  Q 593.11 285.55 589.12 285.27
  Q 581.34 284.74 573.02 285.03
  C 572.73 285.04 572.50 285.27 572.50 285.56
  L 572.50 305.71
  C 572.50 306.09 572.22 306.40 571.88 306.39
  L 566.54 306.29
  C 566.27 306.28 566.06 306.02 566.06 305.69
  L 565.96 274.00
  L 565.96 268.25
  L 566.00 258.43
  C 566.00 258.05 566.31 257.75 566.69 257.75
  L 575.25 257.71
  Z
  M 597.08 265.19
  Q 593.37 263.45 589.25 263.36
  Q 581.13 263.19 573.42 263.25
  C 572.92 263.25 572.51 263.65 572.52 264.13
  L 572.66 278.56
  C 572.67 278.84 572.90 279.08 573.19 279.10
  Q 582.47 279.74 591.71 278.86
  Q 595.88 278.46 597.79 276.72
  Q 601.33 273.49 599.31 267.68
  Q 598.72 265.97 597.08 265.19
  Z"
/>
<path fill="#d78724" d="
  M 636.81 279.37
  L 652.93 258.66
  C 653.37 258.09 654.04 257.75 654.74 257.75
  L 661.52 257.75
  Q 662.41 257.75 661.84 258.44
  L 640.13 285.07
  C 639.88 285.37 639.75 285.75 639.75 286.15
  L 639.69 305.94
  C 639.69 306.24 639.46 306.48 639.19 306.47
  L 633.44 306.36
  C 633.15 306.35 632.92 306.11 632.92 305.81
  L 632.78 287.05
  C 632.77 286.42 632.57 285.83 632.20 285.38
  L 609.96 258.54
  Q 609.33 257.79 610.29 257.80
  L 618.06 257.89
  C 618.36 257.90 618.66 258.06 618.88 258.33
  L 636.18 279.37
  C 636.34 279.57 636.65 279.57 636.81 279.37
  Z"
/>
<path fill="#d48024" d="
  M 700.94 293.56
  L 671.81 293.56
  C 671.50 293.56 671.22 293.73 671.08 294.00
  L 665.15 305.51
  C 664.88 306.04 664.39 306.37 663.89 306.36
  L 658.24 306.33
  C 658.00 306.33 657.85 306.05 657.97 305.81
  L 682.42 258.24
  C 682.57 257.94 682.88 257.75 683.22 257.75
  L 690.44 257.80
  C 690.74 257.80 691.02 257.98 691.16 258.26
  L 715.36 306.04
  C 715.47 306.25 715.32 306.50 715.08 306.50
  L 708.21 306.50
  C 707.90 306.50 707.61 306.32 707.47 306.03
  L 701.66 294.01
  C 701.53 293.73 701.25 293.56 700.94 293.56
  Z
  M 686.54 263.75
  L 674.55 287.22
  C 674.42 287.46 674.60 287.75 674.87 287.75
  L 698.06 287.75
  C 698.33 287.75 698.51 287.47 698.39 287.22
  L 687.04 263.76
  Q 686.80 263.25 686.54 263.75
  Z"
/>
<path fill="#d27924" d="
  M 770.50 267.79
  L 772.50 263.79
  L 775.38 258.22
  C 775.53 257.93 775.81 257.75 776.12 257.75
  L 786.15 257.75
  C 786.62 257.75 787.00 258.13 787.00 258.60
  L 787.04 279.25
  L 787.04 284.75
  L 787.00 305.94
  C 787.00 306.25 786.75 306.50 786.45 306.50
  L 781.06 306.50
  C 780.75 306.50 780.50 306.25 780.50 305.94
  L 780.50 263.24
  Q 780.50 261.94 779.92 263.10
  L 758.60 305.98
  C 758.44 306.30 758.11 306.50 757.75 306.50
  L 751.53 306.50
  C 751.13 306.50 750.75 306.27 750.57 305.90
  L 729.77 263.48
  Q 729.27 262.46 729.26 263.60
  L 729.01 305.60
  C 729.00 306.03 728.70 306.37 728.32 306.36
  L 723.06 306.30
  C 722.78 306.29 722.56 306.03 722.56 305.70
  L 722.50 258.25
  C 722.50 257.97 722.72 257.75 723.00 257.75
  L 732.81 257.75
  C 733.49 257.75 734.11 258.14 734.41 258.75
  L 754.29 299.07
  Q 754.67 299.85 755.05 299.07
  L 770.50 267.79
  Z"
/>
<path fill="#cf7224" d="
  M 842.71 302.25
  L 838.95 294.14
  C 838.77 293.75 838.40 293.50 837.99 293.50
  L 828.75 293.54
  L 809.05 293.56
  C 808.71 293.56 808.42 293.72 808.28 293.98
  L 806.04 298.25
  L 801.83 305.88
  C 801.67 306.18 801.38 306.37 801.06 306.38
  L 797.25 306.54
  L 795.22 306.39
  C 794.97 306.37 794.85 306.06 794.98 305.80
  L 799.50 296.54
  L 801.46 293.00
  L 811.50 273.29
  L 813.54 269.50
  L 819.41 258.55
  C 819.67 258.06 820.19 257.75 820.75 257.75
  L 827.58 257.75
  C 827.89 257.75 828.18 257.93 828.32 258.21
  L 852.22 305.99
  C 852.33 306.20 852.18 306.45 851.95 306.45
  L 845.83 306.49
  C 845.20 306.50 844.60 306.10 844.29 305.47
  L 842.71 302.25
  Z
  M 818.25 274.46
  L 815.79 279.00
  L 811.54 287.21
  C 811.41 287.46 811.59 287.75 811.86 287.75
  L 824.00 287.71
  L 831.25 287.71
  L 834.85 287.76
  C 835.28 287.76 835.55 287.30 835.36 286.91
  L 824.14 264.07
  Q 823.83 263.45 823.53 264.05
  L 818.25 274.46
  Z"
/>
<path fill="#ca6325" d="
  M 947.19 293.56
  L 918.35 293.50
  C 917.83 293.50 917.36 293.80 917.12 294.27
  L 911.07 306.02
  C 910.92 306.31 910.61 306.50 910.27 306.50
  L 904.66 306.50
  C 904.25 306.50 903.98 306.07 904.17 305.70
  L 928.59 258.25
  C 928.73 257.97 929.01 257.80 929.30 257.80
  L 936.69 257.79
  C 936.99 257.79 937.27 257.97 937.41 258.25
  L 961.45 305.84
  C 961.60 306.14 961.38 306.50 961.04 306.50
  L 954.46 306.50
  C 954.15 306.50 953.86 306.32 953.72 306.03
  L 947.91 294.01
  C 947.78 293.73 947.50 293.56 947.19 293.56
  Z
  M 932.78 263.77
  L 920.80 287.20
  C 920.67 287.45 920.86 287.75 921.14 287.75
  L 944.38 287.75
  C 944.62 287.75 944.77 287.50 944.67 287.29
  L 933.24 263.78
  Q 933.02 263.31 932.78 263.77
  Z"
/>
<path fill="#c85c25" d="
  M 976.30 300.44
  L 1002.94 300.50
  C 1003.25 300.50 1003.50 300.75 1003.50 301.05
  L 1003.50 305.98
  C 1003.50 306.27 1003.27 306.50 1002.98 306.50
  L 969.45 306.50
  C 969.17 306.50 968.94 306.27 968.94 305.99
  L 968.93 258.27
  C 968.93 257.98 969.16 257.75 969.44 257.75
  L 975.09 257.75
  C 975.45 257.75 975.75 258.05 975.75 258.41
  L 975.81 299.95
  C 975.81 300.22 976.03 300.44 976.30 300.44
  Z"
/>
<path fill="#c55525" d="
  M 1018.80 284.06
  L 1018.91 299.56
  C 1018.92 299.84 1019.15 300.07 1019.44 300.07
  L 1048.35 300.24
  C 1048.85 300.25 1049.25 300.64 1049.25 301.13
  L 1049.25 305.98
  C 1049.25 306.27 1049.02 306.50 1048.73 306.50
  L 1013.06 306.50
  C 1012.61 306.50 1012.25 306.14 1012.25 305.69
  L 1012.25 258.31
  C 1012.25 258.00 1012.50 257.75 1012.81 257.75
  L 1047.86 257.75
  C 1048.12 257.75 1048.33 257.98 1048.34 258.27
  L 1048.35 262.95
  C 1048.36 263.25 1048.13 263.50 1047.85 263.50
  L 1019.41 263.50
  C 1019.05 263.50 1018.75 263.80 1018.75 264.16
  L 1018.75 277.08
  C 1018.75 277.45 1019.05 277.75 1019.42 277.75
  L 1045.61 277.75
  C 1045.95 277.75 1046.23 278.02 1046.23 278.36
  L 1046.21 282.93
  C 1046.21 283.21 1045.98 283.44 1045.69 283.44
  L 1019.32 283.56
  C 1019.03 283.56 1018.79 283.79 1018.80 284.06
  Z"
/>
<path fill="#2e0609" d="
  M 544.46 260.25
  Q 544.53 271.25 544.56 282.25
  Q 544.57 286.54 543.71 290.75
  Q 542.35 291.24 540.31 293.31
  Q 534.62 299.10 533.00 301.21
  Q 524.83 302.89 518.81 298.44
  Q 514.69 295.39 514.29 289.50
  Q 514.99 289.66 515.56 289.06
  Q 528.47 275.55 544.46 260.25
  Z"
/>
<path fill="#2e0609" d="
  M 343.19 304.33
  Q 338.63 304.25 334.07 304.20
  C 333.77 304.19 333.50 304.00 333.41 303.71
  L 319.92 262.03
  C 319.71 261.39 320.19 260.74 320.86 260.75
  L 405.70 261.56
  C 405.96 261.56 406.14 261.82 406.06 262.07
  L 392.10 303.68
  C 391.88 304.32 391.29 304.75 390.63 304.75
  Q 366.34 304.72 343.19 304.33
  Z
  M 359.23 285.56
  L 359.46 297.72
  C 359.47 298.15 359.80 298.50 360.21 298.50
  L 363.83 298.50
  C 364.11 298.50 364.33 298.27 364.33 297.98
  L 364.30 285.94
  C 364.30 285.42 364.73 285.00 365.27 285.00
  L 376.91 285.00
  C 377.23 285.00 377.49 284.77 377.50 284.49
  L 377.59 280.79
  C 377.60 280.53 377.30 280.31 376.94 280.30
  L 365.02 280.25
  C 364.72 280.25 364.48 280.02 364.47 279.74
  L 364.27 267.84
  C 364.26 267.46 364.00 267.15 363.68 267.15
  L 359.99 267.13
  C 359.72 267.13 359.51 267.41 359.50 267.76
  L 359.45 279.68
  C 359.44 279.96 359.21 280.19 358.93 280.20
  L 347.33 280.24
  C 346.84 280.25 346.45 280.58 346.44 281.00
  L 346.42 284.72
  C 346.41 284.97 346.70 285.17 347.06 285.16
  L 358.69 285.04
  C 358.98 285.04 359.22 285.27 359.23 285.56
  Z"
/>
<path fill="#2e0609" d="
  M 597.08 265.19
  Q 598.72 265.97 599.31 267.68
  Q 601.33 273.49 597.79 276.72
  Q 595.88 278.46 591.71 278.86
  Q 582.47 279.74 573.19 279.10
  C 572.90 279.08 572.67 278.84 572.66 278.56
  L 572.52 264.13
  C 572.51 263.65 572.92 263.25 573.42 263.25
  Q 581.13 263.19 589.25 263.36
  Q 593.37 263.45 597.08 265.19
  Z"
/>
<path fill="#2e0609" d="
  M 686.54 263.75
  Q 686.80 263.25 687.04 263.76
  L 698.39 287.22
  C 698.51 287.47 698.33 287.75 698.06 287.75
  L 674.87 287.75
  C 674.60 287.75 674.42 287.46 674.55 287.22
  L 686.54 263.75
  Z"
/>
<path fill="#2e0609" d="
  M 932.78 263.77
  Q 933.02 263.31 933.24 263.78
  L 944.67 287.29
  C 944.77 287.50 944.62 287.75 944.38 287.75
  L 921.14 287.75
  C 920.86 287.75 920.67 287.45 920.80 287.20
  L 932.78 263.77
  Z"
/>
<path fill="#2e0609" d="
  M 831.25 287.71
  L 818.25 274.46
  L 823.53 264.05
  Q 823.83 263.45 824.14 264.07
  L 835.36 286.91
  C 835.55 287.30 835.28 287.76 834.85 287.76
  L 831.25 287.71
  Z"
/>
<path fill="#de9d23" d="
  M 358.69 285.04
  L 347.06 285.16
  C 346.70 285.17 346.41 284.97 346.42 284.72
  L 346.44 281.00
  C 346.45 280.58 346.84 280.25 347.33 280.24
  L 358.93 280.20
  C 359.21 280.19 359.44 279.96 359.45 279.68
  L 359.50 267.76
  C 359.51 267.41 359.72 267.13 359.99 267.13
  L 363.68 267.15
  C 364.00 267.15 364.26 267.46 364.27 267.84
  L 364.47 279.74
  C 364.48 280.02 364.72 280.25 365.02 280.25
  L 376.94 280.30
  C 377.30 280.31 377.60 280.53 377.59 280.79
  L 377.50 284.49
  C 377.49 284.77 377.23 285.00 376.91 285.00
  L 365.27 285.00
  C 364.73 285.00 364.30 285.42 364.30 285.94
  L 364.33 297.98
  C 364.33 298.27 364.11 298.50 363.83 298.50
  L 360.21 298.50
  C 359.80 298.50 359.47 298.15 359.46 297.72
  L 359.23 285.56
  C 359.22 285.27 358.98 285.04 358.69 285.04
  Z"
/>
<path fill="#602012" d="
  M 565.96 268.25
  L 565.96 274.00
  Q 558.89 280.66 552.30 287.80
  Q 551.95 288.18 551.29 288.00
  L 551.29 281.50
  Q 552.17 281.68 553.06 280.81
  Q 560.02 274.07 564.19 269.44
  Q 565.06 268.46 565.96 268.25
  Z"
/>
<path fill="#602012" d="
  M 818.25 274.46
  L 831.25 287.71
  L 824.00 287.71
  Q 824.36 286.45 823.45 285.67
  Q 822.62 284.94 822.52 284.83
  Q 819.53 281.47 815.79 279.00
  L 818.25 274.46
  Z"
/>
<path fill="#2e0609" d="
  M 815.79 279.00
  Q 819.53 281.47 822.52 284.83
  Q 822.62 284.94 823.45 285.67
  Q 824.36 286.45 824.00 287.71
  L 811.86 287.75
  C 811.59 287.75 811.41 287.46 811.54 287.21
  L 815.79 279.00
  Z"
/>
<path fill="#602012" d="
  M 787.04 279.25
  L 801.46 293.00
  L 799.50 296.54
  Q 798.76 296.65 797.94 295.81
  Q 792.52 290.26 787.04 284.75
  L 787.04 279.25
  Z"
/>
<path fill="#602012" d="
  M 543.71 290.75
  Q 542.11 299.71 533.00 301.21
  Q 534.62 299.10 540.31 293.31
  Q 542.35 291.24 543.71 290.75
  Z"
/>
<path fill="#602012" d="
  M 507.29 291.25
  L 508.46 296.25
  L 503.91 300.51
  C 503.62 300.78 503.63 301.26 503.93 301.56
  Q 513.56 311.19 522.56 320.19
  Q 525.09 322.71 526.50 323.29
  Q 524.84 325.68 525.46 328.75
  L 497.86 301.23
  C 497.73 301.10 497.73 300.90 497.86 300.77
  L 507.29 291.25
  Z"
/>
<path fill="#2e0609" d="
  M 828.75 293.54
  L 830.45 293.82
  C 830.87 293.89 831.19 294.00 831.32 294.12
  L 837.87 300.29
  C 838.32 300.71 838.31 301.44 837.84 301.91
  L 707.06 432.57
  C 706.68 432.95 706.07 432.95 705.69 432.57
  L 692.05 418.92
  C 691.85 418.72 691.85 418.40 692.05 418.20
  Q 749.70 360.47 807.17 302.96
  Q 807.24 302.88 808.28 302.02
  Q 809.68 300.86 808.11 299.82
  Q 807.75 299.57 807.42 299.14
  Q 806.89 298.45 806.04 298.25
  L 808.28 293.98
  C 808.42 293.72 808.71 293.56 809.05 293.56
  L 828.75 293.54
  Z"
/>
<path fill="#602012" d="
  M 828.75 293.54
  L 837.99 293.50
  C 838.40 293.50 838.77 293.75 838.95 294.14
  L 842.71 302.25
  Q 842.26 302.32 842.18 302.70
  C 842.09 303.10 841.97 303.41 841.84 303.53
  L 706.79 438.59
  C 706.59 438.78 706.27 438.78 706.07 438.59
  L 689.25 421.86
  C 688.98 421.59 688.54 421.59 688.26 421.87
  L 674.75 435.32
  C 674.32 435.75 674.31 436.45 674.74 436.89
  L 691.15 453.63
  C 691.35 453.83 691.35 454.15 691.15 454.35
  L 671.36 473.89
  C 671.16 474.09 670.84 474.09 670.64 473.89
  L 650.92 454.29
  C 650.62 453.99 650.62 453.50 650.92 453.20
  L 667.38 436.74
  C 667.65 436.47 667.66 436.05 667.40 435.78
  L 653.73 421.86
  C 653.52 421.66 653.20 421.66 653.00 421.87
  L 636.11 438.65
  C 635.91 438.84 635.59 438.84 635.39 438.65
  Q 567.86 371.70 536.69 340.06
  Q 535.63 338.98 534.50 339.46
  Q 533.29 336.83 531.02 334.52
  C 530.44 333.93 530.48 332.98 531.11 332.49
  L 533.25 330.79
  Q 534.16 332.24 535.75 332.79
  Q 535.51 340.23 542.96 340.00
  Q 542.97 340.59 543.69 341.31
  Q 589.19 386.81 634.95 432.57
  C 635.32 432.94 635.93 432.94 636.30 432.57
  L 649.96 418.92
  C 650.19 418.69 650.19 418.31 649.96 418.08
  Q 612.06 380.09 574.39 342.64
  Q 574.30 342.55 573.53 341.97
  Q 572.64 341.29 572.75 340.04
  Q 575.02 339.78 576.71 338.25
  Q 576.59 338.85 577.00 339.25
  Q 615.01 377.14 652.96 415.08
  C 653.16 415.28 653.48 415.28 653.67 415.09
  L 670.64 398.24
  C 670.84 398.04 671.16 398.04 671.36 398.24
  L 688.15 415.03
  C 688.42 415.29 688.84 415.29 689.10 415.03
  Q 742.52 361.52 795.75 308.50
  Q 797.09 307.16 797.25 306.54
  L 801.06 306.38
  C 801.38 306.37 801.67 306.18 801.83 305.88
  L 806.04 298.25
  Q 806.89 298.45 807.42 299.14
  Q 807.75 299.57 808.11 299.82
  Q 809.68 300.86 808.28 302.02
  Q 807.24 302.88 807.17 302.96
  Q 749.70 360.47 692.05 418.20
  C 691.85 418.40 691.85 418.72 692.05 418.92
  L 705.69 432.57
  C 706.07 432.95 706.68 432.95 707.06 432.57
  L 837.84 301.91
  C 838.31 301.44 838.32 300.71 837.87 300.29
  L 831.32 294.12
  C 831.19 294.00 830.87 293.89 830.45 293.82
  L 828.75 293.54
  Z
  M 671.2050 404.0529
  C 671.10 403.95 670.94 403.95 670.8373 404.0523
  L 656.5430 418.2968
  C 656.44 418.40 656.44 418.56 656.5423 418.6645
  L 670.8150 432.9871
  C 670.92 433.09 671.08 433.09 671.1827 432.9877
  L 685.4770 418.7432
  C 685.58 418.64 685.58 418.48 685.4777 418.3755
  L 671.2050 404.0529
  Z
  M 685.4533 454.1670
  C 685.62 454.00 685.62 453.73 685.4533 453.5589
  L 671.3111 439.4167
  C 671.14 439.25 670.87 439.25 670.7030 439.4167
  L 656.5467 453.5730
  C 656.38 453.74 656.38 454.01 656.5467 454.1811
  L 670.6889 468.3233
  C 670.86 468.49 671.13 468.49 671.2970 468.3233
  L 685.4533 454.1670
  Z"
/>
<path fill="#2e0609" d="
  M 508.46 296.25
  Q 511.92 303.25 519.06 305.69
  Q 528.50 308.91 538.50 306.04
  Q 538.57 307.07 539.81 308.19
  Q 550.03 317.40 562.54 331.25
  L 560.63 335.76
  Q 560.20 336.77 559.73 335.76
  Q 558.25 332.56 556.29 329.40
  Q 555.25 327.73 554.67 329.03
  C 554.54 329.32 554.55 329.66 554.71 329.95
  L 559.00 338.08
  C 559.15 338.38 559.19 338.70 559.11 338.99
  Q 558.52 340.97 557.63 342.85
  Q 556.45 345.34 558.46 344.83
  C 558.74 344.76 558.99 344.54 559.13 344.23
  L 564.29 332.75
  L 566.46 333.75
  Q 566.92 339.59 572.75 340.04
  Q 572.64 341.29 573.53 341.97
  Q 574.30 342.55 574.39 342.64
  Q 612.06 380.09 649.96 418.08
  C 650.19 418.31 650.19 418.69 649.96 418.92
  L 636.30 432.57
  C 635.93 432.94 635.32 432.94 634.95 432.57
  Q 589.19 386.81 543.69 341.31
  Q 542.97 340.59 542.96 340.00
  L 544.99 338.92
  C 545.30 338.76 545.52 338.50 545.60 338.21
  Q 546.11 336.37 544.00 337.25
  Q 541.78 338.17 540.16 337.55
  Q 538.55 336.94 537.89 334.96
  Q 536.98 332.22 540.00 330.75
  Q 543.05 329.27 544.77 332.31
  C 544.91 332.56 544.81 332.87 544.56 332.98
  Q 543.47 333.47 542.24 333.33
  C 541.90 333.29 541.58 333.38 541.37 333.58
  Q 539.69 335.16 542.42 335.25
  Q 542.80 335.27 544.08 335.39
  Q 545.70 335.55 547.02 334.72
  C 547.28 334.56 547.43 334.25 547.40 333.93
  Q 547.07 330.25 544.16 328.91
  Q 541.75 327.80 539.33 328.85
  Q 536.87 329.93 535.75 332.79
  Q 534.16 332.24 533.25 330.79
  Q 535.95 327.30 532.00 329.04
  L 527.79 326.25
  Q 528.26 324.10 526.50 323.29
  Q 525.09 322.71 522.56 320.19
  Q 513.56 311.19 503.93 301.56
  C 503.63 301.26 503.62 300.78 503.91 300.51
  L 508.46 296.25
  Z"
/>
<path fill="#602012" d="
  M 542.21 304.50
  L 565.89 327.91
  Q 566.19 328.20 566.37 328.73
  Q 566.80 329.99 568.25 330.04
  Q 566.83 331.64 566.46 333.75
  L 564.29 332.75
  Q 564.82 331.34 565.34 329.94
  Q 565.91 328.43 564.67 328.58
  C 564.33 328.62 564.04 328.81 563.87 329.08
  L 562.54 331.25
  Q 550.03 317.40 539.81 308.19
  Q 538.57 307.07 538.50 306.04
  L 542.21 304.50
  Z"
/>
<path fill="#de9d23" d="
  M 466.26 335.54
  Q 466.52 336.29 466.75 335.52
  L 470.15 323.78
  C 470.24 323.47 470.50 323.26 470.80 323.25
  Q 471.92 323.20 471.75 324.50
  Q 471.44 326.91 467.41 338.79
  Q 467.14 339.59 466.65 339.88
  Q 465.65 340.46 465.21 338.80
  Q 463.74 333.25 462.33 327.73
  Q 462.04 326.64 461.75 327.73
  Q 460.28 333.28 458.84 338.83
  Q 458.65 339.58 458.22 339.84
  Q 457.67 340.16 457.16 339.77
  Q 456.85 339.54 456.66 338.98
  Q 454.38 332.02 452.39 324.98
  C 452.29 324.64 452.31 324.30 452.44 324.04
  Q 452.99 322.94 453.83 323.85
  Q 454.15 324.20 454.36 324.88
  Q 456.02 330.16 457.32 335.10
  Q 457.64 336.32 457.97 335.11
  L 460.87 324.73
  C 460.97 324.37 461.15 324.09 461.38 323.92
  Q 462.69 322.91 463.20 325.01
  Q 464.51 330.42 466.26 335.54
  Z"
/>
<path fill="#de9d23" d="
  M 526.50 323.29
  Q 528.26 324.10 527.79 326.25
  L 527.75 332.17
  Q 527.74 333.06 528.38 332.45
  L 532.00 329.04
  Q 535.95 327.30 533.25 330.79
  L 531.11 332.49
  C 530.48 332.98 530.44 333.93 531.02 334.52
  Q 533.29 336.83 534.50 339.46
  Q 533.72 340.60 532.75 339.51
  Q 531.21 337.79 529.74 336.01
  Q 528.63 334.67 528.16 335.47
  Q 527.74 336.15 527.66 338.09
  Q 527.62 338.96 527.16 339.71
  Q 526.43 340.89 525.73 339.35
  Q 525.50 338.83 525.50 338.11
  Q 525.53 333.43 525.46 328.75
  Q 524.84 325.68 526.50 323.29
  Z"
/>
<path fill="#de9d23" d="
  M 615.54 331.06
  L 615.50 335.48
  C 615.49 336.29 615.98 337.03 616.75 337.38
  Q 619.47 338.63 618.12 339.66
  C 617.88 339.85 617.54 339.94 617.18 339.90
  Q 614.13 339.60 613.50 337.00
  Q 612.72 333.80 613.40 325.68
  C 613.42 325.35 613.61 325.07 613.88 324.96
  Q 615.10 324.46 615.40 325.76
  Q 615.47 326.05 615.36 327.24
  Q 615.20 328.94 617.01 328.81
  C 617.34 328.79 617.64 328.92 617.79 329.16
  Q 618.80 330.81 616.05 330.61
  C 615.78 330.59 615.55 330.79 615.54 331.06
  Z"
/>
<path fill="#de9d23" d="
  M 650.04 331.06
  Q 649.96 333.28 649.97 335.50
  Q 649.97 337.45 651.70 337.76
  C 652.06 337.82 652.36 337.97 652.55 338.16
  Q 654.58 340.23 651.00 339.75
  Q 648.02 339.35 648.00 336.75
  L 647.90 325.68
  C 647.89 325.37 648.08 325.08 648.38 324.93
  Q 649.64 324.29 649.92 325.56
  Q 649.99 325.88 649.88 326.93
  Q 649.64 329.13 651.94 328.89
  C 652.25 328.86 652.52 329.03 652.57 329.29
  Q 652.92 331.00 650.55 330.65
  C 650.29 330.61 650.05 330.80 650.04 331.06
  Z"
/>
<path fill="#602012" d="
  M 527.79 326.25
  L 532.00 329.04
  L 528.38 332.45
  Q 527.74 333.06 527.75 332.17
  L 527.79 326.25
  Z"
/>
<path fill="#de9d23" d="
  M 499.72 329.17
  Q 504.72 326.02 507.25 331.50
  Q 507.88 332.87 507.48 338.68
  C 507.45 339.04 507.33 339.35 507.13 339.57
  Q 506.14 340.67 505.66 339.33
  Q 505.50 338.87 505.53 338.15
  Q 505.69 333.88 505.31 332.69
  Q 503.91 328.27 500.91 331.20
  C 500.69 331.42 500.56 331.73 500.55 332.06
  Q 500.44 335.28 500.26 338.49
  Q 500.15 340.48 498.74 339.71
  C 498.47 339.57 498.31 339.27 498.30 338.94
  Q 498.21 336.22 498.24 333.50
  Q 498.29 329.29 494.83 330.40
  C 493.88 330.70 493.24 331.60 493.24 332.62
  L 493.21 338.94
  C 493.20 339.28 493.05 339.58 492.80 339.75
  Q 491.91 340.37 491.45 339.34
  Q 491.25 338.91 491.25 338.14
  Q 491.23 336.19 491.08 334.26
  Q 490.65 328.59 495.77 328.05
  Q 496.75 327.95 497.64 328.40
  Q 498.30 328.74 498.91 329.15
  C 499.15 329.32 499.47 329.33 499.72 329.17
  Z"
/>
<path fill="#de9d23" d="
  M 596.92 339.81
  C 596.57 339.72 596.32 339.41 596.31 339.05
  Q 596.24 337.23 596.24 335.35
  Q 596.23 333.06 596.86 331.75
  Q 598.30 328.76 601.85 328.10
  Q 602.57 327.96 603.12 328.26
  Q 604.20 328.83 603.24 329.65
  Q 602.89 329.94 602.16 330.09
  Q 600.74 330.39 599.70 331.32
  Q 598.80 332.12 598.50 333.62
  Q 598.02 336.02 598.22 338.50
  Q 598.36 340.17 596.92 339.81
  Z"
/>
<path fill="#de9d23" d="
  M 479.66 332.02
  Q 476.01 327.47 473.04 333.11
  C 472.88 333.41 472.83 333.74 472.88 334.05
  Q 473.73 339.62 479.11 337.27
  C 479.43 337.13 479.76 337.12 480.02 337.24
  Q 481.52 337.95 479.56 339.06
  Q 477.86 340.03 476.22 339.99
  Q 474.71 339.95 473.17 338.75
  Q 469.57 335.95 471.25 332.24
  Q 472.65 329.16 475.73 328.45
  Q 479.54 327.57 481.82 332.09
  Q 483.80 336.02 479.22 335.47
  Q 478.03 335.33 476.82 335.23
  C 476.47 335.20 476.17 335.03 476.04 334.78
  Q 475.22 333.22 479.05 333.27
  Q 480.67 333.29 479.66 332.02
  Z"
/>
<path fill="#de9d23" d="
  M 519.30 339.21
  Q 512.96 342.07 510.75 335.75
  Q 509.81 333.07 511.44 330.90
  Q 512.79 329.10 515.19 328.51
  Q 519.62 327.44 521.94 332.31
  Q 522.46 333.41 522.32 336.23
  Q 522.31 336.36 522.31 338.26
  Q 522.31 340.90 520.14 339.31
  C 519.89 339.13 519.57 339.09 519.30 339.21
  Z
  M 520.17 334.16
  C 520.17 332.08 518.49 330.40 516.41 330.40
  C 514.33 330.40 512.65 332.08 512.65 334.16
  C 512.65 336.24 514.33 337.92 516.41 337.92
  C 518.49 337.92 520.17 336.24 520.17 334.16
  Z"
/>
<path fill="#de9d23" d="
  M 542.96 340.00
  Q 535.51 340.23 535.75 332.79
  Q 536.87 329.93 539.33 328.85
  Q 541.75 327.80 544.16 328.91
  Q 547.07 330.25 547.40 333.93
  C 547.43 334.25 547.28 334.56 547.02 334.72
  Q 545.70 335.55 544.08 335.39
  Q 542.80 335.27 542.42 335.25
  Q 539.69 335.16 541.37 333.58
  C 541.58 333.38 541.90 333.29 542.24 333.33
  Q 543.47 333.47 544.56 332.98
  C 544.81 332.87 544.91 332.56 544.77 332.31
  Q 543.05 329.27 540.00 330.75
  Q 536.98 332.22 537.89 334.96
  Q 538.55 336.94 540.16 337.55
  Q 541.78 338.17 544.00 337.25
  Q 546.11 336.37 545.60 338.21
  C 545.52 338.50 545.30 338.76 544.99 338.92
  L 542.96 340.00
  Z"
/>
<path fill="#de9d23" d="
  M 576.71 338.25
  Q 575.02 339.78 572.75 340.04
  Q 566.92 339.59 566.46 333.75
  Q 566.83 331.64 568.25 330.04
  Q 573.35 326.30 576.75 330.33
  Q 578.26 332.12 578.31 334.12
  Q 578.36 336.38 576.71 338.25
  Z
  M 569.29 332.50
  Q 567.64 336.03 571.08 337.64
  Q 572.49 338.30 573.79 337.50
  Q 576.72 336.13 576.19 333.62
  Q 575.76 331.61 573.85 330.65
  Q 571.27 329.35 569.29 332.50
  Z"
/>
<path fill="#de9d23" d="
  M 582.54 337.92
  Q 581.08 336.16 581.32 333.48
  Q 581.50 331.50 581.74 329.53
  Q 582.03 327.18 582.97 328.34
  C 583.58 329.09 583.86 330.06 583.74 331.02
  Q 583.26 334.98 584.73 336.84
  Q 586.06 338.51 588.13 337.59
  Q 590.20 336.67 590.23 333.75
  Q 590.25 331.75 590.32 329.75
  Q 590.40 327.61 591.79 328.52
  C 592.04 328.68 592.19 328.98 592.20 329.32
  Q 592.26 331.22 592.26 333.11
  Q 592.26 335.45 591.71 336.80
  Q 590.20 340.45 586.27 339.86
  Q 583.85 339.50 582.54 337.92
  Z"
/>
<path fill="#de9d23" d="
  M 629.98 339.24
  Q 622.96 341.85 621.17 335.74
  Q 620.52 333.54 621.15 331.76
  Q 621.95 329.49 624.25 328.75
  Q 630.16 326.86 632.08 332.29
  Q 632.50 333.46 632.50 335.26
  Q 632.50 336.78 632.50 338.30
  Q 632.50 339.14 632.16 339.60
  Q 631.49 340.51 630.71 339.48
  C 630.53 339.24 630.23 339.15 629.98 339.24
  Z
  M 630.33 334.16
  C 630.33 332.08 628.65 330.40 626.57 330.40
  C 624.49 330.40 622.81 332.08 622.81 334.16
  C 622.81 336.24 624.49 337.92 626.57 337.92
  C 628.65 337.92 630.33 336.24 630.33 334.16
  Z"
/>
<path fill="#de9d23" d="
  M 642.31 337.04
  Q 642.65 336.05 641.27 335.55
  Q 637.45 334.17 636.75 333.75
  Q 634.92 332.64 635.54 330.88
  Q 635.96 329.69 637.34 328.94
  Q 640.83 327.06 643.83 329.95
  C 644.08 330.19 644.19 330.51 644.12 330.81
  Q 643.82 332.05 642.44 331.06
  Q 640.01 329.32 638.56 330.31
  Q 636.50 331.73 639.04 332.65
  Q 640.72 333.27 642.34 334.01
  Q 645.14 335.31 644.30 337.51
  Q 643.70 339.07 641.94 339.70
  Q 640.20 340.33 638.31 339.84
  Q 636.79 339.45 636.55 339.37
  Q 635.42 339.00 635.15 338.05
  Q 634.60 336.05 636.43 337.03
  Q 639.15 338.47 641.23 337.94
  Q 642.07 337.72 642.31 337.04
  Z"
/>
<path fill="#de9d23" d="
  M 657.44 338.81
  Q 653.92 336.10 655.22 332.65
  Q 656.24 329.94 659.19 328.77
  Q 664.12 326.80 666.69 333.08
  Q 667.58 335.25 665.24 335.25
  Q 663.50 335.25 661.50 335.19
  Q 659.11 335.11 659.97 333.96
  C 660.32 333.50 660.86 333.22 661.44 333.23
  Q 665.39 333.28 663.42 331.61
  Q 661.43 329.92 659.47 330.70
  Q 657.75 331.38 657.23 333.36
  Q 656.42 336.41 660.06 337.94
  Q 661.42 338.51 663.16 337.35
  C 663.47 337.14 663.79 337.05 664.06 337.08
  Q 665.14 337.19 664.90 338.14
  Q 664.77 338.66 664.21 339.01
  Q 660.67 341.30 657.44 338.81
  Z"
/>
<path fill="#de9d23" d="
  M 562.54 331.25
  L 563.87 329.08
  C 564.04 328.81 564.33 328.62 564.67 328.58
  Q 565.91 328.43 565.34 329.94
  Q 564.82 331.34 564.29 332.75
  L 559.13 344.23
  C 558.99 344.54 558.74 344.76 558.46 344.83
  Q 556.45 345.34 557.63 342.85
  Q 558.52 340.97 559.11 338.99
  C 559.19 338.70 559.15 338.38 559.00 338.08
  L 554.71 329.95
  C 554.55 329.66 554.54 329.32 554.67 329.03
  Q 555.25 327.73 556.29 329.40
  Q 558.25 332.56 559.73 335.76
  Q 560.20 336.77 560.63 335.76
  L 562.54 331.25
  Z"
/>
<circle fill="#2e0609" cx="516.41" cy="334.16" r="3.76"/>
<path fill="#2e0609" d="
  M 573.79 337.50
  Q 573.17 333.58 569.29 332.50
  Q 571.27 329.35 573.85 330.65
  Q 575.76 331.61 576.19 333.62
  Q 576.72 336.13 573.79 337.50
  Z"
/>
<circle fill="#2e0609" cx="626.57" cy="334.16" r="3.76"/>
<path fill="#602012" d="
  M 569.29 332.50
  Q 573.17 333.58 573.79 337.50
  Q 572.49 338.30 571.08 337.64
  Q 567.64 336.03 569.29 332.50
  Z"
/>
<path fill="#de9d23" d="
  M 363.69 348.31
  C 363.69 354.68 358.53 359.84 352.16 359.84
  C 345.79 359.84 340.63 354.68 340.63 348.31
  C 340.63 341.94 345.79 336.78 352.16 336.78
  C 358.53 336.78 363.69 341.94 363.69 348.31
  Z
  M 358.53 348.46
  C 358.53 344.91 355.66 342.04 352.11 342.04
  C 348.56 342.04 345.69 344.91 345.69 348.46
  C 345.69 352.01 348.56 354.88 352.11 354.88
  C 355.66 354.88 358.53 352.01 358.53 348.46
  Z"
/>
<path fill="#de9d23" d="
  M 389.4676 360.3704
  C 383.16 359.79 378.53 354.14 379.1190 347.7505
  C 379.71 341.37 385.30 336.66 391.6124 337.2496
  C 397.92 337.83 402.55 343.48 401.9610 349.8695
  C 401.37 356.25 395.78 360.96 389.4676 360.3704
  Z
  M 397.02 348.67
  C 397.02 345.10 394.13 342.21 390.56 342.21
  C 386.99 342.21 384.10 345.10 384.10 348.67
  C 384.10 352.24 386.99 355.13 390.56 355.13
  C 394.13 355.13 397.02 352.24 397.02 348.67
  Z"
/>
<circle fill="#2e0609" cx="352.11" cy="348.46" r="6.42"/>
<circle fill="#2e0609" cx="390.56" cy="348.67" r="6.46"/>
<rect fill="#2e0609" x="-10.35" y="-10.37" transform="translate(671.01,418.52) rotate(-44.9)" width="20.70" height="20.74" rx="0.26"/>
<rect fill="#2e0609" x="-10.43" y="-10.44" transform="translate(671.00,453.87) rotate(45.0)" width="20.86" height="20.88" rx="0.43"/>
</svg>
