<?xml version="1.0" encoding="UTF-8" standalone="no"?>
<!DOCTYPE svg PUBLIC "-//W3C//DTD SVG 1.1//EN" "http://www.w3.org/Graphics/SVG/1.1/DTD/svg11.dtd">
<svg xmlns="http://www.w3.org/2000/svg" version="1.1" viewBox="0 0 500 500">
<path fill="rgb(0,0,0)" fill-opacity="1.000" d="M 0.00 0.00 Q 250.00 0.00 500.00 0.00 Q 500.00 250.00 500.00 500.00 Q 250.00 500.00 0.00 500.00 Q 0.00 250.00 0.00 0.00 Z M 198.25 20.21 Q 199.07 20.09 199.00 20.71 Q 156.12 31.18 119.19 56.94 Q 79.17 84.85 52.59 124.53 Q 46.87 133.06 42.03 141.51 Q 9.52 198.25 14.10 264.03 Q 14.78 273.77 16.53 283.88 Q 26.79 343.15 62.00 392.29 L 65.96 397.66 Q 66.33 398.16 66.47 397.62 Q 66.55 397.34 66.31 397.12 Q 65.95 396.77 65.89 396.67 Q 64.38 394.40 62.75 392.21 Q 46.30 368.18 35.50 343.25 Q 21.14 310.08 17.14 273.47 Q 16.05 263.51 15.93 253.51 Q 15.05 184.99 51.53 127.64 Q 56.85 119.27 63.01 111.27 Q 101.72 60.96 161.44 34.69 Q 182.02 25.63 200.44 21.44 Q 201.11 21.28 201.79 20.50 L 202.75 19.29 Q 249.01 10.18 292.75 17.00 Q 340.80 24.49 385.86 49.36 Q 386.36 49.64 386.56 49.47 A 0.56 0.35 41.2 0 0 386.35 48.79 Q 384.15 47.04 379.81 44.69 Q 311.27 7.51 234.46 13.10 Q 224.34 13.84 214.58 15.33 Q 150.86 25.07 100.69 64.44 Q 49.28 104.78 25.45 166.10 Q 21.81 175.45 19.00 185.05 Q 7.81 223.27 9.25 262.00 Q 11.20 314.39 36.06 361.94 Q 63.20 413.84 113.51 446.70 Q 113.70 446.82 113.87 446.88 Q 114.99 447.31 113.87 446.23 Q 113.70 446.07 113.48 445.92 Q 88.44 428.88 70.31 409.19 Q 33.84 369.55 18.78 315.95 Q 11.33 289.44 10.50 260.75 Q 8.32 185.48 49.31 123.52 Q 82.13 73.91 134.56 44.81 Q 165.04 27.90 198.25 20.21 Z M 55.02 180.53 Q 32.77 244.31 51.76 308.17 Q 54.66 317.93 58.42 327.02 Q 74.29 365.31 103.94 393.81 Q 149.57 437.68 213.25 446.00 Q 226.09 447.68 242.69 447.01 Q 243.04 447.00 243.29 446.89 Q 244.19 446.50 243.31 446.12 Q 243.05 446.00 242.67 445.98 Q 237.61 445.67 232.55 445.45 Q 226.12 445.17 222.46 444.79 Q 161.72 438.58 116.00 399.38 Q 108.32 392.79 101.55 385.57 Q 75.34 357.64 61.56 321.48 Q 44.94 277.86 49.42 231.24 Q 49.92 226.07 51.50 220.00 Q 57.91 195.35 68.24 173.21 Q 88.93 128.90 126.87 98.13 Q 132.35 93.69 134.19 90.94 Q 135.06 89.64 133.79 89.74 Q 133.38 89.77 132.89 90.03 Q 125.12 94.07 118.76 100.12 Q 118.69 100.19 118.60 100.21 Q 118.10 100.33 118.49 99.99 Q 131.64 88.20 147.31 80.06 Q 159.42 73.78 179.27 65.90 Q 180.44 65.43 181.48 64.74 Q 182.50 64.04 183.53 63.35 Q 185.08 62.30 186.83 61.75 Q 253.48 40.70 318.90 62.57 Q 328.48 65.77 337.52 69.82 Q 375.40 86.80 403.94 116.56 Q 439.25 153.39 455.13 202.71 Q 457.01 208.54 457.81 209.44 Q 458.67 210.39 459.22 209.74 Q 459.50 209.41 459.53 208.69 Q 459.84 202.16 457.31 194.19 Q 446.76 160.93 427.47 134.05 Q 421.87 126.24 414.89 118.51 Q 367.70 66.21 298.72 50.36 Q 288.83 48.08 279.03 46.88 Q 218.95 39.48 163.41 64.54 Q 132.46 78.51 107.46 101.46 Q 88.98 118.44 77.06 133.81 Q 67.97 145.55 60.73 158.52 Q 60.56 158.81 60.52 158.62 A 0.34 0.21 -48.4 0 1 60.56 158.39 Q 81.27 118.87 115.24 90.55 Q 122.79 84.26 131.26 78.58 Q 193.34 36.96 268.76 40.14 Q 278.70 40.56 288.68 41.91 Q 370.30 52.97 426.80 112.08 Q 433.80 119.41 439.93 127.14 Q 481.98 180.19 488.50 248.75 Q 488.73 251.18 489.23 253.56 Q 489.33 254.01 489.53 254.26 Q 490.11 255.02 490.44 253.69 Q 491.30 250.16 490.71 244.00 Q 484.34 177.65 442.87 125.86 Q 416.33 92.72 379.91 70.86 Q 343.38 48.93 301.84 40.54 Q 292.10 38.57 282.07 37.48 Q 214.98 30.15 155.56 59.06 Q 88.39 91.74 55.28 159.25 Q 50.76 168.47 47.35 177.60 Q 33.49 214.73 33.92 254.50 Q 34.03 264.53 34.64 274.49 Q 36.40 302.76 45.34 329.78 Q 45.50 330.25 45.32 329.77 Q 39.38 313.76 36.25 298.75 Q 23.80 239.11 42.73 181.74 Q 45.83 172.37 49.95 163.09 Q 84.82 84.62 164.04 48.53 Q 176.32 42.94 179.19 40.44 Q 182.49 37.57 177.75 38.00 Q 169.91 38.72 160.92 42.64 Q 121.67 59.74 91.31 89.43 Q 84.21 96.37 77.69 104.06 Q 41.00 147.38 28.50 202.95 Q 26.33 212.60 25.14 222.65 Q 16.54 295.20 50.02 359.42 Q 54.69 368.37 60.06 376.70 Q 85.17 415.62 122.69 441.31 Q 157.55 465.19 196.75 474.75 Q 260.75 490.36 323.04 469.11 Q 332.49 465.88 341.61 461.73 Q 413.87 428.83 449.10 356.65 Q 449.15 356.55 450.33 354.26 Q 451.86 351.30 452.36 348.55 Q 452.73 346.48 451.32 348.05 Q 449.36 350.25 447.98 352.82 Q 430.02 386.41 402.42 412.66 Q 373.21 440.44 336.13 456.30 Q 331.93 458.10 329.69 458.69 Q 304.12 465.42 277.75 467.56 Q 277.52 467.58 277.40 467.50 Q 277.03 467.28 277.54 467.21 Q 343.19 458.55 390.77 414.40 Q 398.15 407.55 404.58 399.96 Q 427.62 372.77 440.48 339.22 Q 440.76 338.46 440.79 337.74 Q 440.96 333.59 438.93 337.14 Q 438.63 337.66 438.25 338.51 Q 422.15 373.88 395.94 399.94 Q 352.70 442.92 292.64 455.69 Q 282.79 457.79 272.91 458.88 Q 216.22 465.16 163.87 441.57 Q 125.14 424.11 96.27 392.98 Q 80.88 376.39 69.56 355.94 Q 55.06 329.74 48.25 301.25 Q 46.34 293.27 45.12 290.02 Q 44.99 289.68 44.54 289.26 Q 43.75 288.51 43.50 287.00 Q 40.75 270.02 40.19 257.50 Q 39.96 252.33 39.73 247.16 Q 39.48 241.59 40.02 236.85 Q 43.37 207.62 54.99 180.52 Q 55.19 180.06 55.02 180.53 Z M 233.50 194.46 Q 232.82 194.46 232.56 194.19 Q 217.95 178.49 198.24 170.00 Q 197.35 169.61 197.57 170.56 Q 198.84 175.89 200.17 181.36 Q 201.91 188.47 203.32 192.00 Q 208.05 203.82 217.53 212.72 Q 222.41 217.29 227.09 222.08 Q 227.44 222.43 226.95 222.33 Q 210.24 218.83 193.56 222.45 A 0.33 0.31 -25.8 0 0 193.36 222.96 Q 194.01 223.70 195.00 224.04 L 196.71 225.00 Q 209.93 232.44 225.00 234.48 Q 234.46 235.76 244.15 235.50 A 2.94 2.94 63.9 0 1 246.10 236.17 Q 250.20 239.60 249.50 243.50 Q 249.00 246.26 249.77 255.95 A 0.42 0.36 75.8 0 0 250.30 256.33 Q 250.70 256.12 250.71 255.50 Q 250.74 248.80 250.75 242.10 Q 250.75 240.07 251.71 238.66 Q 252.75 237.12 254.13 235.84 A 1.25 1.20 23.0 0 1 255.00 235.51 Q 263.02 235.70 271.00 234.97 Q 290.43 233.18 307.17 223.00 Q 307.88 222.56 307.10 222.45 L 303.50 221.96 L 301.00 221.29 Q 287.29 219.48 273.73 222.25 Q 272.22 222.56 273.37 221.54 Q 279.27 216.28 285.05 210.31 Q 296.98 197.98 300.25 181.10 Q 301.28 175.75 302.67 170.79 Q 303.02 169.53 301.82 170.06 Q 282.21 178.71 267.49 194.26 Q 267.05 194.73 267.07 194.09 Q 267.54 179.20 260.25 166.21 L 252.50 152.21 L 250.79 148.89 Q 250.30 147.94 249.73 148.86 Q 247.40 152.66 245.21 156.49 Q 245.16 156.58 242.05 161.81 Q 234.13 175.11 233.05 190.75 Q 232.91 192.65 233.50 194.46 Z M 430.66 404.05 Q 446.85 384.97 457.44 365.44 Q 468.72 344.64 473.80 321.51 Q 480.97 288.82 477.43 254.82 Q 477.31 253.68 477.05 254.79 Q 476.60 256.73 476.77 258.50 Q 477.99 270.98 477.35 283.49 Q 476.09 308.05 470.04 331.79 Q 467.74 340.81 463.82 349.38 Q 434.67 412.97 376.10 451.63 Q 369.07 456.27 366.99 457.47 Q 362.82 459.88 357.31 462.31 Q 330.53 474.15 304.00 478.49 Q 274.01 483.40 243.74 482.28 Q 233.36 481.90 223.81 480.62 Q 180.95 474.90 143.81 454.69 Q 105.14 433.64 75.71 399.62 Q 69.07 391.95 63.55 383.76 Q 38.57 346.69 28.80 302.64 Q 27.46 296.57 25.19 290.81 Q 24.66 289.47 24.50 291.00 Q 24.12 294.67 24.81 298.29 Q 29.64 323.32 39.65 346.76 Q 39.76 347.02 39.71 347.26 Q 39.60 347.85 39.26 347.62 Q 39.10 347.51 38.95 347.19 Q 25.74 317.50 21.47 285.25 Q 14.14 229.98 31.89 177.30 Q 33.41 172.80 34.69 168.23 Q 35.51 165.32 34.06 167.31 Q 32.88 168.94 31.94 171.79 Q 31.02 174.60 30.99 174.67 Q 15.60 218.15 17.75 262.50 Q 20.56 320.45 49.99 371.02 Q 55.01 379.65 60.94 387.75 Q 104.18 446.87 173.97 472.08 Q 198.81 481.05 226.00 484.50 Q 288.29 492.41 345.14 469.05 Q 354.54 465.19 363.19 460.48 Q 393.52 443.97 417.32 418.96 Q 423.71 412.26 430.66 404.05 Z M 140.05 227.97 Q 144.91 227.01 140.06 226.49 A 0.75 0.67 -1.8 0 1 139.42 225.95 Q 139.06 224.26 141.28 224.65 Q 141.82 224.75 142.22 224.67 Q 144.51 224.25 142.67 223.63 Q 142.30 223.50 141.80 223.52 Q 140.29 223.58 138.80 223.38 A 0.54 0.52 8.7 0 0 138.21 223.80 Q 137.91 225.31 137.94 226.86 Q 137.94 227.00 137.82 229.13 Q 137.69 231.55 140.41 231.12 Q 141.13 231.01 141.60 231.00 Q 144.92 230.94 142.47 229.93 A 1.90 1.43 -32.8 0 0 141.51 229.86 Q 139.04 230.33 139.42 228.54 A 0.81 0.72 -0.7 0 1 140.05 227.97 Z M 147.20 224.99 Q 148.55 224.24 149.60 225.20 Q 150.09 225.65 150.39 225.77 Q 152.06 226.46 151.00 224.50 Q 149.83 222.34 146.94 223.69 Q 144.84 224.66 145.56 226.17 Q 145.95 226.99 147.20 227.50 Q 148.21 227.91 149.25 228.25 Q 151.29 228.91 149.56 229.56 Q 147.83 230.22 146.44 229.09 Q 144.86 227.81 145.31 229.41 Q 145.42 229.82 145.74 230.09 Q 147.40 231.52 149.40 231.05 Q 150.56 230.78 151.20 229.90 Q 152.28 228.41 150.18 227.39 Q 148.78 226.72 147.30 226.18 Q 145.93 225.69 147.20 224.99 Z M 155.11 225.93 L 155.11 230.32 A 0.60 0.58 2.1 0 0 155.67 230.90 Q 157.01 230.99 156.50 229.00 Q 156.14 227.60 156.69 225.30 A 0.59 0.54 9.2 0 1 157.31 224.89 Q 158.55 225.01 158.61 224.18 A 0.57 0.49 4.2 0 0 158.07 223.65 Q 155.88 223.50 153.69 223.54 Q 152.68 223.56 153.00 224.32 A 0.80 0.59 -10.9 0 0 153.74 224.67 Q 154.45 224.62 154.89 225.04 A 1.24 0.44 -84.4 0 1 155.11 225.93 Z M 163.98 223.70 Q 162.75 223.43 161.08 223.58 A 0.86 0.81 -3.0 0 0 160.29 224.40 L 160.38 230.31 A 0.65 0.62 4.5 0 0 160.92 230.91 Q 162.40 231.15 163.83 230.89 Q 165.62 230.57 166.53 229.17 Q 167.85 227.14 166.31 225.20 Q 165.37 224.01 163.98 223.70 Z M 335.86 229.30 Q 336.34 228.71 336.94 228.24 Q 337.79 227.58 338.05 227.24 Q 339.34 225.51 338.06 224.25 Q 337.12 223.33 335.71 223.41 Q 333.85 223.51 333.25 225.25 Q 332.86 226.39 333.69 226.47 A 0.79 0.56 -73.9 0 0 334.34 225.96 Q 334.81 224.85 336.00 224.75 A 1.03 0.96 -20.8 0 1 336.85 225.10 Q 337.67 226.11 336.47 227.22 Q 334.90 228.66 333.34 229.82 Q 331.76 231.00 333.73 231.00 Q 335.69 231.00 337.63 231.00 Q 338.03 231.00 338.34 230.85 Q 339.80 230.17 337.73 229.92 Q 336.90 229.83 336.06 229.74 Q 335.54 229.69 335.86 229.30 Z M 343.6449 231.2898 A 4.00 3.29 89.5 0 0 346.8999 227.2613 A 4.00 3.29 89.5 0 0 343.5751 223.2901 A 4.00 3.29 89.5 0 0 340.3201 227.3187 A 4.00 3.29 89.5 0 0 343.6449 231.2898 Z M 351.64 229.31 Q 352.41 228.44 353.17 227.57 Q 354.10 226.51 354.09 225.54 Q 354.09 223.49 351.50 223.50 Q 348.36 223.52 348.94 226.21 A 0.38 0.36 67.0 0 0 349.51 226.46 Q 349.92 226.17 350.08 225.68 A 1.17 0.79 -83.1 0 1 350.66 225.01 Q 353.64 224.02 352.19 227.19 Q 351.30 229.13 350.00 229.25 Q 347.46 229.49 349.25 231.00 Q 350.32 231.90 353.69 230.94 Q 354.46 230.71 354.40 230.26 A 0.77 0.52 -0.6 0 0 353.69 229.79 L 351.82 229.71 Q 351.31 229.69 351.64 229.31 Z M 358.00 228.79 Q 353.24 231.53 359.74 230.94 Q 363.38 230.61 360.67 229.86 Q 360.30 229.76 359.82 229.84 Q 358.34 230.08 358.75 229.04 Q 361.99 227.88 361.31 224.79 A 1.18 1.18 9.3 0 0 360.77 224.04 Q 358.14 222.44 356.56 224.89 A 1.07 1.02 52.7 0 0 356.46 225.80 Q 357.02 227.40 357.78 225.40 A 1.15 0.94 -85.4 0 1 358.40 224.75 Q 360.09 224.19 360.19 225.93 A 1.27 1.08 68.7 0 1 359.88 226.83 L 358.00 228.79 Z M 107.10 385.73 Q 116.86 395.45 128.20 403.29 Q 130.38 404.81 128.94 402.81 Q 127.68 401.08 123.02 397.84 Q 119.09 395.11 116.87 393.21 Q 106.44 384.35 101.44 378.56 Q 52.24 321.61 55.89 245.51 Q 56.22 238.75 56.34 232.00 Q 56.40 229.12 55.31 231.56 Q 54.74 232.85 54.57 235.45 Q 54.34 238.91 54.33 239.04 Q 50.86 277.16 62.31 313.19 Q 74.96 352.99 104.31 383.19 Q 105.09 383.98 105.68 384.49 Q 106.88 385.51 107.10 385.73 Z M 112.44 278.56 Q 115.80 278.54 118.92 281.55 Q 119.24 281.86 119.54 281.96 Q 120.35 282.23 120.27 281.47 Q 120.23 281.11 119.91 280.75 Q 114.80 275.23 108.25 277.87 Q 106.00 278.78 104.93 280.46 Q 103.50 282.73 104.54 285.02 Q 105.43 287.00 108.64 288.71 Q 111.70 290.35 114.98 291.56 Q 119.18 293.10 117.25 297.10 Q 115.97 299.78 113.00 299.99 Q 108.03 300.35 104.70 296.85 Q 104.41 296.54 104.09 296.37 Q 101.80 295.17 103.62 297.41 Q 107.58 302.29 113.99 301.45 Q 118.92 300.80 120.50 297.00 Q 121.60 294.37 120.18 292.19 Q 119.31 290.86 116.68 289.56 Q 112.65 287.57 108.55 285.68 Q 106.32 284.65 107.06 282.30 Q 108.24 278.59 112.44 278.56 Z M 308.70 287.54 Q 312.63 289.96 316.99 291.52 Q 319.12 292.28 319.74 294.04 Q 320.30 295.62 319.29 297.33 Q 317.33 300.65 312.76 299.92 Q 308.92 299.31 306.26 296.53 Q 305.94 296.19 305.66 296.06 Q 304.99 295.74 304.84 296.19 A 1.18 0.68 43.3 0 0 305.11 297.09 Q 309.13 302.31 315.99 301.40 Q 319.78 300.90 321.56 298.56 Q 323.97 295.41 322.37 292.57 Q 321.38 290.82 318.39 289.27 Q 316.04 288.05 313.53 287.17 Q 311.44 286.43 309.78 284.90 A 2.37 2.35 29.3 0 1 309.10 282.51 Q 309.66 280.58 310.89 279.58 Q 311.98 278.71 313.93 278.68 Q 317.82 278.63 320.71 281.34 Q 321.11 281.72 321.55 281.81 Q 323.34 282.18 321.69 280.31 Q 317.98 276.12 311.58 277.40 Q 308.00 278.12 306.69 280.94 Q 304.76 285.10 308.70 287.54 Z M 132.69 299.81 Q 135.65 301.88 139.07 301.62 Q 142.55 301.36 144.78 299.09 Q 147.47 296.37 147.50 291.50 Q 147.55 284.96 147.44 278.43 Q 147.44 277.98 147.23 277.75 Q 146.91 277.38 146.47 277.55 A 0.88 0.63 83.3 0 0 146.05 278.31 Q 145.96 284.65 145.78 290.99 Q 145.67 295.16 144.41 297.10 Q 142.27 300.39 138.02 299.90 Q 135.60 299.63 133.96 298.15 Q 132.07 296.46 131.75 294.00 Q 131.40 291.25 131.43 278.30 A 0.58 0.55 -86.1 0 0 130.95 277.72 Q 130.09 277.61 129.28 277.87 A 0.70 0.65 79.5 0 0 128.84 278.56 Q 129.26 287.68 129.00 291.75 Q 128.66 297.01 132.69 299.81 Z M 167.46 292.74 Q 169.51 295.92 171.74 298.99 Q 171.77 299.04 172.33 299.92 Q 173.41 301.67 175.49 300.88 A 0.41 0.40 62.1 0 0 175.67 300.27 L 169.96 292.01 A 0.65 0.63 59.0 0 1 170.18 291.07 Q 175.66 288.21 174.24 283.12 Q 173.63 280.90 171.86 279.53 Q 170.01 278.10 167.66 277.79 Q 167.44 277.76 162.84 277.57 Q 160.42 277.47 158.00 277.70 A 0.58 0.55 -2.9 0 0 157.48 278.25 L 157.53 300.25 A 0.69 0.65 7.4 0 0 158.05 300.89 Q 160.42 301.48 160.21 299.73 Q 159.86 296.74 160.39 292.65 A 0.65 0.57 -85.0 0 1 160.98 292.09 L 166.70 292.22 A 1.12 0.74 67.8 0 1 167.46 292.74 Z M 191.18 290.44 L 184.07 278.35 A 1.31 1.20 -4.6 0 0 183.34 277.78 Q 180.09 276.79 182.00 279.75 Q 183.16 281.54 188.37 290.96 Q 189.60 293.18 189.71 295.32 Q 189.83 297.66 189.56 300.00 A 0.85 0.75 -72.8 0 0 189.91 300.79 Q 191.00 301.45 192.10 300.79 A 0.85 0.73 72.2 0 0 192.43 300.00 Q 192.12 297.66 192.25 295.32 Q 192.38 293.22 193.64 290.97 Q 196.95 285.06 200.27 279.16 Q 200.54 278.67 200.61 278.30 Q 200.82 277.16 199.77 277.59 A 1.62 1.21 -79.1 0 0 199.06 278.24 L 191.93 290.45 A 0.44 0.43 45.2 0 1 191.18 290.44 Z M 221.90 295.52 L 223.82 300.03 A 1.56 1.00 83.2 0 0 224.42 300.76 Q 225.43 301.29 226.53 300.94 A 0.50 0.47 69.4 0 0 226.81 300.28 L 218.15 279.44 Q 216.37 275.15 214.54 279.45 L 205.69 300.27 A 0.53 0.53 17.3 0 0 206.07 300.99 Q 207.48 301.28 207.91 300.04 Q 208.37 298.70 208.40 298.65 Q 208.95 297.49 209.57 295.91 A 1.40 1.37 -78.9 0 1 210.87 295.01 L 221.18 295.05 A 0.79 0.77 -11.3 0 1 221.90 295.52 Z M 268.19 282.56 Q 268.29 290.11 268.25 297.65 Q 268.25 297.76 268.13 299.34 Q 267.92 301.85 270.47 300.88 A 0.73 0.72 79.1 0 0 270.93 300.19 Q 270.82 290.75 270.99 281.31 Q 270.99 281.25 271.11 279.70 Q 271.32 276.99 268.77 277.88 A 1.56 1.28 -79.6 0 0 268.05 278.49 L 258.89 293.07 A 0.53 0.52 -44.8 0 1 258.00 293.07 Q 253.39 285.58 249.22 278.85 Q 248.73 278.05 248.13 277.81 Q 247.36 277.50 246.54 277.67 A 0.65 0.63 83.9 0 0 246.05 278.30 L 246.06 300.19 A 0.79 0.72 -80.3 0 0 246.52 300.91 Q 247.74 301.39 247.61 299.93 Q 247.51 298.83 247.52 298.57 Q 247.73 290.46 247.57 282.79 Q 247.54 281.48 248.25 282.59 L 257.48 297.06 A 0.60 0.58 -45.2 0 0 258.48 297.04 L 267.90 282.47 Q 268.19 282.02 268.19 282.56 Z M 278.28 300.77 Q 280.01 301.29 280.44 299.95 Q 280.80 298.84 280.85 298.72 Q 281.39 297.56 281.89 296.10 A 1.60 1.57 -80.3 0 1 283.40 295.01 L 293.68 295.05 A 0.79 0.75 -10.5 0 1 294.40 295.52 L 296.32 300.02 A 1.54 0.93 81.6 0 0 296.93 300.76 Q 298.04 301.33 299.23 300.89 A 0.50 0.47 68.4 0 0 299.49 300.23 Q 294.87 289.37 290.25 278.50 Q 289.51 276.77 288.19 277.65 Q 287.58 278.06 287.14 279.10 Q 282.66 289.83 278.08 300.32 A 0.33 0.33 -69.3 0 0 278.28 300.77 Z M 344.90 295.52 L 346.82 300.03 A 1.56 1.00 83.2 0 0 347.42 300.76 Q 348.43 301.29 349.53 300.94 A 0.50 0.47 69.4 0 0 349.81 300.28 L 340.70 278.45 A 1.45 1.26 89.4 0 0 340.07 277.74 Q 338.49 276.94 337.81 278.56 Q 333.41 289.14 328.91 299.67 Q 328.09 301.59 329.98 300.88 A 1.31 1.12 -85.1 0 0 330.65 300.22 L 332.85 295.52 A 0.82 0.77 -76.7 0 1 333.56 295.05 L 344.19 295.05 A 0.77 0.77 78.5 0 1 344.90 295.52 Z M 358.18 300.84 Q 365.18 301.17 372.19 300.95 Q 372.75 300.94 373.10 300.65 Q 373.91 299.97 373.02 299.47 Q 372.61 299.25 371.93 299.25 Q 366.56 299.25 360.66 299.25 A 0.67 0.66 90.0 0 1 360.00 298.58 L 359.94 278.32 A 0.56 0.50 90.0 0 0 359.44 277.76 L 358.06 277.76 A 0.55 0.51 -90.0 0 0 357.55 278.31 L 357.67 300.31 A 0.54 0.53 1.7 0 0 358.18 300.84 Z M 383.26 298.69 L 383.02 290.74 A 1.01 0.96 -0.8 0 1 384.03 289.75 Q 388.05 289.75 391.87 289.75 Q 392.32 289.75 392.54 289.54 Q 392.84 289.24 392.81 288.80 A 0.63 0.54 -2.0 0 0 392.19 288.30 L 384.75 288.25 A 2.39 1.32 82.1 0 1 383.25 286.25 Q 382.66 283.06 383.33 279.92 A 0.65 0.59 5.0 0 1 383.94 279.45 L 395.69 279.22 A 0.86 0.82 11.7 0 0 396.44 278.75 Q 396.98 277.61 395.50 277.64 Q 388.62 277.75 381.04 277.75 A 0.55 0.54 90.0 0 0 380.50 278.30 L 380.43 300.49 A 0.51 0.51 0.0 0 0 380.94 301.00 Q 388.38 301.00 395.50 301.12 Q 397.71 301.15 396.95 299.73 A 0.89 0.77 -11.9 0 0 396.19 299.31 L 383.82 299.19 A 0.56 0.52 -1.1 0 1 383.26 298.69 Z M 314.04 309.75 L 311.41 321.32 A 0.82 0.79 89.7 0 1 310.83 321.93 Q 306.98 322.89 303.34 324.44 Q 303.03 324.58 302.89 324.82 Q 302.47 325.56 303.61 325.27 Q 306.61 324.51 309.91 323.45 A 0.91 0.91 -4.5 0 1 311.08 324.45 Q 309.21 336.95 310.01 349.00 Q 310.40 354.86 312.08 358.56 Q 313.54 361.80 312.90 358.30 Q 309.59 340.42 312.72 323.31 A 0.80 0.78 87.8 0 1 313.29 322.68 Q 317.94 321.37 322.70 320.55 Q 323.05 320.49 323.28 320.35 Q 324.04 319.92 323.32 319.61 Q 323.05 319.49 322.68 319.55 Q 317.96 320.30 313.79 321.14 A 0.76 0.74 -1.2 0 1 312.89 320.29 L 314.50 310.54 Q 315.91 303.35 314.04 309.75 Z M 350.00 316.71 L 349.25 320.52 A 2.22 1.83 -87.3 0 1 347.70 322.23 Q 344.39 322.79 341.11 324.19 Q 340.78 324.33 340.57 324.52 Q 339.78 325.25 340.90 325.26 Q 341.20 325.26 341.58 325.15 Q 344.69 324.25 347.67 323.36 A 0.69 0.69 85.7 0 1 348.55 324.12 Q 347.27 333.34 347.09 342.25 Q 346.90 351.54 350.21 360.16 A 0.45 0.29 71.6 0 0 350.61 360.48 Q 350.82 360.42 350.73 360.00 Q 349.76 355.55 349.20 351.03 Q 348.68 346.78 348.74 341.95 Q 348.85 332.89 350.04 323.72 A 1.40 1.39 -3.8 0 1 351.07 322.55 Q 356.03 321.28 360.01 320.58 Q 360.58 320.48 360.88 320.19 Q 361.70 319.40 359.24 319.69 Q 355.13 320.19 351.31 321.40 A 0.65 0.64 -6.1 0 1 350.46 320.73 L 350.96 316.00 Q 351.88 311.63 352.53 307.22 Q 352.66 306.35 352.42 307.06 Q 350.79 311.78 350.00 316.71 Z M 205.56 346.19 Q 205.45 338.21 206.50 335.75 Q 210.04 327.40 212.02 318.56 Q 212.29 317.35 212.03 316.44 Q 211.29 313.82 209.19 316.44 Q 208.01 317.91 207.04 321.71 Q 203.70 334.77 204.34 350.39 Q 204.38 351.54 204.94 352.56 Q 205.61 353.81 206.10 352.68 Q 206.24 352.36 206.30 351.79 Q 207.27 342.92 211.55 335.11 Q 211.80 334.65 211.77 334.34 Q 211.69 333.75 211.00 333.75 Q 209.45 333.74 208.25 337.75 L 205.72 346.22 Q 205.56 346.73 205.56 346.19 Z M 338.21 339.01 Q 339.56 337.99 341.54 337.02 Q 343.33 336.14 341.56 336.29 Q 341.32 336.31 341.08 336.40 Q 339.11 337.20 337.22 338.37 A 0.66 0.65 50.9 0 1 336.42 338.28 Q 334.21 336.16 333.15 333.65 Q 331.91 330.69 333.51 328.17 Q 334.05 327.33 334.70 327.06 Q 335.81 326.62 336.44 328.06 Q 336.91 329.15 336.23 333.75 Q 336.14 334.39 336.41 334.29 A 1.14 1.13 -2.2 0 0 337.10 333.55 Q 338.73 327.87 336.17 326.02 A 1.24 1.11 -29.4 0 0 335.26 325.82 Q 329.93 326.70 331.19 332.31 Q 332.09 336.33 335.60 339.19 A 0.47 0.46 -49.5 0 1 335.65 339.87 Q 332.62 343.09 330.31 348.31 Q 329.18 350.88 330.21 352.59 Q 331.22 354.25 333.48 354.03 Q 335.13 353.87 336.39 352.81 Q 337.23 352.10 338.48 350.56 Q 342.25 345.92 338.03 340.31 A 0.93 0.93 53.5 0 1 338.21 339.01 Z M 182.71 331.75 Q 181.30 334.59 181.00 337.75 Q 180.96 338.16 180.25 338.54 L 179.75 338.46 Q 180.04 336.80 179.44 335.34 Q 179.18 334.72 178.70 334.47 Q 177.85 334.03 177.41 335.02 A 0.97 0.68 42.9 0 0 177.59 335.87 Q 178.19 336.66 178.00 337.75 Q 177.35 341.45 178.56 342.19 Q 179.59 342.82 180.08 341.64 Q 181.52 338.20 182.35 334.57 Q 182.56 333.67 183.46 333.75 L 182.58 339.56 Q 182.38 340.89 182.90 342.32 Q 183.99 345.37 185.25 344.71 Q 187.73 342.22 187.76 338.75 Q 187.76 338.24 187.64 338.73 Q 186.92 341.72 184.75 343.79 Q 183.93 343.20 184.00 342.00 Q 184.33 336.61 184.89 332.76 Q 185.01 331.91 184.77 331.26 Q 183.93 328.94 182.71 331.75 Z M 361.04 338.25 Q 364.96 336.38 360.75 337.96 Q 359.08 339.40 357.94 342.19 Q 357.48 343.30 356.51 342.93 A 1.16 0.92 89.6 0 1 355.92 342.20 Q 354.45 337.09 357.25 333.00 Q 358.37 331.37 358.80 332.46 A 1.27 0.94 -48.6 0 1 358.72 333.39 Q 357.94 334.97 356.90 336.41 Q 356.66 336.73 356.62 337.02 Q 356.46 338.06 357.63 337.15 Q 360.08 335.25 360.24 332.24 A 1.33 1.18 -66.2 0 0 359.95 331.34 Q 359.33 330.64 358.48 330.64 Q 357.69 330.63 356.89 331.49 Q 353.04 335.63 354.30 341.18 Q 354.66 342.75 355.58 343.68 Q 357.58 345.72 359.00 342.50 Q 360.48 339.15 361.04 338.25 Z M 159.27 338.11 L 160.29 337.69 Q 160.83 337.46 160.27 337.35 Q 159.12 337.13 158.19 338.19 Q 156.32 340.31 155.31 342.41 Q 154.85 343.36 154.21 343.01 Q 153.84 342.81 153.66 342.20 Q 152.23 337.32 154.90 333.12 Q 155.20 332.65 155.59 332.35 Q 157.03 331.26 156.49 333.53 Q 156.29 334.40 155.71 335.07 Q 154.38 336.64 154.42 337.20 Q 154.45 337.75 155.15 337.20 Q 157.72 335.18 158.00 333.25 Q 158.32 331.03 156.70 330.78 Q 155.66 330.63 154.68 331.56 Q 152.46 333.68 152.07 336.71 Q 151.80 338.85 151.79 340.27 Q 151.79 342.59 153.41 343.68 Q 155.42 345.04 156.60 342.66 L 158.54 338.72 A 1.53 0.87 -10.3 0 1 159.27 338.11 Z M 222.54 332.14 Q 224.16 331.63 223.10 333.64 Q 222.17 335.39 221.53 336.27 Q 220.31 337.95 222.05 336.82 Q 224.53 335.21 224.73 332.38 Q 224.78 331.66 224.39 331.23 Q 223.90 330.70 223.16 330.69 Q 222.42 330.67 221.67 331.40 Q 217.44 335.51 218.88 341.26 Q 219.23 342.67 220.06 343.48 Q 221.69 345.09 223.01 343.30 Q 223.08 343.22 224.13 340.53 Q 224.87 338.63 226.79 337.70 Q 227.29 337.46 226.75 337.44 Q 225.43 337.40 224.50 338.50 Q 223.99 339.10 222.05 342.63 A 0.75 0.64 -68.3 0 1 221.31 343.02 Q 220.21 342.81 220.04 341.44 Q 219.45 336.72 221.80 332.74 A 1.37 1.21 -80.5 0 1 222.54 332.14 Z M 196.44 338.81 Q 196.56 343.29 199.86 341.39 A 1.40 1.21 -88.6 0 0 200.36 340.84 Q 203.47 334.59 199.69 340.54 A 0.98 0.80 -71.2 0 1 198.97 340.99 Q 197.67 341.01 197.82 339.43 Q 197.98 337.82 197.93 337.56 Q 197.66 335.96 196.28 336.38 A 1.49 1.07 -75.6 0 0 195.54 337.00 Q 194.37 338.90 193.27 340.84 Q 192.88 341.53 192.39 341.86 Q 190.92 342.84 191.00 340.75 Q 191.16 336.92 194.36 333.36 Q 196.76 330.70 198.59 333.34 A 1.30 0.71 68.2 0 0 199.21 333.85 Q 199.85 334.03 199.40 333.08 Q 198.43 330.98 196.58 331.00 Q 195.32 331.01 193.77 332.20 Q 189.45 335.51 189.69 340.81 Q 189.89 345.39 193.44 342.44 Q 194.65 341.43 196.19 338.75 Q 196.43 338.33 196.44 338.81 Z M 266.29 332.25 Q 265.73 331.15 264.54 331.25 Q 262.12 330.43 260.44 332.44 Q 257.61 335.80 259.90 338.93 Q 260.10 339.19 260.86 339.80 Q 261.40 340.22 261.72 340.81 Q 262.45 342.15 262.70 342.38 Q 264.53 344.01 266.62 342.33 A 2.00 1.23 -88.6 0 0 267.15 341.51 Q 268.06 338.89 270.61 337.81 A 0.33 0.27 -29.2 0 0 270.79 337.36 Q 270.58 337.12 270.25 337.50 Q 268.29 339.75 268.25 336.75 Q 268.21 334.03 266.29 332.25 Z M 291.20 335.21 Q 290.85 333.63 291.07 332.01 Q 291.21 330.91 290.69 331.02 A 1.10 0.65 -79.5 0 0 290.08 331.72 Q 288.15 337.28 289.68 342.95 A 0.50 0.42 71.3 0 0 290.29 343.32 Q 290.86 343.06 290.94 342.24 Q 291.45 337.38 293.49 332.97 Q 293.56 332.82 293.67 332.67 Q 295.27 330.53 293.20 332.43 Q 293.06 332.56 292.99 332.73 Q 292.43 334.08 291.61 335.28 Q 291.31 335.72 291.20 335.21 Z M 322.83 339.30 Q 324.56 345.08 327.46 339.23 Q 328.51 337.11 327.50 338.46 Q 326.89 339.28 326.31 340.13 Q 325.85 340.80 325.32 340.92 Q 324.21 341.18 324.33 339.51 Q 324.47 337.73 323.59 336.52 A 0.96 0.95 41.9 0 0 321.99 336.60 Q 320.73 338.79 319.50 340.91 Q 319.14 341.53 318.69 341.80 Q 317.64 342.45 317.35 341.42 Q 317.21 340.91 317.34 340.07 Q 318.10 335.33 322.16 332.03 A 1.08 1.07 -40.9 0 1 323.62 332.13 Q 324.90 333.53 325.43 333.70 Q 326.49 334.04 325.39 332.50 Q 324.12 330.72 322.11 331.05 Q 320.71 331.28 319.34 332.64 Q 315.69 336.28 316.03 341.70 A 1.49 1.36 -69.6 0 0 316.38 342.57 Q 318.33 344.71 320.15 341.91 Q 321.11 340.42 322.33 339.17 A 0.30 0.30 58.9 0 1 322.83 339.30 Z M 140.00 342.04 Q 142.52 343.77 142.79 340.50 Q 143.20 340.50 143.50 340.21 Q 143.83 342.53 144.96 343.45 Q 146.75 344.91 146.75 342.60 Q 146.75 338.54 148.12 334.86 Q 148.19 334.69 148.29 334.54 Q 149.62 332.55 147.71 334.42 Q 147.56 334.56 147.48 334.76 Q 146.09 338.07 146.00 341.68 Q 146.00 342.04 145.89 342.32 Q 145.34 343.68 145.00 342.00 Q 144.17 337.95 143.73 336.54 Q 143.56 335.99 143.28 336.48 Q 142.65 337.57 143.00 338.96 Q 142.42 339.32 142.29 340.00 Q 142.29 341.82 140.75 341.46 Q 139.72 337.93 139.96 334.24 A 1.10 0.73 -75.3 0 0 139.67 333.39 Q 139.17 333.00 138.94 333.94 Q 137.83 338.42 140.00 342.04 Z M 240.97 340.40 Q 242.54 341.80 243.99 340.26 Q 245.95 338.18 247.07 335.55 Q 247.93 333.53 248.83 335.53 Q 249.88 337.86 250.15 340.94 A 1.32 1.29 -29.4 0 1 249.89 341.83 Q 244.69 348.73 243.23 357.20 Q 242.92 359.05 243.35 360.26 Q 244.15 362.49 246.30 362.05 Q 247.85 361.74 249.10 360.13 Q 250.29 358.59 250.75 357.00 Q 252.18 352.01 251.98 346.35 Q 251.82 341.84 251.53 340.17 Q 250.99 337.05 249.18 334.30 Q 247.87 332.32 246.50 334.26 Q 245.12 336.20 243.78 338.79 Q 243.11 340.08 242.03 339.85 A 0.71 0.66 6.1 0 1 241.47 339.21 L 241.42 335.00 A 0.67 0.46 -88.4 0 0 241.01 334.36 Q 240.31 334.27 240.20 335.10 Q 240.08 336.04 240.02 336.26 Q 239.34 338.95 240.97 340.40 Z M 173.75 335.39 Q 172.97 338.56 173.79 341.90 Q 174.12 343.24 174.95 342.13 Q 176.28 340.35 175.41 338.35 Q 175.03 337.48 175.06 336.95 Q 175.10 336.19 175.33 335.47 A 1.47 1.06 -54.8 0 0 175.32 334.53 Q 174.45 332.52 173.75 335.39 Z M 280.51 338.02 Q 283.33 344.20 285.53 337.79 Q 285.72 337.23 285.22 337.49 Q 284.50 337.86 284.25 338.75 Q 283.67 340.79 282.61 339.58 A 1.43 0.33 85.2 0 1 282.32 338.68 L 281.74 334.98 Q 281.46 333.14 280.37 334.79 Q 278.73 337.29 277.80 340.27 Q 277.19 342.26 275.74 343.76 Q 274.73 344.81 274.48 343.38 Q 273.86 339.80 274.86 336.23 A 0.72 0.63 -67.5 0 0 274.60 335.45 Q 273.58 334.84 273.33 336.29 Q 273.14 337.32 273.04 337.69 Q 272.03 341.28 273.35 343.80 Q 275.10 347.15 277.30 344.07 Q 279.29 341.31 280.19 338.04 Q 280.31 337.58 280.51 338.02 Z M 209.94 343.81 Q 212.87 344.58 214.00 342.75 Q 215.38 340.52 216.23 338.04 Q 216.60 336.97 215.89 338.07 Q 214.72 339.86 213.70 341.75 Q 212.45 344.06 210.16 343.21 A 0.56 0.41 24.6 0 0 209.54 343.34 Q 209.34 343.66 209.94 343.81 Z M 252.71 339.25 Q 252.33 339.39 252.27 339.70 Q 252.13 340.35 252.69 339.87 Q 257.08 336.18 253.13 339.05 Q 253.00 339.14 252.71 339.25 Z M 151.71 465.97 Q 151.90 466.16 152.17 466.22 Q 152.73 466.35 152.82 466.39 Q 182.02 479.04 213.22 485.39 Q 222.89 487.36 232.75 487.78 Q 234.83 487.86 233.72 487.72 Q 213.12 485.09 193.06 479.69 Q 163.66 471.77 131.33 455.78 Q 130.39 455.32 131.15 455.79 Q 140.55 461.67 150.98 465.40 Q 151.19 465.47 151.71 465.97 Z"/>
<path fill="rgb(182,119,79)" fill-opacity="1.000" d="M 202.75 19.29 L 198.25 20.21 Q 165.04 27.90 134.56 44.81 Q 82.13 73.91 49.31 123.52 Q 8.32 185.48 10.50 260.75 Q 11.33 289.44 18.78 315.95 Q 33.84 369.55 70.31 409.19 Q 88.44 428.88 113.48 445.92 Q 113.70 446.07 113.87 446.23 Q 114.99 447.31 113.87 446.88 Q 113.70 446.82 113.51 446.70 Q 63.20 413.84 36.06 361.94 Q 11.20 314.39 9.25 262.00 Q 7.81 223.27 19.00 185.05 Q 21.81 175.45 25.45 166.10 Q 49.28 104.78 100.69 64.44 Q 150.86 25.07 214.58 15.33 Q 224.34 13.84 234.46 13.10 Q 311.27 7.51 379.81 44.69 Q 384.15 47.04 386.35 48.79 A 0.56 0.35 41.2 0 1 386.56 49.47 Q 386.36 49.64 385.86 49.36 Q 340.80 24.49 292.75 17.00 Q 249.01 10.18 202.75 19.29 Z"/>
<path fill="rgb(113,41,17)" fill-opacity="1.000" d="M 202.75 19.29 L 201.79 20.50 Q 200.37 20.16 199.00 20.71 Q 199.07 20.09 198.25 20.21 L 202.75 19.29 Z"/>
<path fill="rgb(182,119,79)" fill-opacity="1.000" d="M 201.79 20.50 Q 201.11 21.28 200.44 21.44 Q 182.02 25.63 161.44 34.69 Q 101.72 60.96 63.01 111.27 Q 56.85 119.27 51.53 127.64 Q 15.05 184.99 15.93 253.51 Q 16.05 263.51 17.14 273.47 Q 21.14 310.08 35.50 343.25 Q 46.30 368.18 62.75 392.21 L 62.00 392.29 Q 26.79 343.15 16.53 283.88 Q 14.78 273.77 14.10 264.03 Q 9.52 198.25 42.03 141.51 Q 46.87 133.06 52.59 124.53 Q 79.17 84.85 119.19 56.94 Q 156.12 31.18 199.00 20.71 Q 200.37 20.16 201.79 20.50 Z"/>
<path fill="rgb(201,117,65)" fill-opacity="1.000" d="M 54.99 180.52 Q 43.37 207.62 40.02 236.85 Q 39.48 241.59 39.73 247.16 Q 39.96 252.33 40.19 257.50 Q 40.75 270.02 43.50 287.00 Q 43.75 288.51 44.54 289.26 Q 44.99 289.68 45.12 290.02 Q 46.34 293.27 48.25 301.25 Q 55.06 329.74 69.56 355.94 Q 80.88 376.39 96.27 392.98 Q 125.14 424.11 163.87 441.57 Q 216.22 465.16 272.91 458.88 Q 282.79 457.79 292.64 455.69 Q 352.70 442.92 395.94 399.94 Q 422.15 373.88 438.25 338.51 Q 438.63 337.66 438.93 337.14 Q 440.96 333.59 440.79 337.74 Q 440.76 338.46 440.48 339.22 Q 427.62 372.77 404.58 399.96 Q 398.15 407.55 390.77 414.40 Q 343.19 458.55 277.54 467.21 Q 277.03 467.28 277.40 467.50 Q 277.52 467.58 277.75 467.56 Q 304.12 465.42 329.69 458.69 Q 331.93 458.10 336.13 456.30 Q 373.21 440.44 402.42 412.66 Q 430.02 386.41 447.98 352.82 Q 449.36 350.25 451.32 348.05 Q 452.73 346.48 452.36 348.55 Q 451.86 351.30 450.33 354.26 Q 449.15 356.55 449.10 356.65 Q 413.87 428.83 341.61 461.73 Q 332.49 465.88 323.04 469.11 Q 260.75 490.36 196.75 474.75 Q 157.55 465.19 122.69 441.31 Q 85.17 415.62 60.06 376.70 Q 54.69 368.37 50.02 359.42 Q 16.54 295.20 25.14 222.65 Q 26.33 212.60 28.50 202.95 Q 41.00 147.38 77.69 104.06 Q 84.21 96.37 91.31 89.43 Q 121.67 59.74 160.92 42.64 Q 169.91 38.72 177.75 38.00 Q 182.49 37.57 179.19 40.44 Q 176.32 42.94 164.04 48.53 Q 84.82 84.62 49.95 163.09 Q 45.83 172.37 42.73 181.74 Q 23.80 239.11 36.25 298.75 Q 39.38 313.76 45.32 329.77 Q 45.50 330.25 45.34 329.78 Q 36.40 302.76 34.64 274.49 Q 34.03 264.53 33.92 254.50 Q 33.49 214.73 47.35 177.60 Q 50.76 168.47 55.28 159.25 Q 88.39 91.74 155.56 59.06 Q 214.98 30.15 282.07 37.48 Q 292.10 38.57 301.84 40.54 Q 343.38 48.93 379.91 70.86 Q 416.33 92.72 442.87 125.86 Q 484.34 177.65 490.71 244.00 Q 491.30 250.16 490.44 253.69 Q 490.11 255.02 489.53 254.26 Q 489.33 254.01 489.23 253.56 Q 488.73 251.18 488.50 248.75 Q 481.98 180.19 439.93 127.14 Q 433.80 119.41 426.80 112.08 Q 370.30 52.97 288.68 41.91 Q 278.70 40.56 268.76 40.14 Q 193.34 36.96 131.26 78.58 Q 122.79 84.26 115.24 90.55 Q 81.27 118.87 60.56 158.39 A 0.34 0.21 -48.4 0 0 60.52 158.62 Q 60.56 158.81 60.73 158.52 Q 67.97 145.55 77.06 133.81 Q 88.98 118.44 107.46 101.46 Q 132.46 78.51 163.41 64.54 Q 218.95 39.48 279.03 46.88 Q 288.83 48.08 298.72 50.36 Q 367.70 66.21 414.89 118.51 Q 421.87 126.24 427.47 134.05 Q 446.76 160.93 457.31 194.19 Q 459.84 202.16 459.53 208.69 Q 459.50 209.41 459.22 209.74 Q 458.67 210.39 457.81 209.44 Q 457.01 208.54 455.13 202.71 Q 439.25 153.39 403.94 116.56 Q 375.40 86.80 337.52 69.82 Q 328.48 65.77 318.90 62.57 Q 253.48 40.70 186.83 61.75 Q 185.08 62.30 183.53 63.35 Q 182.50 64.04 181.48 64.74 Q 180.44 65.43 179.27 65.90 Q 159.42 73.78 147.31 80.06 Q 131.64 88.20 118.49 99.99 Q 118.10 100.33 118.60 100.21 Q 118.69 100.19 118.76 100.12 Q 125.12 94.07 132.89 90.03 Q 133.38 89.77 133.79 89.74 Q 135.06 89.64 134.19 90.94 Q 132.35 93.69 126.87 98.13 Q 88.93 128.90 68.24 173.21 Q 57.91 195.35 51.50 220.00 Q 49.92 226.07 49.42 231.24 Q 44.94 277.86 61.56 321.48 Q 75.34 357.64 101.55 385.57 Q 108.32 392.79 116.00 399.38 Q 161.72 438.58 222.46 444.79 Q 226.12 445.17 232.55 445.45 Q 237.61 445.67 242.67 445.98 Q 243.05 446.00 243.31 446.12 Q 244.19 446.50 243.29 446.89 Q 243.04 447.00 242.69 447.01 Q 226.09 447.68 213.25 446.00 Q 149.57 437.68 103.94 393.81 Q 74.29 365.31 58.42 327.02 Q 54.66 317.93 51.76 308.17 Q 32.77 244.31 55.02 180.53 Q 55.19 180.06 54.99 180.52 Z M 113.6234 104.0654 A 0.29 0.29 0 0 0 113.2136 104.0496 L 103.2349 113.2900 A 0.29 0.29 0 0 0 103.2191 113.6998 L 103.4366 113.9346 A 0.29 0.29 0 0 0 103.8464 113.9504 L 113.8251 104.7100 A 0.29 0.29 0 0 0 113.8409 104.3002 L 113.6234 104.0654 Z M 285.75 470.71 Q 288.27 470.42 290.76 469.97 Q 290.94 469.94 291.09 469.84 Q 291.99 469.22 290.98 469.40 Q 287.87 469.94 284.75 470.46 Q 233.25 476.24 186.81 461.69 Q 157.61 452.54 131.35 436.87 Q 129.35 435.68 130.80 436.64 Q 171.12 463.35 219.00 470.72 Q 252.38 475.86 285.75 470.71 Z"/>
<rect fill="rgb(201,117,65)" fill-opacity="1.000" x="-7.09" y="-0.45" width="14.18" height="0.90" rx="0.29" transform="translate(108.53,109.00) rotate(-42.8)"/>
<path fill="rgb(182,119,79)" fill-opacity="1.000" d="M 252.50 152.21 Q 252.08 152.18 251.96 152.50 Q 250.73 152.01 250.75 153.75 Q 251.17 184.56 250.79 237.00 Q 250.48 237.37 250.00 237.46 Q 249.82 237.14 249.65 236.82 Q 249.50 236.51 249.50 236.13 Q 249.43 178.74 249.56 154.19 Q 249.57 153.17 250.03 151.78 Q 250.24 151.12 249.71 151.25 Q 249.42 151.33 249.19 151.69 Q 240.65 165.05 236.06 178.31 Q 233.73 185.05 234.46 194.75 Q 234.03 194.43 233.50 194.46 Q 232.91 192.65 233.05 190.75 Q 234.13 175.11 242.05 161.81 Q 245.16 156.58 245.21 156.49 Q 247.40 152.66 249.73 148.86 Q 250.30 147.94 250.79 148.89 L 252.50 152.21 Z"/>
<path fill="rgb(0,0,0)" fill-opacity="1.000" d="M 250.00 237.46 L 249.75 237.50 A 0.56 0.39 57.5 0 1 249.32 237.32 Q 246.34 234.32 244.25 229.75 Q 236.39 212.59 234.46 194.75 Q 233.73 185.05 236.06 178.31 Q 240.65 165.05 249.19 151.69 Q 249.42 151.33 249.71 151.25 Q 250.24 151.12 250.03 151.78 Q 249.57 153.17 249.56 154.19 Q 249.43 178.74 249.50 236.13 Q 249.50 236.51 249.65 236.82 Q 249.82 237.14 250.00 237.46 Z"/>
<path fill="rgb(0,0,0)" fill-opacity="1.000" d="M 251.96 152.50 L 259.75 166.79 Q 264.63 176.57 265.63 187.15 Q 266.41 195.35 264.02 206.19 Q 261.94 215.59 258.53 224.65 Q 256.42 230.27 252.00 236.25 Q 251.41 237.05 250.79 237.00 Q 251.17 184.56 250.75 153.75 Q 250.73 152.01 251.96 152.50 Z"/>
<path fill="rgb(222,149,98)" fill-opacity="1.000" d="M 252.50 152.21 L 260.25 166.21 L 259.75 166.79 L 251.96 152.50 Q 252.08 152.18 252.50 152.21 Z"/>
<path fill="rgb(222,149,98)" fill-opacity="1.000" d="M 260.25 166.21 Q 267.54 179.20 267.07 194.09 Q 267.05 194.73 267.49 194.26 Q 282.21 178.71 301.82 170.06 Q 303.02 169.53 302.67 170.79 Q 301.28 175.75 300.25 181.10 Q 296.98 197.98 285.05 210.31 Q 279.27 216.28 273.37 221.54 Q 272.22 222.56 273.73 222.25 Q 287.29 219.48 301.00 221.29 L 301.00 222.21 Q 281.69 219.89 264.00 226.25 Q 261.18 227.26 257.87 229.41 Q 257.39 229.72 257.17 230.11 Q 256.46 231.37 258.06 231.08 Q 278.50 227.35 298.94 223.69 Q 301.30 223.26 302.29 222.50 L 303.50 221.96 L 307.10 222.45 Q 307.88 222.56 307.17 223.00 Q 290.43 233.18 271.00 234.97 Q 263.02 235.70 255.00 235.51 A 1.25 1.20 23.0 0 0 254.13 235.84 Q 252.75 237.12 251.71 238.66 Q 250.75 240.07 250.75 242.10 Q 250.74 248.80 250.71 255.50 Q 250.70 256.12 250.30 256.33 A 0.42 0.36 75.8 0 1 249.77 255.95 Q 249.00 246.26 249.50 243.50 Q 250.20 239.60 246.10 236.17 A 2.94 2.94 63.9 0 0 244.15 235.50 Q 234.46 235.76 225.00 234.48 Q 209.93 232.44 196.71 225.00 Q 196.67 224.42 197.25 224.46 Q 218.65 235.52 242.77 234.03 Q 243.18 234.01 243.71 234.09 Q 245.43 234.34 244.35 233.12 A 1.57 1.34 -11.6 0 0 243.50 232.65 L 197.54 224.00 Q 196.32 222.12 195.00 224.04 Q 194.01 223.70 193.36 222.96 A 0.33 0.31 -25.8 0 1 193.56 222.45 Q 210.24 218.83 226.95 222.33 Q 227.44 222.43 227.09 222.08 Q 222.41 217.29 217.53 212.72 Q 208.05 203.82 203.32 192.00 Q 201.91 188.47 200.17 181.36 Q 198.84 175.89 197.57 170.56 Q 197.35 169.61 198.24 170.00 Q 217.95 178.49 232.56 194.19 Q 232.82 194.46 233.50 194.46 Q 234.03 194.43 234.46 194.75 Q 236.39 212.59 244.25 229.75 Q 246.34 234.32 249.32 237.32 A 0.56 0.39 57.5 0 0 249.75 237.50 L 250.00 237.46 Q 250.48 237.37 250.79 237.00 Q 251.41 237.05 252.00 236.25 Q 256.42 230.27 258.53 224.65 Q 261.94 215.59 264.02 206.19 Q 266.41 195.35 265.63 187.15 Q 264.63 176.57 259.75 166.79 L 260.25 166.21 Z M 210.53 184.94 Q 223.88 201.13 237.57 217.05 A 0.11 0.10 -55.1 0 0 237.75 217.01 L 237.83 216.84 A 1.06 0.76 -50.2 0 0 237.88 216.15 Q 234.63 206.43 234.00 200.50 Q 233.68 197.50 232.16 195.48 Q 232.14 195.46 228.50 191.84 Q 216.57 179.98 201.20 172.45 Q 199.65 171.69 200.74 173.02 Q 205.85 179.26 210.53 184.94 Z M 289.96 184.75 Q 290.23 185.13 290.75 185.04 Q 270.56 210.33 264.19 217.19 Q 260.30 221.37 258.50 227.00 Q 258.30 227.64 258.92 227.38 Q 263.14 225.58 267.30 223.87 Q 270.24 222.66 272.52 220.64 Q 278.92 214.95 283.44 210.44 Q 289.26 204.61 293.32 197.24 Q 295.89 192.60 297.71 186.30 Q 299.27 180.92 300.55 174.81 Q 300.97 172.81 299.63 174.40 L 294.25 180.79 L 293.75 180.21 L 299.66 173.11 A 0.50 0.37 -55.9 0 0 299.63 172.41 Q 299.21 172.23 298.56 172.56 Q 281.09 181.51 268.62 194.99 Q 267.27 196.45 266.83 198.49 Q 264.86 207.58 262.25 216.51 Q 261.58 218.77 263.10 216.95 L 289.96 184.75 Z M 236.74 217.79 Q 218.44 195.94 200.30 173.92 Q 198.85 172.17 199.50 174.35 Q 200.36 177.22 201.08 181.03 Q 204.12 197.22 215.38 209.12 Q 221.55 215.64 228.49 221.32 Q 230.62 223.07 233.62 224.17 Q 237.49 225.59 241.27 227.35 Q 241.74 227.57 241.59 227.08 Q 240.05 221.74 236.74 217.79 Z M 199.70 222.97 Q 199.71 223.20 200.00 223.26 Q 221.11 227.32 242.33 230.82 Q 243.97 231.09 243.00 230.00 Q 241.69 228.52 237.95 227.04 Q 219.88 219.87 200.27 222.28 A 0.65 0.65 84.9 0 0 199.70 222.97 Z M 259.43 234.12 Q 281.96 235.10 302.07 225.15 Q 303.33 224.53 302.37 224.13 Q 302.05 223.99 301.62 224.07 Q 279.01 228.26 256.45 232.66 Q 255.94 232.76 255.63 233.02 Q 254.75 233.76 255.76 234.12 Q 256.14 234.25 256.75 234.20 Q 258.09 234.07 259.43 234.12 Z"/>
<path fill="rgb(196,119,69)" fill-opacity="1.000" d="M 417.32 418.96 Q 393.52 443.97 363.19 460.48 Q 354.54 465.19 345.14 469.05 Q 288.29 492.41 226.00 484.50 Q 198.81 481.05 173.97 472.08 Q 104.18 446.87 60.94 387.75 Q 55.01 379.65 49.99 371.02 Q 20.56 320.45 17.75 262.50 Q 15.60 218.15 30.99 174.67 Q 31.02 174.60 31.94 171.79 Q 32.88 168.94 34.06 167.31 Q 35.51 165.32 34.69 168.23 Q 33.41 172.80 31.89 177.30 Q 14.14 229.98 21.47 285.25 Q 25.74 317.50 38.95 347.19 Q 39.10 347.51 39.26 347.62 Q 39.60 347.85 39.71 347.26 Q 39.76 347.02 39.65 346.76 Q 29.64 323.32 24.81 298.29 Q 24.12 294.67 24.50 291.00 Q 24.66 289.47 25.19 290.81 Q 27.46 296.57 28.80 302.64 Q 38.57 346.69 63.55 383.76 Q 69.07 391.95 75.71 399.62 Q 105.14 433.64 143.81 454.69 Q 180.95 474.90 223.81 480.62 Q 233.36 481.90 243.74 482.28 Q 274.01 483.40 304.00 478.49 Q 330.53 474.15 357.31 462.31 Q 362.82 459.88 366.99 457.47 Q 369.07 456.27 376.10 451.63 Q 434.67 412.97 463.82 349.38 Q 467.74 340.81 470.04 331.79 Q 476.09 308.05 477.35 283.49 Q 477.99 270.98 476.77 258.50 Q 476.60 256.73 477.05 254.79 Q 477.31 253.68 477.43 254.82 Q 480.97 288.82 473.80 321.51 Q 468.72 344.64 457.44 365.44 Q 446.85 384.97 430.66 404.05 Q 423.71 412.26 417.32 418.96 Z"/>
<path fill="rgb(0,0,0)" fill-opacity="1.000" d="M 210.53 184.94 Q 205.85 179.26 200.74 173.02 Q 199.65 171.69 201.20 172.45 Q 216.57 179.98 228.50 191.84 Q 232.14 195.46 232.16 195.48 Q 233.68 197.50 234.00 200.50 Q 234.63 206.43 237.88 216.15 A 1.06 0.76 -50.2 0 1 237.83 216.84 L 237.75 217.01 A 0.11 0.10 -55.1 0 1 237.57 217.05 Q 223.88 201.13 210.53 184.94 Z"/>
<path fill="rgb(0,0,0)" fill-opacity="1.000" d="M 293.75 180.21 L 289.96 184.75 L 263.10 216.95 Q 261.58 218.77 262.25 216.51 Q 264.86 207.58 266.83 198.49 Q 267.27 196.45 268.62 194.99 Q 281.09 181.51 298.56 172.56 Q 299.21 172.23 299.63 172.41 A 0.50 0.37 -55.9 0 1 299.66 173.11 L 293.75 180.21 Z"/>
<path fill="rgb(0,0,0)" fill-opacity="1.000" d="M 236.74 217.79 Q 240.05 221.74 241.59 227.08 Q 241.74 227.57 241.27 227.35 Q 237.49 225.59 233.62 224.17 Q 230.62 223.07 228.49 221.32 Q 221.55 215.64 215.38 209.12 Q 204.12 197.22 201.08 181.03 Q 200.36 177.22 199.50 174.35 Q 198.85 172.17 200.30 173.92 Q 218.44 195.94 236.74 217.79 Z"/>
<path fill="rgb(0,0,0)" fill-opacity="1.000" d="M 290.75 185.04 L 294.25 180.79 L 299.63 174.40 Q 300.97 172.81 300.55 174.81 Q 299.27 180.92 297.71 186.30 Q 295.89 192.60 293.32 197.24 Q 289.26 204.61 283.44 210.44 Q 278.92 214.95 272.52 220.64 Q 270.24 222.66 267.30 223.87 Q 263.14 225.58 258.92 227.38 Q 258.30 227.64 258.50 227.00 Q 260.30 221.37 264.19 217.19 Q 270.56 210.33 290.75 185.04 Z"/>
<path fill="rgb(222,149,98)" fill-opacity="1.000" d="M 293.75 180.21 L 294.25 180.79 L 290.75 185.04 Q 290.23 185.13 289.96 184.75 L 293.75 180.21 Z"/>
<path fill="rgb(201,117,65)" fill-opacity="1.000" d="M 301.00 221.29 L 303.50 221.96 L 302.29 222.50 Q 301.74 222.09 301.00 222.21 L 301.00 221.29 Z"/>
<path fill="rgb(0,0,0)" fill-opacity="1.000" d="M 199.70 222.97 A 0.65 0.65 84.9 0 1 200.27 222.28 Q 219.88 219.87 237.95 227.04 Q 241.69 228.52 243.00 230.00 Q 243.97 231.09 242.33 230.82 Q 221.11 227.32 200.00 223.26 Q 199.71 223.20 199.70 222.97 Z"/>
<path fill="rgb(0,0,0)" fill-opacity="1.000" d="M 301.00 222.21 Q 301.74 222.09 302.29 222.50 Q 301.30 223.26 298.94 223.69 Q 278.50 227.35 258.06 231.08 Q 256.46 231.37 257.17 230.11 Q 257.39 229.72 257.87 229.41 Q 261.18 227.26 264.00 226.25 Q 281.69 219.89 301.00 222.21 Z"/>
<path fill="rgb(201,117,65)" fill-opacity="1.000" d="M 197.54 224.00 L 197.25 224.46 Q 196.67 224.42 196.71 225.00 L 195.00 224.04 Q 196.32 222.12 197.54 224.00 Z"/>
<path fill="rgb(254,254,254)" fill-opacity="1.000" d="M 139.42 228.54 Q 139.04 230.33 141.51 229.86 A 1.90 1.43 -32.8 0 1 142.47 229.93 Q 144.92 230.94 141.60 231.00 Q 141.13 231.01 140.41 231.12 Q 137.69 231.55 137.82 229.13 Q 137.94 227.00 137.94 226.86 Q 137.91 225.31 138.21 223.80 A 0.54 0.52 8.7 0 1 138.80 223.38 Q 140.29 223.58 141.80 223.52 Q 142.30 223.50 142.67 223.63 Q 144.51 224.25 142.22 224.67 Q 141.82 224.75 141.28 224.65 Q 139.06 224.26 139.42 225.95 A 0.75 0.67 -1.8 0 0 140.06 226.49 Q 144.91 227.01 140.05 227.97 A 0.81 0.72 -0.7 0 0 139.42 228.54 Z"/>
<path fill="rgb(254,254,254)" fill-opacity="1.000" d="M 147.20 224.99 Q 145.93 225.69 147.30 226.18 Q 148.78 226.72 150.18 227.39 Q 152.28 228.41 151.20 229.90 Q 150.56 230.78 149.40 231.05 Q 147.40 231.52 145.74 230.09 Q 145.42 229.82 145.31 229.41 Q 144.86 227.81 146.44 229.09 Q 147.83 230.22 149.56 229.56 Q 151.29 228.91 149.25 228.25 Q 148.21 227.91 147.20 227.50 Q 145.95 226.99 145.56 226.17 Q 144.84 224.66 146.94 223.69 Q 149.83 222.34 151.00 224.50 Q 152.06 226.46 150.39 225.77 Q 150.09 225.65 149.60 225.20 Q 148.55 224.24 147.20 224.99 Z"/>
<path fill="rgb(254,254,254)" fill-opacity="1.000" d="M 154.89 225.04 Q 154.45 224.62 153.74 224.67 A 0.80 0.59 -10.9 0 1 153.00 224.32 Q 152.68 223.56 153.69 223.54 Q 155.88 223.50 158.07 223.65 A 0.57 0.49 4.2 0 1 158.61 224.18 Q 158.55 225.01 157.31 224.89 A 0.59 0.54 9.2 0 0 156.69 225.30 Q 156.14 227.60 156.50 229.00 Q 157.01 230.99 155.67 230.90 A 0.60 0.58 2.1 0 1 155.11 230.32 L 155.11 225.93 A 1.24 0.44 -84.4 0 0 154.89 225.04 Z"/>
<path fill="rgb(254,254,254)" fill-opacity="1.000" d="M 166.31 225.20 Q 167.85 227.14 166.53 229.17 Q 165.62 230.57 163.83 230.89 Q 162.40 231.15 160.92 230.91 A 0.65 0.62 4.5 0 1 160.38 230.31 L 160.29 224.40 A 0.86 0.81 -3.0 0 1 161.08 223.58 Q 162.75 223.43 163.98 223.70 Q 165.37 224.01 166.31 225.20 Z M 163.11 224.72 A 0.96 0.90 9.4 0 0 161.87 225.55 L 161.84 229.07 A 0.77 0.63 8.7 0 0 162.42 229.71 Q 164.68 230.27 165.31 227.95 Q 165.94 225.59 163.11 224.72 Z"/>
<path fill="rgb(254,254,254)" fill-opacity="1.000" d="M 336.06 229.74 Q 336.90 229.83 337.73 229.92 Q 339.80 230.17 338.34 230.85 Q 338.03 231.00 337.63 231.00 Q 335.69 231.00 333.73 231.00 Q 331.76 231.00 333.34 229.82 Q 334.90 228.66 336.47 227.22 Q 337.67 226.11 336.85 225.10 A 1.03 0.96 -20.8 0 0 336.00 224.75 Q 334.81 224.85 334.34 225.96 A 0.79 0.56 -73.9 0 1 333.69 226.47 Q 332.86 226.39 333.25 225.25 Q 333.85 223.51 335.71 223.41 Q 337.12 223.33 338.06 224.25 Q 339.34 225.51 338.05 227.24 Q 337.79 227.58 336.94 228.24 Q 336.34 228.71 335.86 229.30 Q 335.54 229.69 336.06 229.74 Z"/>
<path fill="rgb(254,254,254)" fill-opacity="1.000" d="M 343.6449 231.2898 A 4.00 3.29 89.5 0 1 340.3201 227.3187 A 4.00 3.29 89.5 0 1 343.5751 223.2901 A 4.00 3.29 89.5 0 1 346.8999 227.2613 A 4.00 3.29 89.5 0 1 343.6449 231.2898 Z M 343.6067 230.0498 A 2.73 1.96 90.7 0 0 345.5999 227.3439 A 2.73 1.96 90.7 0 0 343.6733 224.5902 A 2.73 1.96 90.7 0 0 341.6801 227.2961 A 2.73 1.96 90.7 0 0 343.6067 230.0498 Z"/>
<path fill="rgb(254,254,254)" fill-opacity="1.000" d="M 351.82 229.71 L 353.69 229.79 A 0.77 0.52 -0.6 0 1 354.40 230.26 Q 354.46 230.71 353.69 230.94 Q 350.32 231.90 349.25 231.00 Q 347.46 229.49 350.00 229.25 Q 351.30 229.13 352.19 227.19 Q 353.64 224.02 350.66 225.01 A 1.17 0.79 -83.1 0 0 350.08 225.68 Q 349.92 226.17 349.51 226.46 A 0.38 0.36 67.0 0 1 348.94 226.21 Q 348.36 223.52 351.50 223.50 Q 354.09 223.49 354.09 225.54 Q 354.10 226.51 353.17 227.57 Q 352.41 228.44 351.64 229.31 Q 351.31 229.69 351.82 229.71 Z"/>
<path fill="rgb(254,254,254)" fill-opacity="1.000" d="M 358.75 229.04 Q 358.26 229.12 358.00 228.79 L 359.88 226.83 A 1.27 1.08 68.7 0 0 360.19 225.93 Q 360.09 224.19 358.40 224.75 A 1.15 0.94 -85.4 0 0 357.78 225.40 Q 357.02 227.40 356.46 225.80 A 1.07 1.02 52.7 0 1 356.56 224.89 Q 358.14 222.44 360.77 224.04 A 1.18 1.18 9.3 0 1 361.31 224.79 Q 361.99 227.88 358.75 229.04 Z"/>
<path fill="rgb(0,0,0)" fill-opacity="1.000" d="M 197.54 224.00 L 243.50 232.65 A 1.57 1.34 -11.6 0 1 244.35 233.12 Q 245.43 234.34 243.71 234.09 Q 243.18 234.01 242.77 234.03 Q 218.65 235.52 197.25 224.46 L 197.54 224.00 Z"/>
<path fill="rgb(0,0,0)" fill-opacity="1.000" d="M 259.43 234.12 Q 258.09 234.07 256.75 234.20 Q 256.14 234.25 255.76 234.12 Q 254.75 233.76 255.63 233.02 Q 255.94 232.76 256.45 232.66 Q 279.01 228.26 301.62 224.07 Q 302.05 223.99 302.37 224.13 Q 303.33 224.53 302.07 225.15 Q 281.96 235.10 259.43 234.12 Z"/>
<path fill="rgb(0,0,0)" fill-opacity="1.000" d="M 163.11 224.72 Q 165.94 225.59 165.31 227.95 Q 164.68 230.27 162.42 229.71 A 0.77 0.63 8.7 0 1 161.84 229.07 L 161.87 225.55 A 0.96 0.90 9.4 0 1 163.11 224.72 Z"/>
<ellipse fill="rgb(0,0,0)" fill-opacity="1.000" cx="0" cy="0" rx="2.73" ry="1.96" transform="translate(343.64,227.32) rotate(90.7)"/>
<path fill="rgb(254,254,254)" fill-opacity="1.000" d="M 358.00 228.79 Q 358.26 229.12 358.75 229.04 Q 358.34 230.08 359.82 229.84 Q 360.30 229.76 360.67 229.86 Q 363.38 230.61 359.74 230.94 Q 353.24 231.53 358.00 228.79 Z"/>
<path fill="rgb(182,119,79)" fill-opacity="1.000" d="M 105.68 384.49 Q 105.09 383.98 104.31 383.19 Q 74.96 352.99 62.31 313.19 Q 50.86 277.16 54.33 239.04 Q 54.34 238.91 54.57 235.45 Q 54.74 232.85 55.31 231.56 Q 56.40 229.12 56.34 232.00 Q 56.22 238.75 55.89 245.51 Q 52.24 321.61 101.44 378.56 Q 106.44 384.35 116.87 393.21 Q 119.09 395.11 123.02 397.84 Q 127.68 401.08 128.94 402.81 Q 130.38 404.81 128.20 403.29 Q 116.86 395.45 107.10 385.73 Q 106.88 385.51 105.68 384.49 Z"/>
<path fill="rgb(254,254,254)" fill-opacity="1.000" d="M 112.44 278.56 Q 108.24 278.59 107.06 282.30 Q 106.32 284.65 108.55 285.68 Q 112.65 287.57 116.68 289.56 Q 119.31 290.86 120.18 292.19 Q 121.60 294.37 120.50 297.00 Q 118.92 300.80 113.99 301.45 Q 107.58 302.29 103.62 297.41 Q 101.80 295.17 104.09 296.37 Q 104.41 296.54 104.70 296.85 Q 108.03 300.35 113.00 299.99 Q 115.97 299.78 117.25 297.10 Q 119.18 293.10 114.98 291.56 Q 111.70 290.35 108.64 288.71 Q 105.43 287.00 104.54 285.02 Q 103.50 282.73 104.93 280.46 Q 106.00 278.78 108.25 277.87 Q 114.80 275.23 119.91 280.75 Q 120.23 281.11 120.27 281.47 Q 120.35 282.23 119.54 281.96 Q 119.24 281.86 118.92 281.55 Q 115.80 278.54 112.44 278.56 Z"/>
<path fill="rgb(254,254,254)" fill-opacity="1.000" d="M 308.70 287.54 Q 304.76 285.10 306.69 280.94 Q 308.00 278.12 311.58 277.40 Q 317.98 276.12 321.69 280.31 Q 323.34 282.18 321.55 281.81 Q 321.11 281.72 320.71 281.34 Q 317.82 278.63 313.93 278.68 Q 311.98 278.71 310.89 279.58 Q 309.66 280.58 309.10 282.51 A 2.37 2.35 29.3 0 0 309.78 284.90 Q 311.44 286.43 313.53 287.17 Q 316.04 288.05 318.39 289.27 Q 321.38 290.82 322.37 292.57 Q 323.97 295.41 321.56 298.56 Q 319.78 300.90 315.99 301.40 Q 309.13 302.31 305.11 297.09 A 1.18 0.68 43.3 0 1 304.84 296.19 Q 304.99 295.74 305.66 296.06 Q 305.94 296.19 306.26 296.53 Q 308.92 299.31 312.76 299.92 Q 317.33 300.65 319.29 297.33 Q 320.30 295.62 319.74 294.04 Q 319.12 292.28 316.99 291.52 Q 312.63 289.96 308.70 287.54 Z"/>
<path fill="rgb(254,254,254)" fill-opacity="1.000" d="M 132.69 299.81 Q 128.66 297.01 129.00 291.75 Q 129.26 287.68 128.84 278.56 A 0.70 0.65 79.5 0 1 129.28 277.87 Q 130.09 277.61 130.95 277.72 A 0.58 0.55 -86.1 0 1 131.43 278.30 Q 131.40 291.25 131.75 294.00 Q 132.07 296.46 133.96 298.15 Q 135.60 299.63 138.02 299.90 Q 142.27 300.39 144.41 297.10 Q 145.67 295.16 145.78 290.99 Q 145.96 284.65 146.05 278.31 A 0.88 0.63 83.3 0 1 146.47 277.55 Q 146.91 277.38 147.23 277.75 Q 147.44 277.98 147.44 278.43 Q 147.55 284.96 147.50 291.50 Q 147.47 296.37 144.78 299.09 Q 142.55 301.36 139.07 301.62 Q 135.65 301.88 132.69 299.81 Z"/>
<path fill="rgb(254,254,254)" fill-opacity="1.000" d="M 166.70 292.22 L 160.98 292.09 A 0.65 0.57 -85.0 0 0 160.39 292.65 Q 159.86 296.74 160.21 299.73 Q 160.42 301.48 158.05 300.89 A 0.69 0.65 7.4 0 1 157.53 300.25 L 157.48 278.25 A 0.58 0.55 -2.9 0 1 158.00 277.70 Q 160.42 277.47 162.84 277.57 Q 167.44 277.76 167.66 277.79 Q 170.01 278.10 171.86 279.53 Q 173.63 280.90 174.24 283.12 Q 175.66 288.21 170.18 291.07 A 0.65 0.63 59.0 0 0 169.96 292.01 L 175.67 300.27 A 0.41 0.40 62.1 0 1 175.49 300.88 Q 173.41 301.67 172.33 299.92 Q 171.77 299.04 171.74 298.99 Q 169.51 295.92 167.46 292.74 A 1.12 0.74 67.8 0 0 166.70 292.22 Z M 166.76 279.69 Q 164.14 279.26 160.86 279.63 A 0.68 0.68 87.2 0 0 160.25 280.31 L 160.25 289.61 A 0.64 0.64 45.0 0 0 160.89 290.25 Q 162.75 290.25 164.74 290.38 Q 167.23 290.55 169.09 289.34 Q 170.93 288.16 171.45 285.93 Q 172.04 283.42 170.42 281.55 Q 169.15 280.09 166.76 279.69 Z"/>
<path fill="rgb(254,254,254)" fill-opacity="1.000" d="M 191.18 290.44 A 0.44 0.43 45.2 0 0 191.93 290.45 L 199.06 278.24 A 1.62 1.21 -79.1 0 1 199.77 277.59 Q 200.82 277.16 200.61 278.30 Q 200.54 278.67 200.27 279.16 Q 196.95 285.06 193.64 290.97 Q 192.38 293.22 192.25 295.32 Q 192.12 297.66 192.43 300.00 A 0.85 0.73 72.2 0 1 192.10 300.79 Q 191.00 301.45 189.91 300.79 A 0.85 0.75 -72.8 0 1 189.56 300.00 Q 189.83 297.66 189.71 295.32 Q 189.60 293.18 188.37 290.96 Q 183.16 281.54 182.00 279.75 Q 180.09 276.79 183.34 277.78 A 1.31 1.20 -4.6 0 1 184.07 278.35 L 191.18 290.44 Z"/>
<path fill="rgb(254,254,254)" fill-opacity="1.000" d="M 221.18 295.05 L 210.87 295.01 A 1.40 1.37 -78.9 0 0 209.57 295.91 Q 208.95 297.49 208.40 298.65 Q 208.37 298.70 207.91 300.04 Q 207.48 301.28 206.07 300.99 A 0.53 0.53 17.3 0 1 205.69 300.27 L 214.54 279.45 Q 216.37 275.15 218.15 279.44 L 226.81 300.28 A 0.50 0.47 69.4 0 1 226.53 300.94 Q 225.43 301.29 224.42 300.76 A 1.56 1.00 83.2 0 1 223.82 300.03 L 221.90 295.52 A 0.79 0.77 -11.3 0 0 221.18 295.05 Z M 215.60 281.53 L 210.95 292.55 A 0.37 0.37 14.8 0 0 211.25 293.06 Q 215.76 293.57 220.26 293.06 A 0.39 0.39 75.5 0 0 220.57 292.53 L 216.03 281.53 Q 215.82 281.02 215.60 281.53 Z"/>
<path fill="rgb(254,254,254)" fill-opacity="1.000" d="M 267.90 282.47 L 258.48 297.04 A 0.60 0.58 -45.2 0 1 257.48 297.06 L 248.25 282.59 Q 247.54 281.48 247.57 282.79 Q 247.73 290.46 247.52 298.57 Q 247.51 298.83 247.61 299.93 Q 247.74 301.39 246.52 300.91 A 0.79 0.72 -80.3 0 1 246.06 300.19 L 246.05 278.30 A 0.65 0.63 83.9 0 1 246.54 277.67 Q 247.36 277.50 248.13 277.81 Q 248.73 278.05 249.22 278.85 Q 253.39 285.58 258.00 293.07 A 0.53 0.52 -44.8 0 0 258.89 293.07 L 268.05 278.49 A 1.56 1.28 -79.6 0 1 268.77 277.88 Q 271.32 276.99 271.11 279.70 Q 270.99 281.25 270.99 281.31 Q 270.82 290.75 270.93 300.19 A 0.73 0.72 79.1 0 1 270.47 300.88 Q 267.92 301.85 268.13 299.34 Q 268.25 297.76 268.25 297.65 Q 268.29 290.11 268.19 282.56 Q 268.19 282.02 267.90 282.47 Z"/>
<path fill="rgb(254,254,254)" fill-opacity="1.000" d="M 278.28 300.77 A 0.33 0.33 -69.3 0 1 278.08 300.32 Q 282.66 289.83 287.14 279.10 Q 287.58 278.06 288.19 277.65 Q 289.51 276.77 290.25 278.50 Q 294.87 289.37 299.49 300.23 A 0.50 0.47 68.4 0 1 299.23 300.89 Q 298.04 301.33 296.93 300.76 A 1.54 0.93 81.6 0 1 296.32 300.02 L 294.40 295.52 A 0.79 0.75 -10.5 0 0 293.68 295.05 L 283.40 295.01 A 1.60 1.57 -80.3 0 0 281.89 296.10 Q 281.39 297.56 280.85 298.72 Q 280.80 298.84 280.44 299.95 Q 280.01 301.29 278.28 300.77 Z M 288.31 281.44 L 283.61 292.58 A 0.37 0.37 -77.7 0 0 283.94 293.10 L 292.70 293.23 A 0.51 0.49 78.6 0 0 293.15 292.52 L 288.57 281.45 Q 288.44 281.13 288.31 281.44 Z"/>
<path fill="rgb(254,254,254)" fill-opacity="1.000" d="M 344.19 295.05 L 333.56 295.05 A 0.82 0.77 -76.7 0 0 332.85 295.52 L 330.65 300.22 A 1.31 1.12 -85.1 0 1 329.98 300.88 Q 328.09 301.59 328.91 299.67 Q 333.41 289.14 337.81 278.56 Q 338.49 276.94 340.07 277.74 A 1.45 1.26 89.4 0 1 340.70 278.45 L 349.81 300.28 A 0.50 0.47 69.4 0 1 349.53 300.94 Q 348.43 301.29 347.42 300.76 A 1.56 1.00 83.2 0 1 346.82 300.03 L 344.90 295.52 A 0.77 0.77 78.5 0 0 344.19 295.05 Z M 338.62 281.51 L 334.00 292.72 A 0.36 0.34 -78.6 0 0 334.31 293.22 L 343.25 293.05 A 0.38 0.36 77.8 0 0 343.57 292.53 L 339.03 281.51 Q 338.83 281.01 338.62 281.51 Z"/>
<path fill="rgb(254,254,254)" fill-opacity="1.000" d="M 357.67 300.31 L 357.55 278.31 A 0.55 0.51 90.0 0 1 358.06 277.76 L 359.44 277.76 A 0.56 0.50 -90.0 0 1 359.94 278.32 L 360.00 298.58 A 0.67 0.66 90.0 0 0 360.66 299.25 Q 366.56 299.25 371.93 299.25 Q 372.61 299.25 373.02 299.47 Q 373.91 299.97 373.10 300.65 Q 372.75 300.94 372.19 300.95 Q 365.18 301.17 358.18 300.84 A 0.54 0.53 1.7 0 1 357.67 300.31 Z"/>
<path fill="rgb(254,254,254)" fill-opacity="1.000" d="M 383.82 299.19 L 396.19 299.31 A 0.89 0.77 -11.9 0 1 396.95 299.73 Q 397.71 301.15 395.50 301.12 Q 388.38 301.00 380.94 301.00 A 0.51 0.51 0.0 0 1 380.43 300.49 L 380.50 278.30 A 0.55 0.54 -90.0 0 1 381.04 277.75 Q 388.62 277.75 395.50 277.64 Q 396.98 277.61 396.44 278.75 A 0.86 0.82 11.7 0 1 395.69 279.22 L 383.94 279.45 A 0.65 0.59 5.0 0 0 383.33 279.92 Q 382.66 283.06 383.25 286.25 A 2.39 1.32 82.1 0 0 384.75 288.25 L 392.19 288.30 A 0.63 0.54 -2.0 0 1 392.81 288.80 Q 392.84 289.24 392.54 289.54 Q 392.32 289.75 391.87 289.75 Q 388.05 289.75 384.03 289.75 A 1.01 0.96 -0.8 0 0 383.02 290.74 L 383.26 298.69 A 0.56 0.52 -1.1 0 0 383.82 299.19 Z"/>
<path fill="rgb(0,0,0)" fill-opacity="1.000" d="M 170.42 281.55 Q 172.04 283.42 171.45 285.93 Q 170.93 288.16 169.09 289.34 Q 167.23 290.55 164.74 290.38 Q 162.75 290.25 160.89 290.25 A 0.64 0.64 -45.0 0 1 160.25 289.61 L 160.25 280.31 A 0.68 0.68 87.2 0 1 160.86 279.63 Q 164.14 279.26 166.76 279.69 Q 169.15 280.09 170.42 281.55 Z"/>
<path fill="rgb(0,0,0)" fill-opacity="1.000" d="M 215.60 281.53 Q 215.82 281.02 216.03 281.53 L 220.57 292.53 A 0.39 0.39 75.5 0 1 220.26 293.06 Q 215.76 293.57 211.25 293.06 A 0.37 0.37 14.8 0 1 210.95 292.55 L 215.60 281.53 Z"/>
<path fill="rgb(0,0,0)" fill-opacity="1.000" d="M 288.31 281.44 Q 288.44 281.13 288.57 281.45 L 293.15 292.52 A 0.51 0.49 78.6 0 1 292.70 293.23 L 283.94 293.10 A 0.37 0.37 -77.7 0 1 283.61 292.58 L 288.31 281.44 Z"/>
<path fill="rgb(0,0,0)" fill-opacity="1.000" d="M 338.62 281.51 Q 338.83 281.01 339.03 281.51 L 343.57 292.53 A 0.38 0.36 77.8 0 1 343.25 293.05 L 334.31 293.22 A 0.36 0.34 -78.6 0 1 334.00 292.72 L 338.62 281.51 Z"/>
<path fill="rgb(222,149,98)" fill-opacity="1.000" d="M 314.50 310.54 L 314.04 309.75 Q 315.91 303.35 314.50 310.54 Z"/>
<path fill="rgb(222,149,98)" fill-opacity="1.000" d="M 350.96 316.00 Q 350.18 315.72 350.00 316.71 Q 350.79 311.78 352.42 307.06 Q 352.66 306.35 352.53 307.22 Q 351.88 311.63 350.96 316.00 Z"/>
<path fill="rgb(222,149,98)" fill-opacity="1.000" d="M 314.04 309.75 L 314.50 310.54 L 312.89 320.29 A 0.76 0.74 -1.2 0 0 313.79 321.14 Q 317.96 320.30 322.68 319.55 Q 323.05 319.49 323.32 319.61 Q 324.04 319.92 323.28 320.35 Q 323.05 320.49 322.70 320.55 Q 317.94 321.37 313.29 322.68 A 0.80 0.78 87.8 0 0 312.72 323.31 Q 309.59 340.42 312.90 358.30 Q 313.54 361.80 312.08 358.56 Q 310.40 354.86 310.01 349.00 Q 309.21 336.95 311.08 324.45 A 0.91 0.91 -4.5 0 0 309.91 323.45 Q 306.61 324.51 303.61 325.27 Q 302.47 325.56 302.89 324.82 Q 303.03 324.58 303.34 324.44 Q 306.98 322.89 310.83 321.93 A 0.82 0.79 89.7 0 0 311.41 321.32 L 314.04 309.75 Z"/>
<path fill="rgb(222,149,98)" fill-opacity="1.000" d="M 205.72 346.22 L 208.25 337.75 Q 209.45 333.74 211.00 333.75 Q 211.69 333.75 211.77 334.34 Q 211.80 334.65 211.55 335.11 Q 207.27 342.92 206.30 351.79 Q 206.24 352.36 206.10 352.68 Q 205.61 353.81 204.94 352.56 Q 204.38 351.54 204.34 350.39 Q 203.70 334.77 207.04 321.71 Q 208.01 317.91 209.19 316.44 Q 211.29 313.82 212.03 316.44 Q 212.29 317.35 212.02 318.56 Q 210.04 327.40 206.50 335.75 Q 205.45 338.21 205.56 346.19 Q 205.56 346.73 205.72 346.22 Z M 209.77 317.60 Q 206.89 324.95 206.32 332.83 A 0.16 0.11 -83.4 0 0 206.41 332.99 L 206.51 333.00 A 0.35 0.17 -70.0 0 0 206.76 332.76 Q 209.72 325.68 211.11 318.13 Q 211.20 317.63 211.19 317.23 Q 211.15 315.41 210.18 316.80 Q 209.96 317.13 209.77 317.60 Z"/>
<path fill="rgb(222,149,98)" fill-opacity="1.000" d="M 350.96 316.00 L 350.46 320.73 A 0.65 0.64 -6.1 0 0 351.31 321.40 Q 355.13 320.19 359.24 319.69 Q 361.70 319.40 360.88 320.19 Q 360.58 320.48 360.01 320.58 Q 356.03 321.28 351.07 322.55 A 1.40 1.39 -3.8 0 0 350.04 323.72 Q 348.85 332.89 348.74 341.95 Q 348.68 346.78 349.20 351.03 Q 349.76 355.55 350.73 360.00 Q 350.82 360.42 350.61 360.48 A 0.45 0.29 71.6 0 1 350.21 360.16 Q 346.90 351.54 347.09 342.25 Q 347.27 333.34 348.55 324.12 A 0.69 0.69 85.7 0 0 347.67 323.36 Q 344.69 324.25 341.58 325.15 Q 341.20 325.26 340.90 325.26 Q 339.78 325.25 340.57 324.52 Q 340.78 324.33 341.11 324.19 Q 344.39 322.79 347.70 322.23 A 2.22 1.83 -87.3 0 0 349.25 320.52 L 350.00 316.71 Q 350.18 315.72 350.96 316.00 Z"/>
<path fill="rgb(0,0,0)" fill-opacity="1.000" d="M 210.18 316.80 Q 211.15 315.41 211.19 317.23 Q 211.20 317.63 211.11 318.13 Q 209.72 325.68 206.76 332.76 A 0.35 0.17 -70.0 0 1 206.51 333.00 L 206.41 332.99 A 0.16 0.11 -83.4 0 1 206.32 332.83 Q 206.89 324.95 209.77 317.60 Q 209.96 317.13 210.18 316.80 Z"/>
<path fill="rgb(222,149,98)" fill-opacity="1.000" d="M 338.21 339.01 A 0.93 0.93 52.5 0 0 338.03 340.31 Q 342.25 345.92 338.48 350.56 Q 337.23 352.10 336.39 352.81 Q 335.13 353.87 333.48 354.03 Q 331.22 354.25 330.21 352.59 Q 329.18 350.88 330.31 348.31 Q 332.62 343.09 335.65 339.87 A 0.47 0.46 -49.5 0 0 335.60 339.19 Q 332.09 336.33 331.19 332.31 Q 329.93 326.70 335.26 325.82 A 1.24 1.11 -29.4 0 1 336.17 326.02 Q 338.73 327.87 337.10 333.55 A 1.14 1.13 -2.2 0 1 336.41 334.29 Q 336.14 334.39 336.23 333.75 Q 336.91 329.15 336.44 328.06 Q 335.81 326.62 334.70 327.06 Q 334.05 327.33 333.51 328.17 Q 331.91 330.69 333.15 333.65 Q 334.21 336.16 336.42 338.28 A 0.66 0.65 50.9 0 0 337.22 338.37 Q 339.11 337.20 341.08 336.40 Q 341.32 336.31 341.56 336.29 Q 343.33 336.14 341.54 337.02 Q 339.56 337.99 338.21 339.01 Z M 331.27 352.03 A 1.63 1.63 -29.0 0 0 333.52 352.67 Q 338.71 349.65 338.94 344.81 Q 339.03 342.79 336.90 341.06 A 0.55 0.55 -49.3 0 0 336.15 341.12 Q 334.32 343.09 332.99 345.42 Q 331.37 348.24 331.29 348.40 Q 330.38 350.38 331.27 352.03 Z"/>
<path fill="rgb(222,149,98)" fill-opacity="1.000" d="M 184.75 343.79 Q 185.37 344.04 185.25 344.71 Q 183.99 345.37 182.90 342.32 Q 182.38 340.89 182.58 339.56 L 183.46 333.75 Q 183.81 332.39 182.71 331.75 Q 183.93 328.94 184.77 331.26 Q 185.01 331.91 184.89 332.76 Q 184.33 336.61 184.00 342.00 Q 183.93 343.20 184.75 343.79 Z"/>
<path fill="rgb(222,149,98)" fill-opacity="1.000" d="M 360.75 337.96 Q 360.98 338.02 361.04 338.25 Q 360.48 339.15 359.00 342.50 Q 357.58 345.72 355.58 343.68 Q 354.66 342.75 354.30 341.18 Q 353.04 335.63 356.89 331.49 Q 357.69 330.63 358.48 330.64 Q 359.33 330.64 359.95 331.34 A 1.33 1.18 -66.2 0 1 360.24 332.24 Q 360.08 335.25 357.63 337.15 Q 356.46 338.06 356.62 337.02 Q 356.66 336.73 356.90 336.41 Q 357.94 334.97 358.72 333.39 A 1.27 0.94 -48.6 0 0 358.80 332.46 Q 358.37 331.37 357.25 333.00 Q 354.45 337.09 355.92 342.20 A 1.16 0.92 89.6 0 0 356.51 342.93 Q 357.48 343.30 357.94 342.19 Q 359.08 339.40 360.75 337.96 Z"/>
<path fill="rgb(222,149,98)" fill-opacity="1.000" d="M 158.54 338.72 L 156.60 342.66 Q 155.42 345.04 153.41 343.68 Q 151.79 342.59 151.79 340.27 Q 151.80 338.85 152.07 336.71 Q 152.46 333.68 154.68 331.56 Q 155.66 330.63 156.70 330.78 Q 158.32 331.03 158.00 333.25 Q 157.72 335.18 155.15 337.20 Q 154.45 337.75 154.42 337.20 Q 154.38 336.64 155.71 335.07 Q 156.29 334.40 156.49 333.53 Q 157.03 331.26 155.59 332.35 Q 155.20 332.65 154.90 333.12 Q 152.23 337.32 153.66 342.20 Q 153.84 342.81 154.21 343.01 Q 154.85 343.36 155.31 342.41 Q 156.32 340.31 158.19 338.19 Q 159.12 337.13 160.27 337.35 Q 160.83 337.46 160.29 337.69 L 159.27 338.11 A 1.53 0.87 -10.3 0 0 158.54 338.72 Z"/>
<path fill="rgb(222,149,98)" fill-opacity="1.000" d="M 221.80 332.74 Q 219.45 336.72 220.04 341.44 Q 220.21 342.81 221.31 343.02 A 0.75 0.64 -68.3 0 0 222.05 342.63 Q 223.99 339.10 224.50 338.50 Q 225.43 337.40 226.75 337.44 Q 227.29 337.46 226.79 337.70 Q 224.87 338.63 224.13 340.53 Q 223.08 343.22 223.01 343.30 Q 221.69 345.09 220.06 343.48 Q 219.23 342.67 218.88 341.26 Q 217.44 335.51 221.67 331.40 Q 222.42 330.67 223.16 330.69 Q 223.90 330.70 224.39 331.23 Q 224.78 331.66 224.73 332.38 Q 224.53 335.21 222.05 336.82 Q 220.31 337.95 221.53 336.27 Q 222.17 335.39 223.10 333.64 Q 224.16 331.63 222.54 332.14 A 1.37 1.21 -80.5 0 0 221.80 332.74 Z"/>
<path fill="rgb(222,149,98)" fill-opacity="1.000" d="M 196.19 338.75 Q 194.65 341.43 193.44 342.44 Q 189.89 345.39 189.69 340.81 Q 189.45 335.51 193.77 332.20 Q 195.32 331.01 196.58 331.00 Q 198.43 330.98 199.40 333.08 Q 199.85 334.03 199.21 333.85 A 1.30 0.71 68.2 0 1 198.59 333.34 Q 196.76 330.70 194.36 333.36 Q 191.16 336.92 191.00 340.75 Q 190.92 342.84 192.39 341.86 Q 192.88 341.53 193.27 340.84 Q 194.37 338.90 195.54 337.00 A 1.49 1.07 -75.6 0 1 196.28 336.38 Q 197.66 335.96 197.93 337.56 Q 197.98 337.82 197.82 339.43 Q 197.67 341.01 198.97 340.99 A 0.98 0.80 -71.2 0 0 199.69 340.54 Q 203.47 334.59 200.36 340.84 A 1.40 1.21 -88.6 0 1 199.86 341.39 Q 196.56 343.29 196.44 338.81 Q 196.43 338.33 196.19 338.75 Z"/>
<path fill="rgb(222,149,98)" fill-opacity="1.000" d="M 264.54 331.25 L 264.50 331.71 Q 260.69 332.54 260.20 336.49 Q 259.98 338.20 261.19 338.14 A 0.74 0.62 -83.1 0 0 261.79 337.57 Q 262.47 334.46 263.23 338.45 A 0.63 0.62 85.9 0 0 263.82 338.97 L 265.82 339.05 A 0.64 0.63 9.3 0 0 266.46 338.60 Q 267.35 335.51 266.00 332.54 Q 266.23 332.48 266.29 332.25 Q 268.21 334.03 268.25 336.75 Q 268.29 339.75 270.25 337.50 Q 270.58 337.12 270.79 337.36 A 0.33 0.27 -29.2 0 1 270.61 337.81 Q 268.06 338.89 267.15 341.51 A 2.00 1.23 -88.6 0 1 266.62 342.33 Q 264.53 344.01 262.70 342.38 Q 262.45 342.15 261.72 340.81 Q 261.40 340.22 260.86 339.80 Q 260.10 339.19 259.90 338.93 Q 257.61 335.80 260.44 332.44 Q 262.12 330.43 264.54 331.25 Z M 265.83 340.77 A 0.48 0.48 -72.0 0 0 265.49 340.10 Q 262.67 339.53 263.14 341.22 A 0.96 0.94 -89.6 0 0 263.78 341.88 Q 265.13 342.31 265.83 340.77 Z"/>
<path fill="rgb(182,119,79)" fill-opacity="1.000" d="M 291.61 335.28 Q 292.43 334.08 292.99 332.73 Q 293.06 332.56 293.20 332.43 Q 295.27 330.53 293.67 332.67 Q 293.56 332.82 293.49 332.97 Q 291.45 337.38 290.94 342.24 Q 290.86 343.06 290.29 343.32 A 0.50 0.42 71.3 0 1 289.68 342.95 Q 288.15 337.28 290.08 331.72 A 1.10 0.65 -79.5 0 1 290.69 331.02 Q 291.21 330.91 291.07 332.01 Q 290.85 333.63 291.20 335.21 Q 291.31 335.72 291.61 335.28 Z"/>
<path fill="rgb(222,149,98)" fill-opacity="1.000" d="M 322.33 339.17 Q 321.11 340.42 320.15 341.91 Q 318.33 344.71 316.38 342.57 A 1.49 1.36 -69.6 0 1 316.03 341.70 Q 315.69 336.28 319.34 332.64 Q 320.71 331.28 322.11 331.05 Q 324.12 330.72 325.39 332.50 Q 326.49 334.04 325.43 333.70 Q 324.90 333.53 323.62 332.13 A 1.08 1.07 -40.9 0 0 322.16 332.03 Q 318.10 335.33 317.34 340.07 Q 317.21 340.91 317.35 341.42 Q 317.64 342.45 318.69 341.80 Q 319.14 341.53 319.50 340.91 Q 320.73 338.79 321.99 336.60 A 0.96 0.95 41.9 0 1 323.59 336.52 Q 324.47 337.73 324.33 339.51 Q 324.21 341.18 325.32 340.92 Q 325.85 340.80 326.31 340.13 Q 326.89 339.28 327.50 338.46 Q 328.51 337.11 327.46 339.23 Q 324.56 345.08 322.83 339.30 A 0.30 0.30 58.9 0 0 322.33 339.17 Z"/>
<path fill="rgb(113,41,17)" fill-opacity="1.000" d="M 264.54 331.25 Q 265.73 331.15 266.29 332.25 Q 266.23 332.48 266.00 332.54 Q 265.36 331.92 264.50 331.71 L 264.54 331.25 Z"/>
<path fill="rgb(196,119,69)" fill-opacity="1.000" d="M 182.71 331.75 Q 183.81 332.39 183.46 333.75 Q 182.56 333.67 182.35 334.57 Q 181.52 338.20 180.08 341.64 Q 179.59 342.82 178.56 342.19 Q 177.35 341.45 178.00 337.75 Q 178.19 336.66 177.59 335.87 A 0.97 0.68 42.9 0 1 177.41 335.02 Q 177.85 334.03 178.70 334.47 Q 179.18 334.72 179.44 335.34 Q 180.04 336.80 179.75 338.46 Q 178.88 339.55 179.47 340.59 Q 179.75 341.10 180.00 340.56 Q 180.43 339.63 180.25 338.54 Q 180.96 338.16 181.00 337.75 Q 181.30 334.59 182.71 331.75 Z"/>
<path fill="rgb(0,0,0)" fill-opacity="1.000" d="M 264.50 331.71 Q 265.36 331.92 266.00 332.54 Q 267.35 335.51 266.46 338.60 A 0.64 0.63 9.3 0 1 265.82 339.05 L 263.82 338.97 A 0.63 0.62 85.9 0 1 263.23 338.45 Q 262.47 334.46 261.79 337.57 A 0.74 0.62 -83.1 0 1 261.19 338.14 Q 259.98 338.20 260.20 336.49 Q 260.69 332.54 264.50 331.71 Z"/>
<path fill="rgb(222,149,98)" fill-opacity="1.000" d="M 140.75 341.46 L 140.00 342.04 Q 137.83 338.42 138.94 333.94 Q 139.17 333.00 139.67 333.39 A 1.10 0.73 -75.3 0 1 139.96 334.24 Q 139.72 337.93 140.75 341.46 Z"/>
<path fill="rgb(222,149,98)" fill-opacity="1.000" d="M 143.50 340.21 Q 143.56 339.45 143.00 338.96 Q 142.65 337.57 143.28 336.48 Q 143.56 335.99 143.73 336.54 Q 144.17 337.95 145.00 342.00 Q 145.34 343.68 145.89 342.32 Q 146.00 342.04 146.00 341.68 Q 146.09 338.07 147.48 334.76 Q 147.56 334.56 147.71 334.42 Q 149.62 332.55 148.29 334.54 Q 148.19 334.69 148.12 334.86 Q 146.75 338.54 146.75 342.60 Q 146.75 344.91 144.96 343.45 Q 143.83 342.53 143.50 340.21 Z"/>
<path fill="rgb(222,149,98)" fill-opacity="1.000" d="M 240.97 340.40 Q 239.34 338.95 240.02 336.26 Q 240.08 336.04 240.20 335.10 Q 240.31 334.27 241.01 334.36 A 0.67 0.46 -88.4 0 1 241.42 335.00 L 241.47 339.21 A 0.71 0.66 6.1 0 0 242.03 339.85 Q 243.11 340.08 243.78 338.79 Q 245.12 336.20 246.50 334.26 Q 247.87 332.32 249.18 334.30 Q 250.99 337.05 251.53 340.17 Q 251.82 341.84 251.98 346.35 Q 252.18 352.01 250.75 357.00 Q 250.29 358.59 249.10 360.13 Q 247.85 361.74 246.30 362.05 Q 244.15 362.49 243.35 360.26 Q 242.92 359.05 243.23 357.20 Q 244.69 348.73 249.89 341.83 A 1.32 1.29 -29.4 0 0 250.15 340.94 Q 249.88 337.86 248.83 335.53 Q 247.93 333.53 247.07 335.55 Q 245.95 338.18 243.99 340.26 Q 242.54 341.80 240.97 340.40 Z M 249.77 343.51 Q 244.10 350.86 244.46 359.54 Q 244.50 360.39 244.89 360.84 Q 245.54 361.58 246.43 361.19 Q 247.09 360.90 247.64 359.90 Q 251.44 353.05 250.31 343.66 Q 250.22 342.92 249.77 343.51 Z"/>
<path fill="rgb(222,149,98)" fill-opacity="1.000" d="M 173.75 335.39 Q 174.45 332.52 175.32 334.53 A 1.47 1.06 -54.8 0 1 175.33 335.47 Q 175.10 336.19 175.06 336.95 Q 175.03 337.48 175.41 338.35 Q 176.28 340.35 174.95 342.13 Q 174.12 343.24 173.79 341.90 Q 172.97 338.56 173.75 335.39 Z"/>
<path fill="rgb(222,149,98)" fill-opacity="1.000" d="M 280.19 338.04 Q 279.29 341.31 277.30 344.07 Q 275.10 347.15 273.35 343.80 Q 272.03 341.28 273.04 337.69 Q 273.14 337.32 273.33 336.29 Q 273.58 334.84 274.60 335.45 A 0.72 0.63 -67.5 0 1 274.86 336.23 Q 273.86 339.80 274.48 343.38 Q 274.73 344.81 275.74 343.76 Q 277.19 342.26 277.80 340.27 Q 278.73 337.29 280.37 334.79 Q 281.46 333.14 281.74 334.98 L 282.32 338.68 A 1.43 0.33 85.2 0 0 282.61 339.58 Q 283.67 340.79 284.25 338.75 Q 284.50 337.86 285.22 337.49 Q 285.72 337.23 285.53 337.79 Q 283.33 344.20 280.51 338.02 Q 280.31 337.58 280.19 338.04 Z"/>
<path fill="rgb(201,117,65)" fill-opacity="1.000" d="M 361.04 338.25 Q 360.98 338.02 360.75 337.96 Q 364.96 336.38 361.04 338.25 Z"/>
<path fill="rgb(182,119,79)" fill-opacity="1.000" d="M 209.94 343.81 Q 209.34 343.66 209.54 343.34 A 0.56 0.41 24.6 0 1 210.16 343.21 Q 212.45 344.06 213.70 341.75 Q 214.72 339.86 215.89 338.07 Q 216.60 336.97 216.23 338.04 Q 215.38 340.52 214.00 342.75 Q 212.87 344.58 209.94 343.81 Z"/>
<path fill="rgb(113,41,17)" fill-opacity="1.000" d="M 253.13 339.05 Q 257.08 336.18 252.69 339.87 Q 252.13 340.35 252.27 339.70 Q 252.33 339.39 252.71 339.25 Q 253.00 339.14 253.13 339.05 Z"/>
<path fill="rgb(182,119,79)" fill-opacity="1.000" d="M 185.25 344.71 Q 185.37 344.04 184.75 343.79 Q 186.92 341.72 187.64 338.73 Q 187.76 338.24 187.76 338.75 Q 187.73 342.22 185.25 344.71 Z"/>
<path fill="rgb(113,41,17)" fill-opacity="1.000" d="M 179.75 338.46 L 180.25 338.54 Q 180.43 339.63 180.00 340.56 Q 179.75 341.10 179.47 340.59 Q 178.88 339.55 179.75 338.46 Z"/>
<path fill="rgb(113,41,17)" fill-opacity="1.000" d="M 143.00 338.96 Q 143.56 339.45 143.50 340.21 Q 143.20 340.50 142.79 340.50 Q 142.83 339.91 142.29 340.00 Q 142.42 339.32 143.00 338.96 Z"/>
<path fill="rgb(182,119,79)" fill-opacity="1.000" d="M 142.29 340.00 Q 142.83 339.91 142.79 340.50 Q 142.52 343.77 140.00 342.04 L 140.75 341.46 Q 142.29 341.82 142.29 340.00 Z"/>
<path fill="rgb(0,0,0)" fill-opacity="1.000" d="M 265.83 340.77 Q 265.13 342.31 263.78 341.88 A 0.96 0.94 -89.6 0 1 263.14 341.22 Q 262.67 339.53 265.49 340.10 A 0.48 0.48 -72.0 0 1 265.83 340.77 Z"/>
<path fill="rgb(0,0,0)" fill-opacity="1.000" d="M 331.27 352.03 Q 330.38 350.38 331.29 348.40 Q 331.37 348.24 332.99 345.42 Q 334.32 343.09 336.15 341.12 A 0.55 0.55 -49.3 0 1 336.90 341.06 Q 339.03 342.79 338.94 344.81 Q 338.71 349.65 333.52 352.67 A 1.63 1.63 -29.0 0 1 331.27 352.03 Z"/>
<path fill="rgb(0,0,0)" fill-opacity="1.000" d="M 249.77 343.51 Q 250.22 342.92 250.31 343.66 Q 251.44 353.05 247.64 359.90 Q 247.09 360.90 246.43 361.19 Q 245.54 361.58 244.89 360.84 Q 244.50 360.39 244.46 359.54 Q 244.10 350.86 249.77 343.51 Z"/>
<path fill="rgb(182,119,79)" fill-opacity="1.000" d="M 62.00 392.29 L 62.75 392.21 Q 64.38 394.40 65.89 396.67 Q 65.95 396.77 66.31 397.12 Q 66.55 397.34 66.47 397.62 Q 66.33 398.16 65.96 397.66 L 62.00 392.29 Z"/>
<path fill="rgb(0,0,0)" fill-opacity="1.000" d="M 284.75 470.46 Q 285.38 470.38 285.75 470.71 Q 252.38 475.86 219.00 470.72 Q 171.12 463.35 130.80 436.64 Q 129.35 435.68 131.35 436.87 Q 157.61 452.54 186.81 461.69 Q 233.25 476.24 284.75 470.46 Z"/>
<path fill="rgb(182,119,79)" fill-opacity="1.000" d="M 150.98 465.40 Q 140.55 461.67 131.15 455.79 Q 130.39 455.32 131.33 455.78 Q 163.66 471.77 193.06 479.69 Q 213.12 485.09 233.72 487.72 Q 234.83 487.86 232.75 487.78 Q 222.89 487.36 213.22 485.39 Q 182.02 479.04 152.82 466.39 Q 152.73 466.35 152.17 466.22 Q 151.90 466.16 151.71 465.97 Q 151.19 465.47 150.98 465.40 Z"/>
<path fill="rgb(113,41,17)" fill-opacity="1.000" d="M 285.75 470.71 Q 285.38 470.38 284.75 470.46 Q 287.87 469.94 290.98 469.40 Q 291.99 469.22 291.09 469.84 Q 290.94 469.94 290.76 469.97 Q 288.27 470.42 285.75 470.71 Z"/>
</svg>