<?xml version="1.0" encoding="UTF-8"?>
<svg xmlns="http://www.w3.org/2000/svg" xmlns:xlink="http://www.w3.org/1999/xlink" width="25px" height="25px" viewBox="0 0 25 25" version="1.1">
<g id="surface1">
<path style=" stroke:none;fill-rule:nonzero;fill:rgb(100%,100%,100%);fill-opacity:1;" d="M 0 0 C 8.332031 0 16.667969 0 25 0 C 25 8.332031 25 16.667969 25 25 C 16.667969 25 8.332031 25 0 25 C 0 16.667969 0 8.332031 0 0 Z M 22.546875 10.488281 C 22.546875 4.859375 17.984375 0.296875 12.355469 0.296875 C 6.726562 0.296875 2.164062 4.859375 2.164062 10.488281 C 2.164062 16.117188 6.726562 20.679688 12.355469 20.679688 C 17.984375 20.679688 22.546875 16.117188 22.546875 10.488281 Z M 7.148438 23.828125 C 7.28125 23.933594 7.425781 23.996094 7.578125 24.027344 C 7.746094 24.058594 7.910156 24.066406 8.078125 24.046875 C 8.261719 24.027344 8.417969 23.980469 8.550781 23.902344 C 8.789062 23.761719 8.941406 23.542969 9.007812 23.25 C 9.085938 22.917969 9.078125 22.601562 8.992188 22.292969 C 8.886719 21.914062 8.636719 21.679688 8.25 21.589844 C 8.109375 21.554688 7.949219 21.546875 7.761719 21.558594 C 7.476562 21.582031 7.246094 21.679688 7.070312 21.851562 C 6.921875 22.003906 6.820312 22.214844 6.769531 22.484375 C 6.703125 22.839844 6.75 23.191406 6.914062 23.539062 C 6.964844 23.648438 7.042969 23.746094 7.148438 23.828125 Z M 18.523438 23.117188 L 18.523438 23.554688 C 18.523438 23.582031 18.503906 23.605469 18.476562 23.605469 C 18.316406 23.621094 18.179688 23.617188 18.070312 23.601562 C 17.878906 23.570312 17.746094 23.46875 17.671875 23.292969 C 17.601562 23.125 17.570312 22.957031 17.574219 22.78125 C 17.582031 22.597656 17.628906 22.4375 17.71875 22.296875 C 17.886719 22.03125 18.160156 21.941406 18.535156 22.027344 C 18.636719 22.050781 18.738281 22.078125 18.839844 22.101562 C 18.851562 22.105469 18.863281 22.101562 18.871094 22.089844 C 18.9375 21.972656 18.984375 21.851562 19.011719 21.71875 C 19.015625 21.707031 19.007812 21.695312 18.996094 21.6875 C 18.679688 21.566406 18.367188 21.527344 18.0625 21.570312 C 17.445312 21.65625 17.109375 22.019531 17.054688 22.652344 C 17.03125 22.925781 17.054688 23.167969 17.128906 23.382812 C 17.21875 23.644531 17.375 23.828125 17.601562 23.9375 C 17.769531 24.023438 17.996094 24.058594 18.273438 24.054688 C 18.519531 24.046875 18.765625 24.003906 19.011719 23.925781 C 19.023438 23.921875 19.03125 23.90625 19.03125 23.894531 L 19.03125 22.691406 C 19.03125 22.675781 19.019531 22.664062 19.007812 22.664062 L 18.109375 22.664062 C 18.089844 22.664062 18.074219 22.679688 18.074219 22.703125 L 18.074219 23.054688 C 18.074219 23.074219 18.089844 23.089844 18.109375 23.089844 L 18.5 23.097656 C 18.511719 23.097656 18.523438 23.105469 18.523438 23.117188 Z M 5.785156 23.351562 C 5.785156 23.398438 5.773438 23.402344 5.75 23.363281 L 4.742188 21.617188 C 4.734375 21.601562 4.714844 21.59375 4.699219 21.59375 L 4.109375 21.59375 C 4.089844 21.59375 4.074219 21.609375 4.074219 21.628906 L 4.074219 23.992188 C 4.074219 24.007812 4.082031 24.019531 4.097656 24.019531 L 4.519531 24.015625 C 4.535156 24.015625 4.546875 24.003906 4.546875 23.988281 C 4.554688 23.390625 4.542969 22.808594 4.515625 22.234375 C 4.515625 22.230469 4.519531 22.226562 4.523438 22.226562 L 4.53125 22.222656 C 4.535156 22.222656 4.546875 22.230469 4.550781 22.238281 L 5.546875 23.980469 C 5.5625 24 5.582031 24.015625 5.605469 24.015625 L 6.21875 24.023438 C 6.230469 24.023438 6.242188 24.011719 6.242188 24 L 6.238281 21.617188 C 6.238281 21.601562 6.226562 21.59375 6.214844 21.59375 L 5.800781 21.589844 C 5.785156 21.589844 5.777344 21.597656 5.777344 21.613281 Z M 10.976562 21.605469 C 10.976562 21.597656 10.972656 21.59375 10.964844 21.59375 L 10.480469 21.59375 C 10.476562 21.59375 10.46875 21.597656 10.46875 21.605469 L 10.46875 24.015625 C 10.46875 24.019531 10.476562 24.027344 10.480469 24.027344 L 10.964844 24.027344 C 10.972656 24.027344 10.976562 24.019531 10.976562 24.015625 Z M 13.714844 22.214844 L 13.707031 23.992188 C 13.707031 24 13.710938 24.011719 13.71875 24.015625 C 13.722656 24.023438 13.734375 24.027344 13.742188 24.023438 L 14.148438 24.019531 C 14.167969 24.019531 14.179688 24.003906 14.179688 23.988281 L 14.191406 21.617188 C 14.191406 21.613281 14.1875 21.605469 14.183594 21.601562 C 14.179688 21.597656 14.171875 21.59375 14.167969 21.59375 L 13.496094 21.605469 C 13.480469 21.605469 13.46875 21.613281 13.464844 21.628906 L 12.878906 23.414062 C 12.867188 23.441406 12.859375 23.441406 12.851562 23.414062 L 12.292969 21.613281 C 12.289062 21.601562 12.277344 21.59375 12.261719 21.59375 L 11.605469 21.59375 C 11.589844 21.59375 11.574219 21.605469 11.574219 21.625 L 11.574219 23.996094 C 11.574219 24.007812 11.585938 24.019531 11.597656 24.019531 L 12.023438 24.015625 C 12.035156 24.015625 12.046875 24.003906 12.046875 23.992188 L 12.027344 22.25 C 12.027344 22.164062 12.039062 22.160156 12.0625 22.242188 C 12.230469 22.808594 12.40625 23.371094 12.582031 23.933594 C 12.582031 23.933594 12.585938 23.949219 12.589844 23.976562 C 12.605469 24.03125 12.636719 24.046875 12.691406 24.027344 C 12.703125 24.023438 12.71875 24.023438 12.738281 24.023438 L 13.054688 24.019531 C 13.074219 24.019531 13.089844 24.003906 13.097656 23.980469 C 13.289062 23.398438 13.480469 22.816406 13.679688 22.230469 C 13.679688 22.226562 13.679688 22.21875 13.679688 22.210938 C 13.683594 22.199219 13.6875 22.195312 13.695312 22.191406 C 13.699219 22.191406 13.703125 22.191406 13.707031 22.195312 C 13.710938 22.203125 13.714844 22.207031 13.714844 22.214844 Z M 15.242188 23.445312 L 16.074219 23.445312 C 16.085938 23.445312 16.097656 23.453125 16.105469 23.464844 C 16.179688 23.632812 16.238281 23.804688 16.277344 23.980469 C 16.285156 24.011719 16.3125 24.03125 16.347656 24.03125 L 16.832031 24.027344 C 16.839844 24.027344 16.84375 24.023438 16.847656 24.019531 C 16.855469 24.011719 16.855469 24.007812 16.851562 24 L 16.007812 21.617188 C 16 21.597656 15.980469 21.582031 15.957031 21.582031 L 15.40625 21.582031 C 15.375 21.582031 15.34375 21.601562 15.332031 21.632812 L 14.507812 23.984375 C 14.503906 23.992188 14.507812 24 14.511719 24.007812 C 14.515625 24.015625 14.523438 24.019531 14.53125 24.019531 L 15.035156 24.027344 C 15.050781 24.027344 15.0625 24.019531 15.066406 24.003906 L 15.214844 23.46875 C 15.21875 23.453125 15.230469 23.445312 15.242188 23.445312 Z M 20.128906 22.53125 L 20.136719 22.066406 C 20.136719 22.042969 20.15625 22.019531 20.179688 22.019531 L 20.996094 22.011719 C 21.007812 22.007812 21.019531 22 21.019531 21.988281 L 21.027344 21.625 C 21.027344 21.617188 21.023438 21.609375 21.019531 21.601562 C 21.011719 21.597656 21.003906 21.59375 20.996094 21.59375 L 19.652344 21.59375 C 19.640625 21.59375 19.628906 21.601562 19.628906 21.617188 L 19.617188 23.988281 C 19.617188 24.011719 19.636719 24.027344 19.65625 24.027344 L 21.007812 24.019531 C 21.019531 24.019531 21.027344 24.007812 21.027344 23.996094 L 21.027344 23.632812 C 21.027344 23.609375 21.007812 23.589844 20.984375 23.589844 L 20.195312 23.589844 C 20.164062 23.589844 20.136719 23.566406 20.136719 23.535156 L 20.136719 23.007812 C 20.136719 22.988281 20.15625 22.96875 20.175781 22.96875 L 20.917969 22.96875 C 20.929688 22.96875 20.941406 22.964844 20.949219 22.957031 C 20.957031 22.949219 20.960938 22.941406 20.960938 22.929688 L 20.953125 22.570312 C 20.953125 22.558594 20.945312 22.546875 20.929688 22.546875 L 20.148438 22.550781 C 20.136719 22.550781 20.128906 22.542969 20.128906 22.53125 Z M 20.128906 22.53125 "/>
<path style=" stroke:none;fill-rule:nonzero;fill:rgb(82.745098%,82.745098%,82.745098%);fill-opacity:1;" d="M 22.546875 10.488281 C 22.546875 16.117188 17.984375 20.679688 12.355469 20.679688 C 6.726562 20.679688 2.164062 16.117188 2.164062 10.488281 C 2.164062 4.859375 6.726562 0.296875 12.355469 0.296875 C 17.984375 0.296875 22.546875 4.859375 22.546875 10.488281 Z M 16.117188 6.917969 C 15.800781 6.601562 15.480469 6.285156 15.160156 5.96875 C 14.898438 5.707031 14.703125 5.542969 14.582031 5.472656 C 14.351562 5.34375 14.097656 5.28125 13.820312 5.28125 C 12.128906 5.28125 10.433594 5.277344 8.742188 5.273438 C 8.566406 5.273438 8.429688 5.289062 8.335938 5.324219 C 8.214844 5.371094 8.125 5.453125 8.066406 5.570312 C 8.03125 5.648438 8.007812 5.757812 8.003906 5.90625 C 8 6.003906 8 6.125 8 6.261719 C 8 9.242188 8 12.222656 8 15.203125 C 8 15.375 8.011719 15.496094 8.035156 15.570312 C 8.082031 15.703125 8.167969 15.800781 8.289062 15.859375 C 8.378906 15.90625 8.535156 15.929688 8.757812 15.929688 C 11.304688 15.929688 13.851562 15.929688 16.398438 15.929688 C 16.589844 15.929688 16.726562 15.914062 16.808594 15.878906 C 16.949219 15.816406 17.046875 15.703125 17.101562 15.546875 C 17.117188 15.496094 17.128906 15.4375 17.132812 15.363281 C 17.132812 15.300781 17.136719 15.238281 17.136719 15.171875 C 17.152344 13.167969 17.152344 11.164062 17.140625 9.160156 C 17.136719 8.679688 17.125 8.394531 17.109375 8.308594 C 17.054688 8.015625 16.917969 7.757812 16.707031 7.527344 C 16.515625 7.320312 16.320312 7.117188 16.117188 6.917969 Z M 16.117188 6.917969 "/>
<path style=" stroke:none;fill-rule:nonzero;fill:rgb(100%,100%,100%);fill-opacity:1;" d="M 16.117188 6.917969 C 16.320312 7.117188 16.515625 7.320312 16.707031 7.527344 C 16.917969 7.757812 17.054688 8.015625 17.109375 8.308594 C 17.125 8.394531 17.136719 8.679688 17.140625 9.160156 C 17.152344 11.164062 17.152344 13.167969 17.136719 15.171875 C 17.136719 15.238281 17.132812 15.300781 17.132812 15.363281 C 17.128906 15.4375 17.117188 15.496094 17.101562 15.546875 C 17.046875 15.703125 16.949219 15.816406 16.808594 15.878906 C 16.726562 15.914062 16.589844 15.929688 16.398438 15.929688 C 13.851562 15.929688 11.304688 15.929688 8.757812 15.929688 C 8.535156 15.929688 8.378906 15.90625 8.289062 15.859375 C 8.167969 15.800781 8.082031 15.703125 8.035156 15.570312 C 8.011719 15.496094 8 15.375 8 15.203125 C 8 12.222656 8 9.242188 8 6.261719 C 8 6.125 8 6.003906 8.003906 5.90625 C 8.007812 5.757812 8.03125 5.648438 8.066406 5.570312 C 8.125 5.453125 8.214844 5.371094 8.335938 5.324219 C 8.429688 5.289062 8.566406 5.273438 8.742188 5.273438 C 10.433594 5.277344 12.128906 5.28125 13.820312 5.28125 C 14.097656 5.28125 14.351562 5.34375 14.582031 5.472656 C 14.703125 5.542969 14.898438 5.707031 15.160156 5.96875 C 15.480469 6.285156 15.800781 6.601562 16.117188 6.917969 Z M 8.789062 15.164062 L 16.355469 15.160156 C 16.363281 15.160156 16.367188 15.15625 16.367188 15.148438 L 16.363281 9.113281 C 16.363281 9.101562 16.351562 9.089844 16.339844 9.089844 C 15.542969 9.09375 14.75 9.09375 13.957031 9.089844 C 13.6875 9.089844 13.503906 8.988281 13.398438 8.78125 C 13.355469 8.703125 13.335938 8.589844 13.332031 8.445312 C 13.324219 7.648438 13.320312 6.863281 13.320312 6.078125 C 13.320312 6.0625 13.304688 6.046875 13.289062 6.046875 L 8.808594 6.046875 C 8.785156 6.046875 8.765625 6.066406 8.765625 6.089844 L 8.765625 15.140625 C 8.765625 15.15625 8.777344 15.164062 8.789062 15.164062 Z M 14.101562 6.269531 C 14.085938 6.945312 14.085938 7.621094 14.097656 8.292969 C 14.097656 8.308594 14.109375 8.316406 14.121094 8.316406 C 14.851562 8.332031 15.535156 8.332031 16.175781 8.316406 C 16.324219 8.3125 16.347656 8.257812 16.242188 8.148438 C 15.640625 7.53125 15.042969 6.929688 14.449219 6.34375 C 14.449219 6.34375 14.429688 6.320312 14.394531 6.285156 C 14.328125 6.214844 14.246094 6.15625 14.15625 6.113281 C 14.144531 6.105469 14.128906 6.105469 14.121094 6.113281 C 14.109375 6.121094 14.101562 6.132812 14.101562 6.144531 C 14.105469 6.183594 14.105469 6.226562 14.101562 6.269531 Z M 14.101562 6.269531 "/>
<path style=" stroke:none;fill-rule:nonzero;fill:rgb(82.745098%,82.745098%,82.745098%);fill-opacity:1;" d="M 8.789062 15.164062 C 8.777344 15.164062 8.765625 15.15625 8.765625 15.140625 L 8.765625 6.089844 C 8.765625 6.066406 8.785156 6.046875 8.808594 6.046875 L 13.289062 6.046875 C 13.304688 6.046875 13.320312 6.0625 13.320312 6.078125 C 13.320312 6.863281 13.324219 7.648438 13.332031 8.445312 C 13.335938 8.589844 13.355469 8.703125 13.398438 8.78125 C 13.503906 8.988281 13.6875 9.089844 13.957031 9.089844 C 14.75 9.09375 15.542969 9.09375 16.339844 9.089844 C 16.351562 9.089844 16.363281 9.101562 16.363281 9.113281 L 16.367188 15.148438 C 16.367188 15.15625 16.363281 15.160156 16.355469 15.160156 Z M 11.808594 10.226562 C 11.808594 9.59375 11.296875 9.082031 10.664062 9.082031 C 10.03125 9.082031 9.519531 9.59375 9.519531 10.226562 C 9.519531 10.855469 10.03125 11.371094 10.664062 11.371094 C 11.296875 11.371094 11.808594 10.855469 11.808594 10.226562 Z M 13.730469 10.632812 C 13.710938 10.617188 13.683594 10.617188 13.667969 10.632812 L 11.449219 12.855469 C 11.433594 12.871094 11.410156 12.871094 11.394531 12.855469 L 10.6875 12.152344 C 10.671875 12.136719 10.644531 12.136719 10.632812 12.152344 L 9.539062 13.253906 C 9.53125 13.265625 9.523438 13.277344 9.523438 13.292969 L 9.515625 14.355469 C 9.515625 14.367188 9.519531 14.382812 9.527344 14.390625 C 9.539062 14.402344 9.550781 14.40625 9.5625 14.40625 L 15.589844 14.40625 C 15.601562 14.40625 15.613281 14.394531 15.613281 14.382812 L 15.613281 12.546875 C 15.613281 12.519531 15.605469 12.496094 15.585938 12.476562 Z M 13.730469 10.632812 "/>
<path style=" stroke:none;fill-rule:nonzero;fill:rgb(82.745098%,82.745098%,82.745098%);fill-opacity:1;" d="M 14.101562 6.269531 C 14.105469 6.226562 14.105469 6.183594 14.101562 6.144531 C 14.101562 6.132812 14.109375 6.121094 14.121094 6.113281 C 14.128906 6.105469 14.144531 6.105469 14.15625 6.113281 C 14.246094 6.15625 14.328125 6.214844 14.394531 6.285156 C 14.429688 6.320312 14.449219 6.34375 14.449219 6.34375 C 15.042969 6.929688 15.640625 7.53125 16.242188 8.148438 C 16.347656 8.257812 16.324219 8.3125 16.175781 8.316406 C 15.535156 8.332031 14.851562 8.332031 14.121094 8.316406 C 14.109375 8.316406 14.097656 8.308594 14.097656 8.292969 C 14.085938 7.621094 14.085938 6.945312 14.101562 6.269531 Z M 14.101562 6.269531 "/>
<path style=" stroke:none;fill-rule:nonzero;fill:rgb(100%,100%,100%);fill-opacity:1;" d="M 11.808594 10.226562 C 11.808594 10.855469 11.296875 11.371094 10.664062 11.371094 C 10.03125 11.371094 9.519531 10.855469 9.519531 10.226562 C 9.519531 9.59375 10.03125 9.082031 10.664062 9.082031 C 11.296875 9.082031 11.808594 9.59375 11.808594 10.226562 Z M 11.808594 10.226562 "/>
<path style=" stroke:none;fill-rule:nonzero;fill:rgb(100%,100%,100%);fill-opacity:1;" d="M 13.730469 10.632812 L 15.585938 12.476562 C 15.605469 12.496094 15.613281 12.519531 15.613281 12.546875 L 15.613281 14.382812 C 15.613281 14.394531 15.601562 14.40625 15.589844 14.40625 L 9.5625 14.40625 C 9.550781 14.40625 9.539062 14.402344 9.527344 14.390625 C 9.519531 14.382812 9.515625 14.367188 9.515625 14.355469 L 9.523438 13.292969 C 9.523438 13.277344 9.53125 13.265625 9.539062 13.253906 L 10.632812 12.152344 C 10.644531 12.136719 10.671875 12.136719 10.6875 12.152344 L 11.394531 12.855469 C 11.410156 12.871094 11.433594 12.871094 11.449219 12.855469 L 13.667969 10.632812 C 13.683594 10.617188 13.710938 10.617188 13.730469 10.632812 Z M 13.730469 10.632812 "/>
<path style=" stroke:none;fill-rule:nonzero;fill:rgb(82.745098%,82.745098%,82.745098%);fill-opacity:1;" d="M 7.148438 23.828125 C 7.042969 23.746094 6.964844 23.648438 6.914062 23.539062 C 6.75 23.191406 6.703125 22.839844 6.769531 22.484375 C 6.820312 22.214844 6.921875 22.003906 7.070312 21.851562 C 7.246094 21.679688 7.476562 21.582031 7.761719 21.558594 C 7.949219 21.546875 8.109375 21.554688 8.25 21.589844 C 8.636719 21.679688 8.886719 21.914062 8.992188 22.292969 C 9.078125 22.601562 9.085938 22.917969 9.007812 23.25 C 8.941406 23.542969 8.789062 23.761719 8.550781 23.902344 C 8.417969 23.980469 8.261719 24.027344 8.078125 24.046875 C 7.910156 24.066406 7.746094 24.058594 7.578125 24.027344 C 7.425781 23.996094 7.28125 23.933594 7.148438 23.828125 Z M 7.765625 23.605469 C 7.949219 23.652344 8.117188 23.621094 8.257812 23.503906 C 8.367188 23.410156 8.445312 23.277344 8.488281 23.105469 C 8.550781 22.84375 8.53125 22.582031 8.429688 22.324219 C 8.367188 22.160156 8.261719 22.058594 8.109375 22.019531 C 7.988281 21.984375 7.859375 21.984375 7.726562 22.011719 C 7.582031 22.042969 7.476562 22.125 7.402344 22.261719 C 7.320312 22.414062 7.28125 22.59375 7.289062 22.800781 C 7.292969 22.925781 7.300781 23.023438 7.3125 23.09375 C 7.328125 23.195312 7.367188 23.289062 7.421875 23.371094 C 7.503906 23.488281 7.617188 23.566406 7.765625 23.605469 Z M 7.765625 23.605469 "/>
<path style=" stroke:none;fill-rule:nonzero;fill:rgb(82.745098%,82.745098%,82.745098%);fill-opacity:1;" d="M 18.5 23.097656 L 18.109375 23.089844 C 18.089844 23.089844 18.074219 23.074219 18.074219 23.054688 L 18.074219 22.703125 C 18.074219 22.679688 18.089844 22.664062 18.109375 22.664062 L 19.007812 22.664062 C 19.019531 22.664062 19.03125 22.675781 19.03125 22.691406 L 19.03125 23.894531 C 19.03125 23.90625 19.023438 23.921875 19.011719 23.925781 C 18.765625 24.003906 18.519531 24.046875 18.273438 24.054688 C 17.996094 24.058594 17.769531 24.023438 17.601562 23.9375 C 17.375 23.828125 17.21875 23.644531 17.128906 23.382812 C 17.054688 23.167969 17.03125 22.925781 17.054688 22.652344 C 17.109375 22.019531 17.445312 21.65625 18.0625 21.570312 C 18.367188 21.527344 18.679688 21.566406 18.996094 21.6875 C 19.007812 21.695312 19.015625 21.707031 19.011719 21.71875 C 18.984375 21.851562 18.9375 21.972656 18.871094 22.089844 C 18.863281 22.101562 18.851562 22.105469 18.839844 22.101562 C 18.738281 22.078125 18.636719 22.050781 18.535156 22.027344 C 18.160156 21.941406 17.886719 22.03125 17.71875 22.296875 C 17.628906 22.4375 17.582031 22.597656 17.574219 22.78125 C 17.570312 22.957031 17.601562 23.125 17.671875 23.292969 C 17.746094 23.46875 17.878906 23.570312 18.070312 23.601562 C 18.179688 23.617188 18.316406 23.621094 18.476562 23.605469 C 18.503906 23.605469 18.523438 23.582031 18.523438 23.554688 L 18.523438 23.117188 C 18.523438 23.105469 18.511719 23.097656 18.5 23.097656 Z M 18.5 23.097656 "/>
<path style=" stroke:none;fill-rule:nonzero;fill:rgb(82.745098%,82.745098%,82.745098%);fill-opacity:1;" d="M 5.785156 23.351562 L 5.777344 21.613281 C 5.777344 21.597656 5.785156 21.589844 5.800781 21.589844 L 6.214844 21.59375 C 6.226562 21.59375 6.238281 21.601562 6.238281 21.617188 L 6.242188 24 C 6.242188 24.011719 6.230469 24.023438 6.21875 24.023438 L 5.605469 24.015625 C 5.582031 24.015625 5.5625 24 5.546875 23.980469 L 4.550781 22.238281 C 4.546875 22.230469 4.535156 22.222656 4.53125 22.222656 L 4.523438 22.226562 C 4.519531 22.226562 4.515625 22.230469 4.515625 22.234375 C 4.542969 22.808594 4.554688 23.390625 4.546875 23.988281 C 4.546875 24.003906 4.535156 24.015625 4.519531 24.015625 L 4.097656 24.019531 C 4.082031 24.019531 4.074219 24.007812 4.074219 23.992188 L 4.074219 21.628906 C 4.074219 21.609375 4.089844 21.59375 4.109375 21.59375 L 4.699219 21.59375 C 4.714844 21.59375 4.734375 21.601562 4.742188 21.617188 L 5.75 23.363281 C 5.773438 23.402344 5.785156 23.398438 5.785156 23.351562 Z M 5.785156 23.351562 "/>
<path style=" stroke:none;fill-rule:nonzero;fill:rgb(82.745098%,82.745098%,82.745098%);fill-opacity:1;" d="M 10.480469 21.59375 L 10.964844 21.59375 C 10.972656 21.59375 10.976562 21.597656 10.976562 21.605469 L 10.976562 24.015625 C 10.976562 24.019531 10.972656 24.027344 10.964844 24.027344 L 10.480469 24.027344 C 10.476562 24.027344 10.46875 24.019531 10.46875 24.015625 L 10.46875 21.605469 C 10.46875 21.597656 10.476562 21.59375 10.480469 21.59375 Z M 10.480469 21.59375 "/>
<path style=" stroke:none;fill-rule:nonzero;fill:rgb(82.745098%,82.745098%,82.745098%);fill-opacity:1;" d="M 13.695312 22.191406 C 13.6875 22.195312 13.683594 22.199219 13.679688 22.210938 C 13.679688 22.21875 13.679688 22.226562 13.679688 22.230469 C 13.480469 22.816406 13.289062 23.398438 13.097656 23.980469 C 13.089844 24.003906 13.074219 24.019531 13.054688 24.019531 L 12.738281 24.023438 C 12.71875 24.023438 12.703125 24.023438 12.691406 24.027344 C 12.636719 24.046875 12.605469 24.03125 12.589844 23.976562 C 12.585938 23.949219 12.582031 23.933594 12.582031 23.933594 C 12.40625 23.371094 12.230469 22.808594 12.0625 22.242188 C 12.039062 22.160156 12.027344 22.164062 12.027344 22.25 L 12.046875 23.992188 C 12.046875 24.003906 12.035156 24.015625 12.023438 24.015625 L 11.597656 24.019531 C 11.585938 24.019531 11.574219 24.007812 11.574219 23.996094 L 11.574219 21.625 C 11.574219 21.605469 11.589844 21.59375 11.605469 21.59375 L 12.261719 21.59375 C 12.277344 21.59375 12.289062 21.601562 12.292969 21.613281 L 12.851562 23.414062 C 12.859375 23.441406 12.867188 23.441406 12.878906 23.414062 L 13.464844 21.628906 C 13.46875 21.613281 13.480469 21.605469 13.496094 21.605469 L 14.167969 21.59375 C 14.171875 21.59375 14.179688 21.597656 14.183594 21.601562 C 14.1875 21.605469 14.191406 21.613281 14.191406 21.617188 L 14.179688 23.988281 C 14.179688 24.003906 14.167969 24.019531 14.148438 24.019531 L 13.742188 24.023438 C 13.734375 24.027344 13.722656 24.023438 13.71875 24.015625 C 13.710938 24.011719 13.707031 24 13.707031 23.992188 L 13.714844 22.214844 C 13.714844 22.207031 13.710938 22.203125 13.707031 22.195312 C 13.703125 22.191406 13.699219 22.191406 13.695312 22.191406 Z M 13.695312 22.191406 "/>
<path style=" stroke:none;fill-rule:nonzero;fill:rgb(82.745098%,82.745098%,82.745098%);fill-opacity:1;" d="M 15.214844 23.46875 L 15.066406 24.003906 C 15.0625 24.019531 15.050781 24.027344 15.035156 24.027344 L 14.53125 24.019531 C 14.523438 24.019531 14.515625 24.015625 14.511719 24.007812 C 14.507812 24 14.503906 23.992188 14.507812 23.984375 L 15.332031 21.632812 C 15.34375 21.601562 15.375 21.582031 15.40625 21.582031 L 15.957031 21.582031 C 15.980469 21.582031 16 21.597656 16.007812 21.617188 L 16.851562 24 C 16.855469 24.007812 16.855469 24.011719 16.847656 24.019531 C 16.84375 24.023438 16.839844 24.027344 16.832031 24.027344 L 16.347656 24.03125 C 16.3125 24.03125 16.285156 24.011719 16.277344 23.980469 C 16.238281 23.804688 16.179688 23.632812 16.105469 23.464844 C 16.097656 23.453125 16.085938 23.445312 16.074219 23.445312 L 15.242188 23.445312 C 15.230469 23.445312 15.21875 23.453125 15.214844 23.46875 Z M 15.398438 23.003906 L 15.960938 23.011719 C 15.964844 23.011719 15.972656 23.011719 15.972656 23.003906 C 15.976562 23 15.980469 22.996094 15.976562 22.988281 L 15.699219 22.066406 C 15.683594 22.015625 15.671875 22.015625 15.65625 22.066406 L 15.382812 22.980469 C 15.382812 22.984375 15.382812 22.992188 15.386719 22.996094 C 15.390625 23 15.394531 23.003906 15.398438 23.003906 Z M 15.398438 23.003906 "/>
<path style=" stroke:none;fill-rule:nonzero;fill:rgb(82.745098%,82.745098%,82.745098%);fill-opacity:1;" d="M 20.128906 22.53125 C 20.128906 22.542969 20.136719 22.550781 20.148438 22.550781 L 20.929688 22.546875 C 20.945312 22.546875 20.953125 22.558594 20.953125 22.570312 L 20.960938 22.929688 C 20.960938 22.941406 20.957031 22.949219 20.949219 22.957031 C 20.941406 22.964844 20.929688 22.96875 20.917969 22.96875 L 20.175781 22.96875 C 20.15625 22.96875 20.136719 22.988281 20.136719 23.007812 L 20.136719 23.535156 C 20.136719 23.566406 20.164062 23.589844 20.195312 23.589844 L 20.984375 23.589844 C 21.007812 23.589844 21.027344 23.609375 21.027344 23.632812 L 21.027344 23.996094 C 21.027344 24.007812 21.019531 24.019531 21.007812 24.019531 L 19.65625 24.027344 C 19.636719 24.027344 19.617188 24.011719 19.617188 23.988281 L 19.628906 21.617188 C 19.628906 21.601562 19.640625 21.59375 19.652344 21.59375 L 20.996094 21.59375 C 21.003906 21.59375 21.011719 21.597656 21.019531 21.601562 C 21.023438 21.609375 21.027344 21.617188 21.027344 21.625 L 21.019531 21.988281 C 21.019531 22 21.007812 22.007812 20.996094 22.011719 L 20.179688 22.019531 C 20.15625 22.019531 20.136719 22.042969 20.136719 22.066406 Z M 20.128906 22.53125 "/>
<path style=" stroke:none;fill-rule:nonzero;fill:rgb(100%,100%,100%);fill-opacity:1;" d="M 7.421875 23.371094 C 7.367188 23.289062 7.328125 23.195312 7.3125 23.09375 C 7.300781 23.023438 7.292969 22.925781 7.289062 22.800781 C 7.28125 22.59375 7.320312 22.414062 7.402344 22.261719 C 7.476562 22.125 7.582031 22.042969 7.726562 22.011719 C 7.859375 21.984375 7.988281 21.984375 8.109375 22.019531 C 8.261719 22.058594 8.367188 22.160156 8.429688 22.324219 C 8.53125 22.582031 8.550781 22.84375 8.488281 23.105469 C 8.445312 23.277344 8.367188 23.410156 8.257812 23.503906 C 8.117188 23.621094 7.949219 23.652344 7.765625 23.605469 C 7.617188 23.566406 7.503906 23.488281 7.421875 23.371094 Z M 7.421875 23.371094 "/>
<path style=" stroke:none;fill-rule:nonzero;fill:rgb(100%,100%,100%);fill-opacity:1;" d="M 15.398438 23.003906 C 15.394531 23.003906 15.390625 23 15.386719 22.996094 C 15.382812 22.992188 15.382812 22.984375 15.382812 22.980469 L 15.65625 22.066406 C 15.671875 22.015625 15.683594 22.015625 15.699219 22.066406 L 15.976562 22.988281 C 15.980469 22.996094 15.976562 23 15.972656 23.003906 C 15.972656 23.011719 15.964844 23.011719 15.960938 23.011719 Z M 15.398438 23.003906 "/>
</g>
</svg>
